Galada.ufo
<glyph name="quotesingle" format="1">
  <advance width="268"/>
  <unicode hex="0027"/>
  <outline>
    <contour>
      <point x="102" y="561" type="line" name="hr00"/>
      <point x="177" y="561" type="line"/>
      <point x="268" y="750" type="line"/>
      <point x="163" y="750" type="line"/>
    </contour>
  </outline>
</glyph>
<glyph name="parenleft" format="1">
  <advance width="437"/>
  <unicode hex="0028"/>
  <outline>
    <contour>
      <point x="464" y="750" type="line" name="hr00"/>
      <point x="266" y="655"/>
      <point x="138" y="361"/>
      <point x="138" y="100" type="curve" smooth="yes"/>
      <point x="138" y="-36"/>
      <point x="173" y="-164"/>
      <point x="251" y="-250" type="curve"/>
      <point x="284" y="-221" type="line"/>
      <point x="233" y="-146"/>
      <point x="211" y="-41"/>
      <point x="211" y="73" type="curve" smooth="yes"/>
      <point x="211" y="333"/>
      <point x="328" y="636"/>
      <point x="477" y="710" type="curve"/>
    </contour>
  </outline>
</glyph>
<glyph name="parenright" format="1">
  <advance width="413"/>
  <unicode hex="0029"/>
  <outline>
    <contour>
      <point x="-16" y="-250" type="line" name="hr00"/>
      <point x="182" y="-155"/>
      <point x="310" y="138"/>
      <point x="310" y="400" type="curve" smooth="yes"/>
      <point x="310" y="536"/>
      <point x="275" y="664"/>
      <point x="197" y="750" type="curve"/>
      <point x="164" y="721" type="line"/>
      <point x="215" y="646"/>
      <point x="237" y="540"/>
      <point x="237" y="427" type="curve" smooth="yes"/>
      <point x="237" y="166"/>
      <point x="120" y="-136"/>
      <point x="-29" y="-210" type="curve"/>
    </contour>
  </outline>
</glyph>
<glyph name="plus" format="1">
  <advance width="515"/>
  <unicode hex="002B"/>
  <outline>
    <contour>
      <point x="345" y="439" type="line"/>
      <point x="232" y="439" type="line"/>
      <point x="205" y="317" type="line" name="hr01"/>
      <point x="77" y="317" type="line"/>
      <point x="53" y="205" type="line" name="hr02"/>
      <point x="181" y="205" type="line"/>
      <point x="154" y="82" type="line" name="hr03"/>
      <point x="267" y="82" type="line"/>
      <point x="294" y="205" type="line" name="hr04"/>
      <point x="422" y="205" type="line"/>
      <point x="445" y="317" type="line" name="hr05"/>
      <point x="318" y="317" type="line"/>
    </contour>
  </outline>
</glyph>
<glyph name="zero" format="1">
  <advance width="546"/>
  <unicode hex="0030"/>
  <outline>
    <contour>
      <point x="377" y="750" type="curve" smooth="yes" name="hr00"/>
      <point x="162" y="750"/>
      <point x="30" y="527"/>
      <point x="30" y="254" type="curve" smooth="yes"/>
      <point x="30" y="88"/>
      <point x="65" y="-9"/>
      <point x="237" y="-9" type="curve" smooth="yes"/>
      <point x="442" y="-9"/>
      <point x="555" y="290"/>
      <point x="555" y="489" type="curve" smooth="yes"/>
      <point x="555" y="657"/>
      <point x="502" y="750"/>
    </contour>
    <contour>
      <point x="188" y="325" type="curve" smooth="yes"/>
      <point x="205" y="550"/>
      <point x="310" y="698"/>
      <point x="370" y="698" type="curve" smooth="yes"/>
      <point x="417" y="698"/>
      <point x="424" y="635"/>
      <point x="424" y="553" type="curve" smooth="yes"/>
      <point x="424" y="321"/>
      <point x="356" y="75"/>
      <point x="242" y="75" type="curve" smooth="yes"/>
      <point x="194" y="75"/>
      <point x="183" y="152"/>
      <point x="183" y="226" type="curve" smooth="yes"/>
      <point x="183" y="263"/>
      <point x="186" y="298"/>
    </contour>
  </outline>
</glyph>
<glyph name="semicolon" format="1">
  <advance width="276"/>
  <unicode hex="003B"/>
  <outline>
    <contour>
      <point x="94" y="331" type="curve" smooth="yes"/>
      <point x="94" y="287"/>
      <point x="129" y="252"/>
      <point x="173" y="252" type="curve" smooth="yes"/>
      <point x="217" y="252"/>
      <point x="253" y="287"/>
      <point x="253" y="331" type="curve" smooth="yes"/>
      <point x="253" y="375"/>
      <point x="217" y="411"/>
      <point x="173" y="411" type="curve" smooth="yes"/>
      <point x="129" y="411"/>
      <point x="94" y="375"/>
    </contour>
    <contour>
      <point x="46" y="91" type="curve" smooth="yes"/>
      <point x="46" y="58"/>
      <point x="67" y="35"/>
      <point x="93" y="18" type="curve" smooth="yes"/>
      <point x="102" y="12"/>
      <point x="106" y="5"/>
      <point x="106" y="-2" type="curve" smooth="yes" name="hr01"/>
      <point x="106" y="-39"/>
      <point x="54" y="-57"/>
      <point x="54" y="-93" type="curve" smooth="yes" name="hr02"/>
      <point x="54" y="-99"/>
      <point x="56" y="-105"/>
      <point x="63" y="-110" type="curve"/>
      <point x="145" y="-53"/>
      <point x="193" y="35"/>
      <point x="193" y="95" type="curve" smooth="yes"/>
      <point x="193" y="139"/>
      <point x="169" y="171"/>
      <point x="125" y="171" type="curve" smooth="yes"/>
      <point x="81" y="171"/>
      <point x="46" y="135"/>
    </contour>
  </outline>
</glyph>
<glyph name="A" format="1">
  <advance width="668"/>
  <unicode hex="0041"/>
  <outline>
    <contour>
      <point x="535" y="0" type="line"/>
      <point x="692" y="736" type="line"/>
      <point x="668" y="746"/>
      <point x="636" y="750"/>
      <point x="613" y="750" type="curve" smooth="yes"/>
      <point x="496" y="750"/>
      <point x="366" y="615"/>
      <point x="265" y="455" type="curve"/>
      <point x="244" y="457"/>
      <point x="227" y="458"/>
      <point x="213" y="458" type="curve" smooth="yes"/>
      <point x="95" y="458"/>
      <point x="9" y="403"/>
      <point x="9" y="335" type="curve" smooth="yes"/>
      <point x="9" y="296"/>
      <point x="37" y="277"/>
      <point x="71" y="277" type="curve" smooth="yes"/>
      <point x="102" y="277"/>
      <point x="127" y="292"/>
      <point x="127" y="316" type="curve" smooth="yes"/>
      <point x="127" y="330"/>
      <point x="119" y="347"/>
      <point x="114" y="347" type="curve"/>
      <point x="127" y="381"/>
      <point x="169" y="395"/>
      <point x="231" y="399" type="curve" name="hr01"/>
      <point x="144" y="246"/>
      <point x="84" y="82"/>
      <point x="84" y="-8" type="curve" smooth="yes"/>
      <point x="84" y="-112"/>
      <point x="164" y="-114"/>
      <point x="218" y="-114" type="curve"/>
      <point x="212" y="-105"/>
      <point x="204" y="-90"/>
      <point x="204" y="-58" type="curve" smooth="yes"/>
      <point x="204" y="46"/>
      <point x="259" y="236"/>
      <point x="334" y="399" type="curve"/>
      <point x="378" y="395"/>
      <point x="417" y="386"/>
      <point x="468" y="363" type="curve"/>
      <point x="391" y="0" type="line"/>
    </contour>
    <contour>
      <point x="477" y="407" type="line"/>
      <point x="438" y="423"/>
      <point x="395" y="434"/>
      <point x="355" y="442" type="curve"/>
      <point x="411" y="554"/>
      <point x="475" y="647"/>
      <point x="535" y="679" type="curve"/>
    </contour>
  </outline>
</glyph>
<glyph name="D" format="1">
  <advance width="663"/>
  <unicode hex="0044"/>
  <outline>
    <contour>
      <point x="230" y="636" type="line"/>
      <point x="94" y="0" type="line"/>
      <point x="238" y="0" type="line"/>
      <point x="246" y="40" type="line"/>
      <point x="289" y="3"/>
      <point x="330" y="-13"/>
      <point x="368" y="-13" type="curve" smooth="yes" name="hr01"/>
      <point x="516" y="-13"/>
      <point x="645" y="232"/>
      <point x="645" y="462" type="curve" smooth="yes"/>
      <point x="645" y="615"/>
      <point x="572" y="750"/>
      <point x="378" y="750" type="curve" smooth="yes"/>
      <point x="175" y="750"/>
      <point x="6" y="623"/>
      <point x="6" y="486" type="curve" smooth="yes"/>
      <point x="6" y="418"/>
      <point x="47" y="393"/>
      <point x="113" y="393" type="curve"/>
      <point x="112" y="402"/>
      <point x="99" y="410"/>
      <point x="99" y="461" type="curve" smooth="yes"/>
      <point x="99" y="613"/>
      <point x="212" y="704"/>
      <point x="361" y="704" type="curve" smooth="yes"/>
      <point x="448" y="704"/>
      <point x="507" y="651"/>
      <point x="507" y="515" type="curve" smooth="yes"/>
      <point x="507" y="313"/>
      <point x="434" y="75"/>
      <point x="315" y="75" type="curve" smooth="yes"/>
      <point x="296" y="75"/>
      <point x="277" y="81"/>
      <point x="258" y="95" type="curve"/>
      <point x="378" y="656" type="line"/>
    </contour>
  </outline>
</glyph>
<glyph name="F" format="1">
  <advance width="459"/>
  <unicode hex="0046"/>
  <outline>
    <contour>
      <point x="329" y="450" type="line"/>
      <point x="371" y="649" type="line"/>
      <point x="417" y="639"/>
      <point x="465" y="630"/>
      <point x="511" y="630" type="curve"/>
      <point x="589" y="647"/>
      <point x="592" y="708"/>
      <point x="606" y="750" type="curve" name="hr01"/>
      <point x="578" y="741"/>
      <point x="547" y="738"/>
      <point x="516" y="738" type="curve" smooth="yes" name="hr02"/>
      <point x="453" y="738"/>
      <point x="390" y="750"/>
      <point x="350" y="750" type="curve" smooth="yes" name="hr03"/>
      <point x="103" y="750"/>
      <point x="9" y="623"/>
      <point x="9" y="490" type="curve" smooth="yes"/>
      <point x="9" y="418"/>
      <point x="47" y="393"/>
      <point x="116" y="393" type="curve"/>
      <point x="115" y="402"/>
      <point x="102" y="410"/>
      <point x="102" y="461" type="curve" smooth="yes"/>
      <point x="102" y="621"/>
      <point x="155" y="665"/>
      <point x="232" y="668" type="curve"/>
      <point x="88" y="0" type="line"/>
      <point x="232" y="0" type="line"/>
      <point x="313" y="376" type="line"/>
      <point x="459" y="376" type="line"/>
      <point x="475" y="450" type="line"/>
    </contour>
  </outline>
</glyph>
<glyph name="K" format="1">
  <advance width="601"/>
  <unicode hex="004B"/>
  <outline>
    <contour>
      <point x="397" y="748" type="line"/>
      <point x="384" y="749"/>
      <point x="371" y="750"/>
      <point x="357" y="750" type="curve" smooth="yes"/>
      <point x="190" y="750"/>
      <point x="6" y="623"/>
      <point x="6" y="490" type="curve" smooth="yes"/>
      <point x="6" y="418"/>
      <point x="44" y="393"/>
      <point x="113" y="393" type="curve"/>
      <point x="112" y="402"/>
      <point x="99" y="410"/>
      <point x="99" y="461" type="curve" smooth="yes"/>
      <point x="99" y="567"/>
      <point x="151" y="643"/>
      <point x="239" y="680" type="curve"/>
      <point x="94" y="0" type="line"/>
      <point x="238" y="0" type="line"/>
      <point x="318" y="377" type="line"/>
      <point x="330" y="379"/>
      <point x="342" y="381"/>
      <point x="351" y="381" type="curve" smooth="yes"/>
      <point x="396" y="381"/>
      <point x="411" y="353"/>
      <point x="411" y="313" type="curve" smooth="yes"/>
      <point x="411" y="237"/>
      <point x="358" y="116"/>
      <point x="358" y="50" type="curve" smooth="yes" name="hr01"/>
      <point x="358" y="17"/>
      <point x="371" y="-17"/>
      <point x="436" y="-17" type="curve" smooth="yes"/>
      <point x="460" y="-17"/>
      <point x="493" y="-12"/>
      <point x="535" y="0" type="curve" name="hr02"/>
      <point x="511" y="9"/>
      <point x="496" y="36"/>
      <point x="496" y="66" type="curve" smooth="yes"/>
      <point x="496" y="129"/>
      <point x="545" y="237"/>
      <point x="545" y="319" type="curve" smooth="yes" name="hr03"/>
      <point x="545" y="380"/>
      <point x="518" y="426"/>
      <point x="421" y="426" type="curve" smooth="yes"/>
      <point x="410" y="426"/>
      <point x="399" y="425"/>
      <point x="386" y="425" type="curve"/>
      <point x="664" y="745" type="line"/>
      <point x="559" y="745" type="line"/>
      <point x="559" y="746"/>
      <point x="395" y="528"/>
      <point x="332" y="442" type="curve"/>
    </contour>
  </outline>
</glyph>
<glyph name="P" format="1">
  <advance width="573"/>
  <unicode hex="0050"/>
  <outline>
    <contour>
      <point x="230" y="636" type="line" name="hr00"/>
      <point x="94" y="0" type="line"/>
      <point x="238" y="0" type="line"/>
      <point x="299" y="285" type="line"/>
      <point x="304" y="285" type="line" smooth="yes"/>
      <point x="484" y="285"/>
      <point x="593" y="426"/>
      <point x="593" y="553" type="curve" smooth="yes"/>
      <point x="593" y="656"/>
      <point x="521" y="750"/>
      <point x="357" y="750" type="curve" smooth="yes"/>
      <point x="190" y="750"/>
      <point x="6" y="623"/>
      <point x="6" y="490" type="curve" smooth="yes"/>
      <point x="6" y="418"/>
      <point x="44" y="393"/>
      <point x="113" y="393" type="curve"/>
      <point x="112" y="402"/>
      <point x="99" y="410"/>
      <point x="99" y="461" type="curve" smooth="yes"/>
      <point x="99" y="613"/>
      <point x="196" y="704"/>
      <point x="358" y="704" type="curve" smooth="yes"/>
      <point x="446" y="704"/>
      <point x="482" y="642"/>
      <point x="482" y="568" type="curve" smooth="yes"/>
      <point x="482" y="461"/>
      <point x="408" y="330"/>
      <point x="307" y="322" type="curve"/>
      <point x="378" y="656" type="line"/>
    </contour>
  </outline>
</glyph>
<glyph name="Q" format="1">
  <advance width="665"/>
  <unicode hex="0051"/>
  <outline>
    <contour>
      <point x="431" y="656" type="curve"/>
      <point x="413" y="662"/>
      <point x="396" y="664"/>
      <point x="379" y="664" type="curve" smooth="yes"/>
      <point x="199" y="664"/>
      <point x="108" y="357"/>
      <point x="108" y="195" type="curve" smooth="yes"/>
      <point x="108" y="49"/>
      <point x="182" y="-6"/>
      <point x="287" y="-6" type="curve" smooth="yes"/>
      <point x="321" y="-6"/>
      <point x="352" y="-1"/>
      <point x="380" y="8" type="curve"/>
      <point x="398" y="-51"/>
      <point x="421" y="-113"/>
      <point x="509" y="-113" type="curve" smooth="yes"/>
      <point x="552" y="-113"/>
      <point x="586" y="-96"/>
      <point x="612" y="-27" type="curve"/>
      <point x="604" y="-28"/>
      <point x="597" y="-29"/>
      <point x="590" y="-29" type="curve" smooth="yes"/>
      <point x="527" y="-29"/>
      <point x="495" y="10"/>
      <point x="465" y="52" type="curve"/>
      <point x="598" y="151"/>
      <point x="656" y="353"/>
      <point x="656" y="494" type="curve" smooth="yes"/>
      <point x="656" y="643"/>
      <point x="594" y="750"/>
      <point x="419" y="750" type="curve" smooth="yes"/>
      <point x="208" y="750"/>
      <point x="16" y="617"/>
      <point x="16" y="477" type="curve" smooth="yes"/>
      <point x="16" y="416"/>
      <point x="54" y="393"/>
      <point x="117" y="393" type="curve"/>
      <point x="117" y="401"/>
      <point x="107" y="408"/>
      <point x="107" y="447" type="curve" smooth="yes"/>
      <point x="107" y="606"/>
      <point x="242" y="704"/>
      <point x="395" y="704" type="curve" smooth="yes"/>
      <point x="500" y="704"/>
      <point x="523" y="645"/>
      <point x="523" y="529" type="curve" smooth="yes"/>
      <point x="523" y="385"/>
      <point x="468" y="216"/>
      <point x="400" y="130" type="curve"/>
      <point x="379" y="146"/>
      <point x="354" y="157"/>
      <point x="320" y="157" type="curve" smooth="yes"/>
      <point x="302" y="157"/>
      <point x="282" y="154"/>
      <point x="258" y="148" type="curve"/>
      <point x="256" y="161"/>
      <point x="256" y="175"/>
      <point x="256" y="191" type="curve" smooth="yes"/>
      <point x="256" y="345"/>
      <point x="340" y="601"/>
    </contour>
    <contour>
      <point x="314" y="75" type="curve" smooth="yes"/>
      <point x="290" y="75"/>
      <point x="275" y="90"/>
      <point x="266" y="116" type="curve"/>
      <point x="277" y="119"/>
      <point x="286" y="120"/>
      <point x="295" y="120" type="curve" smooth="yes" name="hr01"/>
      <point x="323" y="120"/>
      <point x="340" y="106"/>
      <point x="352" y="86" type="curve"/>
      <point x="340" y="78"/>
      <point x="326" y="75"/>
    </contour>
  </outline>
</glyph>
<glyph name="T" format="1">
  <advance width="481"/>
  <unicode hex="0054"/>
  <outline>
    <contour>
      <point x="594" y="620" type="curve" smooth="yes"/>
      <point x="674" y="620"/>
      <point x="717" y="660"/>
      <point x="719" y="747" type="curve"/>
      <point x="692" y="736"/>
      <point x="649" y="726"/>
      <point x="603" y="726" type="curve" smooth="yes"/>
      <point x="505" y="726"/>
      <point x="468" y="749"/>
      <point x="347" y="749" type="curve" smooth="yes" name="hr01"/>
      <point x="100" y="749"/>
      <point x="6" y="622"/>
      <point x="6" y="489" type="curve" smooth="yes"/>
      <point x="6" y="417"/>
      <point x="44" y="392"/>
      <point x="113" y="392" type="curve"/>
      <point x="112" y="401"/>
      <point x="99" y="409"/>
      <point x="99" y="460" type="curve" smooth="yes"/>
      <point x="99" y="621"/>
      <point x="181" y="662"/>
      <point x="287" y="662" type="curve" smooth="yes"/>
      <point x="299" y="662" type="line"/>
      <point x="157" y="0" type="line"/>
      <point x="301" y="0" type="line"/>
      <point x="439" y="642" type="line"/>
      <point x="493" y="630"/>
      <point x="545" y="620"/>
    </contour>
  </outline>
</glyph>
<glyph name="V" format="1">
  <advance width="615"/>
  <unicode hex="0056"/>
  <outline>
    <contour>
      <point x="397" y="748" type="line" name="hr00"/>
      <point x="384" y="749"/>
      <point x="371" y="750"/>
      <point x="357" y="750" type="curve" smooth="yes"/>
      <point x="190" y="750"/>
      <point x="6" y="623"/>
      <point x="6" y="490" type="curve" smooth="yes"/>
      <point x="6" y="418"/>
      <point x="44" y="393"/>
      <point x="113" y="393" type="curve"/>
      <point x="112" y="402"/>
      <point x="99" y="410"/>
      <point x="99" y="461" type="curve" smooth="yes"/>
      <point x="99" y="571"/>
      <point x="147" y="649"/>
      <point x="256" y="683" type="curve"/>
      <point x="256" y="0" type="line"/>
      <point x="408" y="0" type="line"/>
      <point x="686" y="745" type="line"/>
      <point x="616" y="745" type="line"/>
      <point x="406" y="133" type="line"/>
    </contour>
  </outline>
</glyph>
<glyph name="underscore" format="1">
  <advance width="444"/>
  <unicode hex="005F"/>
  <outline>
    <contour>
      <point x="404" y="79" type="line" name="hr00"/>
      <point x="54" y="79" type="line"/>
      <point x="36" y="0" type="line"/>
      <point x="387" y="0" type="line"/>
    </contour>
  </outline>
</glyph>
<glyph name="c" format="1">
  <advance width="384"/>
  <unicode hex="0063"/>
  <outline>
    <contour>
      <point x="279" y="356" type="curve"/>
      <point x="291" y="348"/>
      <point x="303" y="344"/>
      <point x="314" y="344" type="curve" smooth="yes"/>
      <point x="343" y="344"/>
      <point x="367" y="368"/>
      <point x="367" y="417" type="curve" smooth="yes"/>
      <point x="367" y="463"/>
      <point x="345" y="509"/>
      <point x="256" y="509" type="curve" smooth="yes"/>
      <point x="53" y="509"/>
      <point x="-13" y="269"/>
      <point x="-13" y="153" type="curve" smooth="yes"/>
      <point x="-13" y="40"/>
      <point x="49" y="-6"/>
      <point x="143" y="-6" type="curve" smooth="yes"/>
      <point x="276" y="-6"/>
      <point x="361" y="87"/>
      <point x="418" y="179" type="curve"/>
      <point x="384" y="179" type="line"/>
      <point x="334" y="122"/>
      <point x="286" y="78"/>
      <point x="207" y="78" type="curve" smooth="yes"/>
      <point x="159" y="78"/>
      <point x="135" y="94"/>
      <point x="135" y="162" type="curve" smooth="yes"/>
      <point x="135" y="273"/>
      <point x="200" y="456"/>
      <point x="263" y="456" type="curve" smooth="yes" name="hr01"/>
      <point x="282" y="456"/>
      <point x="291" y="440"/>
      <point x="291" y="415" type="curve" smooth="yes"/>
      <point x="291" y="398"/>
      <point x="287" y="378"/>
    </contour>
  </outline>
</glyph>
<glyph name="d" format="1">
  <advance width="525"/>
  <unicode hex="0064"/>
  <outline>
    <contour>
      <point x="374" y="680" type="line"/>
      <point x="325" y="450" type="line"/>
      <point x="325" y="454" type="line" smooth="yes"/>
      <point x="325" y="483"/>
      <point x="301" y="505"/>
      <point x="244" y="505" type="curve" smooth="yes"/>
      <point x="70" y="505"/>
      <point x="-13" y="290"/>
      <point x="-13" y="155" type="curve" smooth="yes"/>
      <point x="-13" y="36"/>
      <point x="52" y="-6"/>
      <point x="120" y="-6" type="curve" smooth="yes"/>
      <point x="191" y="-6"/>
      <point x="238" y="40"/>
      <point x="268" y="86" type="curve"/>
      <point x="276" y="30"/>
      <point x="312" y="0"/>
      <point x="366" y="0" type="curve" smooth="yes" name="hr01"/>
      <point x="420" y="0"/>
      <point x="510" y="16"/>
      <point x="567" y="179" type="curve"/>
      <point x="525" y="179" type="line"/>
      <point x="510" y="129"/>
      <point x="483" y="91"/>
      <point x="444" y="91" type="curve" smooth="yes" name="hr02"/>
      <point x="416" y="91"/>
      <point x="403" y="100"/>
      <point x="403" y="128" type="curve" smooth="yes"/>
      <point x="403" y="137"/>
      <point x="404" y="147"/>
      <point x="407" y="160" type="curve" smooth="yes"/>
      <point x="522" y="700" type="line"/>
    </contour>
    <contour>
      <point x="267" y="174" type="line"/>
      <point x="254" y="119"/>
      <point x="213" y="91"/>
      <point x="185" y="91" type="curve" smooth="yes"/>
      <point x="167" y="91"/>
      <point x="135" y="92"/>
      <point x="135" y="169" type="curve" smooth="yes"/>
      <point x="135" y="263"/>
      <point x="190" y="443"/>
      <point x="275" y="443" type="curve" smooth="yes"/>
      <point x="305" y="443"/>
      <point x="314" y="420"/>
      <point x="316" y="408" type="curve"/>
      <point x="267" y="179" type="line"/>
    </contour>
  </outline>
</glyph>
<glyph name="f" format="1">
  <advance width="267"/>
  <unicode hex="0066"/>
  <outline>
    <contour>
      <point x="382" y="600" type="line" name="hr00"/>
      <point x="384" y="612"/>
      <point x="385" y="625"/>
      <point x="385" y="641" type="curve" smooth="yes"/>
      <point x="385" y="706"/>
      <point x="328" y="749"/>
      <point x="267" y="749" type="curve" smooth="yes"/>
      <point x="201" y="749"/>
      <point x="115" y="722"/>
      <point x="85" y="579" type="curve" smooth="yes"/>
      <point x="-36" y="8" type="line"/>
      <point x="-131" y="-21"/>
      <point x="-208" y="-50"/>
      <point x="-208" y="-142" type="curve" smooth="yes"/>
      <point x="-208" y="-207"/>
      <point x="-151" y="-250"/>
      <point x="-90" y="-250" type="curve" smooth="yes"/>
      <point x="-24" y="-250"/>
      <point x="59" y="-223"/>
      <point x="89" y="-80" type="curve" smooth="yes"/>
      <point x="204" y="460" type="line"/>
      <point x="278" y="460" type="line"/>
      <point x="285" y="500" type="line"/>
      <point x="212" y="500" type="line"/>
      <point x="229" y="579" type="line" smooth="yes"/>
      <point x="243" y="646"/>
      <point x="277" y="661"/>
      <point x="299" y="661" type="curve" smooth="yes"/>
      <point x="319" y="661"/>
      <point x="337" y="650"/>
      <point x="337" y="627" type="curve" smooth="yes"/>
      <point x="337" y="618"/>
      <point x="336" y="610"/>
      <point x="335" y="600" type="curve"/>
    </contour>
    <contour>
      <point x="-153" y="-128" type="curve" smooth="yes"/>
      <point x="-153" y="-74"/>
      <point x="-106" y="-46"/>
      <point x="-43" y="-25" type="curve"/>
      <point x="-56" y="-83" type="line" smooth="yes"/>
      <point x="-69" y="-142"/>
      <point x="-92" y="-161"/>
      <point x="-113" y="-161" type="curve" smooth="yes"/>
      <point x="-135" y="-161"/>
      <point x="-153" y="-142"/>
    </contour>
  </outline>
</glyph>
<glyph name="h" format="1">
  <advance width="505"/>
  <unicode hex="0068"/>
  <outline>
    <contour>
      <point x="288" y="362" type="curve" smooth="yes"/>
      <point x="288" y="298"/>
      <point x="243" y="175"/>
      <point x="243" y="107" type="curve" smooth="yes" name="hr01"/>
      <point x="243" y="50"/>
      <point x="274" y="-6"/>
      <point x="361" y="-6" type="curve" smooth="yes"/>
      <point x="414" y="-6"/>
      <point x="491" y="15"/>
      <point x="547" y="179" type="curve"/>
      <point x="505" y="179" type="line"/>
      <point x="483" y="127"/>
      <point x="465" y="91"/>
      <point x="421" y="91" type="curve" smooth="yes"/>
      <point x="391" y="91"/>
      <point x="381" y="108"/>
      <point x="381" y="133" type="curve" smooth="yes"/>
      <point x="381" y="189"/>
      <point x="429" y="310"/>
      <point x="429" y="391" type="curve" smooth="yes" name="hr02"/>
      <point x="429" y="471"/>
      <point x="382" y="504"/>
      <point x="318" y="504" type="curve" smooth="yes"/>
      <point x="287" y="504"/>
      <point x="243" y="496"/>
      <point x="201" y="448" type="curve"/>
      <point x="255" y="700" type="line"/>
      <point x="107" y="680" type="line"/>
      <point x="-38" y="0" type="line"/>
      <point x="106" y="0" type="line"/>
      <point x="175" y="325" type="line" smooth="yes"/>
      <point x="181" y="352"/>
      <point x="212" y="413"/>
      <point x="251" y="413" type="curve" smooth="yes"/>
      <point x="276" y="413"/>
      <point x="288" y="395"/>
    </contour>
  </outline>
</glyph>
<glyph name="u" format="1">
  <advance width="505"/>
  <unicode hex="0075"/>
  <outline>
    <contour>
      <point x="315" y="500" type="line" name="hr00"/>
      <point x="247" y="179" type="line"/>
      <point x="232" y="129"/>
      <point x="206" y="91"/>
      <point x="167" y="91" type="curve" smooth="yes"/>
      <point x="145" y="91"/>
      <point x="137" y="109"/>
      <point x="137" y="132" type="curve" smooth="yes"/>
      <point x="137" y="141"/>
      <point x="138" y="150"/>
      <point x="140" y="160" type="curve" smooth="yes"/>
      <point x="212" y="500" type="line"/>
      <point x="68" y="500" type="line"/>
      <point x="0" y="179" type="line" smooth="yes"/>
      <point x="-5" y="155"/>
      <point x="-8" y="133"/>
      <point x="-8" y="114" type="curve" smooth="yes"/>
      <point x="-8" y="30"/>
      <point x="39" y="-6"/>
      <point x="99" y="-6" type="curve" smooth="yes"/>
      <point x="141" y="-6"/>
      <point x="197" y="7"/>
      <point x="247" y="89" type="curve"/>
      <point x="253" y="27"/>
      <point x="289" y="-6"/>
      <point x="346" y="-6" type="curve" smooth="yes"/>
      <point x="400" y="-6"/>
      <point x="490" y="16"/>
      <point x="547" y="179" type="curve"/>
      <point x="505" y="179" type="line"/>
      <point x="490" y="129"/>
      <point x="463" y="91"/>
      <point x="424" y="91" type="curve" smooth="yes"/>
      <point x="396" y="91"/>
      <point x="383" y="100"/>
      <point x="383" y="128" type="curve" smooth="yes"/>
      <point x="383" y="137"/>
      <point x="384" y="147"/>
      <point x="387" y="160" type="curve" smooth="yes"/>
      <point x="459" y="500" type="line"/>
    </contour>
  </outline>
</glyph>
<glyph name="y" format="1">
  <advance width="486"/>
  <unicode hex="0079"/>
  <outline>
    <contour>
      <point x="315" y="500" type="line"/>
      <point x="245" y="173" type="line"/>
      <point x="230" y="126"/>
      <point x="204" y="91"/>
      <point x="167" y="91" type="curve" smooth="yes"/>
      <point x="144" y="91"/>
      <point x="137" y="112"/>
      <point x="137" y="135" type="curve" smooth="yes"/>
      <point x="137" y="143"/>
      <point x="138" y="152"/>
      <point x="140" y="160" type="curve" smooth="yes"/>
      <point x="212" y="500" type="line"/>
      <point x="68" y="500" type="line"/>
      <point x="0" y="179" type="line" smooth="yes"/>
      <point x="-5" y="155"/>
      <point x="-8" y="133"/>
      <point x="-8" y="114" type="curve" smooth="yes"/>
      <point x="-8" y="30"/>
      <point x="39" y="-6"/>
      <point x="99" y="-6" type="curve" smooth="yes" name="hr01"/>
      <point x="133" y="-6"/>
      <point x="177" y="3"/>
      <point x="219" y="50" type="curve"/>
      <point x="207" y="-4" type="line"/>
      <point x="132" y="-27"/>
      <point x="44" y="-69"/>
      <point x="44" y="-153" type="curve" smooth="yes"/>
      <point x="44" y="-218"/>
      <point x="95" y="-250"/>
      <point x="156" y="-250" type="curve" smooth="yes"/>
      <point x="222" y="-250"/>
      <point x="306" y="-223"/>
      <point x="336" y="-80" type="curve" smooth="yes"/>
      <point x="351" y="-8" type="line"/>
      <point x="413" y="9"/>
      <point x="489" y="47"/>
      <point x="528" y="179" type="curve"/>
      <point x="486" y="179" type="line"/>
      <point x="458" y="92"/>
      <point x="421" y="58"/>
      <point x="360" y="36" type="curve"/>
      <point x="459" y="500" type="line"/>
    </contour>
    <contour>
      <point x="99" y="-139" type="curve" smooth="yes"/>
      <point x="99" y="-99"/>
      <point x="146" y="-73"/>
      <point x="197" y="-54" type="curve"/>
      <point x="191" y="-83" type="line" smooth="yes"/>
      <point x="178" y="-142"/>
      <point x="154" y="-172"/>
      <point x="133" y="-172" type="curve" smooth="yes"/>
      <point x="111" y="-172"/>
      <point x="99" y="-153"/>
    </contour>
  </outline>
</glyph>
<glyph name="exclamdown" format="1">
  <advance width="219"/>
  <unicode hex="00A1"/>
  <outline>
    <contour>
      <point x="69" y="221" type="line" name="hr00"/>
      <point x="-61" y="-248" type="line"/>
      <point x="83" y="-248" type="line"/>
      <point x="154" y="221" type="line"/>
    </contour>
    <contour>
      <point x="59" y="372" type="curve"/>
      <point x="59" y="328"/>
      <point x="94" y="293"/>
      <point x="138" y="293" type="curve" smooth="yes"/>
      <point x="182" y="293"/>
      <point x="218" y="328"/>
      <point x="218" y="372" type="curve" smooth="yes"/>
      <point x="218" y="416"/>
      <point x="182" y="452"/>
      <point x="138" y="452" type="curve" smooth="yes"/>
      <point x="94" y="452"/>
      <point x="59" y="416"/>
    </contour>
  </outline>
</glyph>
<glyph name="cent" format="1">
  <advance width="403"/>
  <unicode hex="00A2"/>
  <outline>
    <contour>
      <point x="127" y="-27" type="line" name="hr00"/>
      <point x="154" y="-27" type="line"/>
      <point x="192" y="145" type="line"/>
      <point x="290" y="149"/>
      <point x="340" y="197"/>
      <point x="354" y="281" type="curve"/>
      <point x="315" y="247"/>
      <point x="276" y="213"/>
      <point x="222" y="213" type="curve" smooth="yes"/>
      <point x="216" y="213"/>
      <point x="212" y="213"/>
      <point x="207" y="214" type="curve"/>
      <point x="283" y="557" type="line"/>
      <point x="288" y="557" type="line" smooth="yes"/>
      <point x="310" y="557"/>
      <point x="325" y="547"/>
      <point x="325" y="523" type="curve" smooth="yes"/>
      <point x="325" y="515"/>
      <point x="323" y="506"/>
      <point x="320" y="495" type="curve"/>
      <point x="377" y="495" type="line"/>
      <point x="381" y="508"/>
      <point x="382" y="517"/>
      <point x="382" y="528" type="curve" smooth="yes"/>
      <point x="382" y="576"/>
      <point x="339" y="593"/>
      <point x="292" y="596" type="curve"/>
      <point x="319" y="718" type="line"/>
      <point x="261" y="718" type="line"/>
      <point x="239" y="595" type="line"/>
      <point x="104" y="577"/>
      <point x="31" y="451"/>
      <point x="31" y="316" type="curve" smooth="yes"/>
      <point x="31" y="214"/>
      <point x="89" y="156"/>
      <point x="158" y="146" type="curve"/>
    </contour>
    <contour>
      <point x="136" y="319" type="curve" smooth="yes"/>
      <point x="136" y="399"/>
      <point x="174" y="492"/>
      <point x="228" y="534" type="curve"/>
      <point x="173" y="229" type="line"/>
      <point x="147" y="249"/>
      <point x="136" y="286"/>
    </contour>
  </outline>
</glyph>
<glyph name="yen" format="1">
  <advance width="474"/>
  <unicode hex="00A5"/>
  <outline>
    <contour>
      <point x="314" y="307" type="line"/>
      <point x="510" y="750" type="line"/>
      <point x="444" y="750" type="line"/>
      <point x="294" y="389" type="line"/>
      <point x="206" y="750" type="line"/>
      <point x="42" y="750" type="line"/>
      <point x="154" y="307" type="line"/>
      <point x="58" y="307" type="line"/>
      <point x="44" y="257" type="line"/>
      <point x="143" y="257" type="line"/>
      <point x="129" y="192" type="line"/>
      <point x="33" y="192" type="line"/>
      <point x="19" y="142" type="line" name="hr01"/>
      <point x="118" y="142" type="line"/>
      <point x="88" y="0" type="line" name="hr02"/>
      <point x="248" y="0" type="line"/>
      <point x="278" y="142" type="line" name="hr03"/>
      <point x="406" y="142" type="line"/>
      <point x="420" y="192" type="line"/>
      <point x="289" y="192" type="line"/>
      <point x="303" y="257" type="line"/>
      <point x="431" y="257" type="line"/>
      <point x="445" y="307" type="line"/>
    </contour>
  </outline>
</glyph>
<glyph name="dieresis" format="1">
  <advance width="392"/>
  <unicode hex="00A8"/>
  <outline>
    <contour>
      <point x="56" y="634" type="curve" smooth="yes" name="hr00"/>
      <point x="56" y="600"/>
      <point x="83" y="573"/>
      <point x="117" y="573" type="curve" smooth="yes"/>
      <point x="150" y="573"/>
      <point x="178" y="600"/>
      <point x="178" y="634" type="curve" smooth="yes"/>
      <point x="178" y="667"/>
      <point x="150" y="695"/>
      <point x="117" y="695" type="curve" smooth="yes"/>
      <point x="83" y="695"/>
      <point x="56" y="667"/>
    </contour>
    <contour>
      <point x="236" y="634" type="curve" smooth="yes"/>
      <point x="236" y="600"/>
      <point x="263" y="573"/>
      <point x="297" y="573" type="curve" smooth="yes"/>
      <point x="330" y="573"/>
      <point x="358" y="600"/>
      <point x="358" y="634" type="curve" smooth="yes"/>
      <point x="358" y="667"/>
      <point x="330" y="695"/>
      <point x="297" y="695" type="curve" smooth="yes"/>
      <point x="263" y="695"/>
      <point x="236" y="667"/>
    </contour>
  </outline>
</glyph>
<glyph name="guillemotleft" format="1">
  <advance width="589"/>
  <unicode hex="00AB"/>
  <outline>
    <contour>
      <point x="336" y="429" type="line" name="hr00"/>
      <point x="29" y="279" type="line"/>
      <point x="20" y="238" type="line"/>
      <point x="267" y="101" type="line"/>
      <point x="279" y="158" type="line"/>
      <point x="85" y="254" type="line"/>
      <point x="326" y="374" type="line"/>
    </contour>
    <contour>
      <point x="546" y="429" type="line"/>
      <point x="239" y="279" type="line"/>
      <point x="230" y="238" type="line"/>
      <point x="477" y="101" type="line"/>
      <point x="489" y="158" type="line"/>
      <point x="295" y="254" type="line"/>
      <point x="536" y="374" type="line"/>
    </contour>
  </outline>
</glyph>
<glyph name="twosuperior" format="1">
  <advance width="300"/>
  <unicode hex="00B2"/>
  <outline>
    <contour>
      <point x="75" y="416" type="curve"/>
      <point x="71" y="416" type="line"/>
      <point x="119" y="489"/>
      <point x="278" y="542"/>
      <point x="278" y="663" type="curve" smooth="yes"/>
      <point x="278" y="715"/>
      <point x="247" y="749"/>
      <point x="168" y="749" type="curve" smooth="yes"/>
      <point x="80" y="749"/>
      <point x="48" y="707"/>
      <point x="48" y="670" type="curve" smooth="yes"/>
      <point x="48" y="638"/>
      <point x="66" y="621"/>
      <point x="89" y="621" type="curve" smooth="yes"/>
      <point x="103" y="621"/>
      <point x="119" y="627"/>
      <point x="134" y="640" type="curve"/>
      <point x="118" y="644"/>
      <point x="112" y="664"/>
      <point x="112" y="677" type="curve" smooth="yes"/>
      <point x="112" y="704"/>
      <point x="120" y="720"/>
      <point x="159" y="720" type="curve" smooth="yes" name="hr01"/>
      <point x="176" y="720"/>
      <point x="194" y="702"/>
      <point x="194" y="676" type="curve" smooth="yes"/>
      <point x="194" y="532"/>
      <point x="3" y="479"/>
      <point x="3" y="361" type="curve" smooth="yes"/>
      <point x="3" y="355"/>
      <point x="4" y="349"/>
      <point x="5" y="343" type="curve"/>
      <point x="16" y="347"/>
      <point x="37" y="359"/>
      <point x="51" y="359" type="curve" smooth="yes"/>
      <point x="110" y="359"/>
      <point x="131" y="339"/>
      <point x="194" y="339" type="curve" smooth="yes" name="hr02"/>
      <point x="262" y="339"/>
      <point x="263" y="375"/>
      <point x="263" y="444" type="curve"/>
      <point x="236" y="420"/>
      <point x="226" y="406"/>
      <point x="188" y="406" type="curve" smooth="yes"/>
      <point x="149" y="406"/>
      <point x="112" y="416"/>
    </contour>
  </outline>
</glyph>
<glyph name="paragraph" format="1">
  <advance width="542"/>
  <unicode hex="00B6"/>
  <outline>
    <contour>
      <point x="239" y="-81" type="line" name="hr00"/>
      <point x="316" y="288" type="line"/>
      <point x="330" y="291"/>
      <point x="344" y="294"/>
      <point x="359" y="299" type="curve"/>
      <point x="278" y="-81" type="line"/>
      <point x="372" y="-81" type="line"/>
      <point x="499" y="512" type="line" smooth="yes"/>
      <point x="504" y="538"/>
      <point x="507" y="562"/>
      <point x="507" y="584" type="curve" smooth="yes"/>
      <point x="507" y="705"/>
      <point x="422" y="749"/>
      <point x="322" y="749" type="curve" smooth="yes"/>
      <point x="157" y="749"/>
      <point x="72" y="615"/>
      <point x="72" y="491" type="curve" smooth="yes"/>
      <point x="72" y="397"/>
      <point x="121" y="308"/>
      <point x="222" y="288" type="curve"/>
      <point x="145" y="-81" type="line"/>
    </contour>
    <contour>
      <point x="327" y="339" type="line"/>
      <point x="399" y="682" type="line"/>
      <point x="413" y="669"/>
      <point x="422" y="650"/>
      <point x="422" y="619" type="curve" smooth="yes"/>
      <point x="422" y="605"/>
      <point x="420" y="589"/>
      <point x="416" y="570" type="curve" smooth="yes"/>
      <point x="368" y="343" type="line"/>
      <point x="357" y="340"/>
      <point x="345" y="339"/>
      <point x="333" y="339" type="curve" smooth="yes"/>
    </contour>
  </outline>
</glyph>
<glyph name="periodcentered" format="1">
  <advance width="434"/>
  <unicode hex="00B7"/>
  <outline>
    <contour>
      <point x="120" y="267" type="curve" smooth="yes" name="hr00"/>
      <point x="120" y="214"/>
      <point x="163" y="171"/>
      <point x="216" y="171" type="curve" smooth="yes"/>
      <point x="269" y="171"/>
      <point x="313" y="214"/>
      <point x="313" y="267" type="curve" smooth="yes"/>
      <point x="313" y="320"/>
      <point x="269" y="364"/>
      <point x="216" y="364" type="curve" smooth="yes"/>
      <point x="163" y="364"/>
      <point x="120" y="320"/>
    </contour>
  </outline>
</glyph>
<glyph name="threequarters" format="1">
  <advance width="819"/>
  <unicode hex="00BE"/>
  <outline>
    <contour>
      <point x="591" y="750" type="line"/>
      <point x="519" y="750" type="line"/>
      <point x="255" y="-165" type="line"/>
      <point x="327" y="-165" type="line"/>
    </contour>
    <contour>
      <point x="634" y="150" type="line"/>
      <point x="600" y="1" type="line" name="hr01"/>
      <point x="683" y="1" type="line"/>
      <point x="717" y="150" type="line" name="hr02"/>
      <point x="752" y="150" type="line"/>
      <point x="764" y="189" type="line"/>
      <point x="726" y="189" type="line"/>
      <point x="776" y="406" type="line"/>
      <point x="690" y="395" type="line"/>
      <point x="643" y="189" type="line"/>
      <point x="553" y="189" type="line"/>
      <point x="582" y="240"/>
      <point x="638" y="286"/>
      <point x="638" y="355" type="curve" smooth="yes"/>
      <point x="638" y="389"/>
      <point x="607" y="406"/>
      <point x="573" y="406" type="curve"/>
      <point x="576" y="395"/>
      <point x="577" y="384"/>
      <point x="577" y="373" type="curve" smooth="yes"/>
      <point x="577" y="294"/>
      <point x="513" y="209"/>
      <point x="493" y="150" type="curve"/>
    </contour>
    <contour>
      <point x="177" y="364" type="curve"/>
      <point x="172" y="383"/>
      <point x="156" y="391"/>
      <point x="130" y="391" type="curve" smooth="yes"/>
      <point x="85" y="391"/>
      <point x="61" y="360"/>
      <point x="61" y="309" type="curve" smooth="yes"/>
      <point x="61" y="231"/>
      <point x="143" y="222"/>
      <point x="190" y="222" type="curve" smooth="yes"/>
      <point x="276" y="222"/>
      <point x="339" y="297"/>
      <point x="339" y="362" type="curve" smooth="yes"/>
      <point x="339" y="401"/>
      <point x="318" y="435"/>
      <point x="267" y="450" type="curve"/>
      <point x="321" y="475"/>
      <point x="346" y="514"/>
      <point x="346" y="550" type="curve" smooth="yes"/>
      <point x="346" y="592"/>
      <point x="311" y="629"/>
      <point x="244" y="629" type="curve" smooth="yes"/>
      <point x="157" y="629"/>
      <point x="119" y="587"/>
      <point x="119" y="550" type="curve" smooth="yes" name="hr03"/>
      <point x="119" y="518"/>
      <point x="137" y="501"/>
      <point x="160" y="501" type="curve" smooth="yes"/>
      <point x="174" y="501"/>
      <point x="190" y="507"/>
      <point x="205" y="520" type="curve"/>
      <point x="189" y="524"/>
      <point x="183" y="544"/>
      <point x="183" y="557" type="curve" smooth="yes"/>
      <point x="183" y="584"/>
      <point x="197" y="600"/>
      <point x="235" y="600" type="curve" smooth="yes" name="hr04"/>
      <point x="259" y="600"/>
      <point x="272" y="582"/>
      <point x="272" y="558" type="curve" smooth="yes"/>
      <point x="272" y="520"/>
      <point x="240" y="467"/>
      <point x="173" y="451" type="curve"/>
      <point x="226" y="434"/>
      <point x="248" y="391"/>
      <point x="248" y="350" type="curve" smooth="yes" name="hr05"/>
      <point x="248" y="302"/>
      <point x="219" y="256"/>
      <point x="177" y="256" type="curve" smooth="yes"/>
      <point x="147" y="256"/>
      <point x="126" y="264"/>
      <point x="126" y="300" type="curve" smooth="yes"/>
      <point x="126" y="327"/>
      <point x="130" y="360"/>
    </contour>
  </outline>
</glyph>
<glyph name="questiondown" format="1">
  <advance width="439"/>
  <unicode hex="00BF"/>
  <outline>
    <contour>
      <point x="12" y="-128" type="curve" smooth="yes"/>
      <point x="12" y="-190"/>
      <point x="46" y="-247"/>
      <point x="173" y="-247" type="curve" smooth="yes"/>
      <point x="324" y="-247"/>
      <point x="383" y="-154"/>
      <point x="383" y="-86" type="curve" smooth="yes"/>
      <point x="383" y="-30"/>
      <point x="346" y="-2"/>
      <point x="307" y="-2" type="curve" smooth="yes"/>
      <point x="279" y="-2"/>
      <point x="251" y="-16"/>
      <point x="234" y="-44" type="curve"/>
      <point x="262" y="-52"/>
      <point x="272" y="-87"/>
      <point x="272" y="-110" type="curve" smooth="yes"/>
      <point x="272" y="-160"/>
      <point x="230" y="-193"/>
      <point x="192" y="-193" type="curve" smooth="yes" name="hr01"/>
      <point x="163" y="-193"/>
      <point x="137" y="-173"/>
      <point x="137" y="-124" type="curve" smooth="yes"/>
      <point x="137" y="28"/>
      <point x="319" y="80"/>
      <point x="319" y="221" type="curve"/>
      <point x="253" y="221" type="line"/>
      <point x="189" y="69"/>
      <point x="12" y="58"/>
    </contour>
    <contour>
      <point x="231" y="372" type="curve" name="hr02"/>
      <point x="231" y="328"/>
      <point x="266" y="293"/>
      <point x="310" y="293" type="curve" smooth="yes"/>
      <point x="354" y="293"/>
      <point x="390" y="328"/>
      <point x="390" y="372" type="curve"/>
      <point x="390" y="417"/>
      <point x="354" y="453"/>
      <point x="310" y="453" type="curve" smooth="yes"/>
      <point x="266" y="453"/>
      <point x="231" y="417"/>
    </contour>
  </outline>
</glyph>
<glyph name="Ccedilla" format="1">
  <advance width="497"/>
  <unicode hex="00C7"/>
  <outline>
    <contour>
      <point x="362" y="-108" type="curve" smooth="yes"/>
      <point x="362" y="-77"/>
      <point x="342" y="-58"/>
      <point x="300" y="-58" type="curve" smooth="yes"/>
      <point x="285" y="-58"/>
      <point x="267" y="-61"/>
      <point x="247" y="-66" type="curve"/>
      <point x="268" y="-14" type="line"/>
      <point x="357" y="-4"/>
      <point x="475" y="50"/>
      <point x="523" y="170" type="curve"/>
      <point x="500" y="180" type="line"/>
      <point x="454" y="118"/>
      <point x="383" y="80"/>
      <point x="305" y="80" type="curve" smooth="yes"/>
      <point x="209" y="80"/>
      <point x="185" y="144"/>
      <point x="185" y="236" type="curve" smooth="yes"/>
      <point x="185" y="440"/>
      <point x="283" y="703"/>
      <point x="393" y="703" type="curve" smooth="yes"/>
      <point x="438" y="703"/>
      <point x="454" y="674"/>
      <point x="454" y="642" type="curve" smooth="yes"/>
      <point x="454" y="604"/>
      <point x="432" y="562"/>
      <point x="408" y="550" type="curve"/>
      <point x="427" y="528"/>
      <point x="449" y="524"/>
      <point x="465" y="524" type="curve" smooth="yes" name="hr01"/>
      <point x="516" y="524"/>
      <point x="535" y="563"/>
      <point x="535" y="616" type="curve" smooth="yes"/>
      <point x="535" y="713"/>
      <point x="462" y="750"/>
      <point x="368" y="750" type="curve" smooth="yes"/>
      <point x="106" y="750"/>
      <point x="19" y="411"/>
      <point x="19" y="230" type="curve" smooth="yes"/>
      <point x="19" y="55"/>
      <point x="86" y="-12"/>
      <point x="225" y="-16" type="curve"/>
      <point x="188" y="-119" type="line"/>
      <point x="199" y="-114"/>
      <point x="214" y="-107"/>
      <point x="240" y="-107" type="curve" smooth="yes"/>
      <point x="268" y="-107"/>
      <point x="279" y="-125"/>
      <point x="279" y="-143" type="curve" smooth="yes"/>
      <point x="279" y="-164"/>
      <point x="266" y="-185"/>
      <point x="249" y="-185" type="curve" smooth="yes"/>
      <point x="221" y="-185"/>
      <point x="216" y="-158"/>
      <point x="175" y="-158" type="curve" smooth="yes" name="hr02"/>
      <point x="156" y="-158"/>
      <point x="144" y="-174"/>
      <point x="135" y="-190" type="curve"/>
      <point x="164" y="-205"/>
      <point x="191" y="-218"/>
      <point x="242" y="-218" type="curve" smooth="yes"/>
      <point x="300" y="-218"/>
      <point x="362" y="-180"/>
    </contour>
  </outline>
</glyph>
<glyph name="Eth" format="1">
  <advance width="663"/>
  <unicode hex="00D0"/>
  <outline>
    <contour>
      <point x="230" y="636" type="line"/>
      <point x="184" y="419" type="line"/>
      <point x="149" y="419" type="line"/>
      <point x="129" y="345" type="line"/>
      <point x="168" y="345" type="line"/>
      <point x="94" y="0" type="line"/>
      <point x="238" y="0" type="line"/>
      <point x="246" y="40" type="line"/>
      <point x="289" y="3"/>
      <point x="330" y="-13"/>
      <point x="368" y="-13" type="curve" smooth="yes" name="hr01"/>
      <point x="516" y="-13"/>
      <point x="645" y="222"/>
      <point x="645" y="480" type="curve" smooth="yes"/>
      <point x="645" y="621"/>
      <point x="588" y="750"/>
      <point x="357" y="750" type="curve" smooth="yes"/>
      <point x="190" y="750"/>
      <point x="6" y="623"/>
      <point x="6" y="490" type="curve" smooth="yes"/>
      <point x="6" y="418"/>
      <point x="44" y="393"/>
      <point x="113" y="393" type="curve"/>
      <point x="112" y="402"/>
      <point x="99" y="410"/>
      <point x="99" y="461" type="curve" smooth="yes"/>
      <point x="99" y="613"/>
      <point x="207" y="704"/>
      <point x="369" y="704" type="curve" smooth="yes"/>
      <point x="484" y="704"/>
      <point x="507" y="633"/>
      <point x="507" y="508" type="curve" smooth="yes"/>
      <point x="507" y="316"/>
      <point x="434" y="75"/>
      <point x="315" y="75" type="curve" smooth="yes"/>
      <point x="296" y="75"/>
      <point x="277" y="81"/>
      <point x="258" y="95" type="curve"/>
      <point x="311" y="345" type="line"/>
      <point x="386" y="345" type="line"/>
      <point x="406" y="419" type="line"/>
      <point x="327" y="419" type="line"/>
      <point x="378" y="656" type="line"/>
    </contour>
  </outline>
</glyph>
<glyph name="Oacute" format="1">
  <advance width="658"/>
  <unicode hex="00D3"/>
  <outline>
    <contour>
      <point x="431" y="656" type="curve" name="hr00"/>
      <point x="413" y="662"/>
      <point x="396" y="664"/>
      <point x="379" y="664" type="curve" smooth="yes"/>
      <point x="199" y="664"/>
      <point x="108" y="357"/>
      <point x="108" y="195" type="curve" smooth="yes"/>
      <point x="108" y="49"/>
      <point x="182" y="-6"/>
      <point x="287" y="-6" type="curve" smooth="yes"/>
      <point x="549" y="-6"/>
      <point x="656" y="301"/>
      <point x="656" y="494" type="curve" smooth="yes"/>
      <point x="656" y="643"/>
      <point x="594" y="750"/>
      <point x="419" y="750" type="curve" smooth="yes"/>
      <point x="208" y="750"/>
      <point x="16" y="617"/>
      <point x="16" y="477" type="curve" smooth="yes"/>
      <point x="16" y="416"/>
      <point x="54" y="393"/>
      <point x="117" y="393" type="curve"/>
      <point x="117" y="401"/>
      <point x="107" y="408"/>
      <point x="107" y="447" type="curve" smooth="yes"/>
      <point x="107" y="606"/>
      <point x="242" y="704"/>
      <point x="395" y="704" type="curve" smooth="yes"/>
      <point x="500" y="704"/>
      <point x="523" y="645"/>
      <point x="523" y="529" type="curve" smooth="yes"/>
      <point x="523" y="327"/>
      <point x="415" y="75"/>
      <point x="314" y="75" type="curve" smooth="yes"/>
      <point x="273" y="75"/>
      <point x="256" y="123"/>
      <point x="256" y="191" type="curve" smooth="yes"/>
      <point x="256" y="345"/>
      <point x="340" y="601"/>
    </contour>
    <contour>
      <point x="397" y="811" type="line"/>
      <point x="472" y="811" type="line"/>
      <point x="593" y="1000" type="line"/>
      <point x="488" y="1000" type="line"/>
    </contour>
  </outline>
</glyph>
<glyph name="ae" format="1">
  <advance width="650"/>
  <unicode hex="00E6"/>
  <outline>
    <contour>
      <point x="119" y="-6" type="curve" smooth="yes"/>
      <point x="199" y="-6"/>
      <point x="234" y="39"/>
      <point x="261" y="90" type="curve"/>
      <point x="280" y="23"/>
      <point x="335" y="-4"/>
      <point x="408" y="-4" type="curve" smooth="yes" name="hr01"/>
      <point x="544" y="-4"/>
      <point x="628" y="89"/>
      <point x="684" y="179" type="curve"/>
      <point x="650" y="179" type="line"/>
      <point x="595" y="118"/>
      <point x="557" y="78"/>
      <point x="461" y="78" type="curve" smooth="yes"/>
      <point x="425" y="78"/>
      <point x="401" y="95"/>
      <point x="401" y="170" type="curve" smooth="yes"/>
      <point x="401" y="180"/>
      <point x="402" y="191"/>
      <point x="403" y="202" type="curve"/>
      <point x="523" y="209"/>
      <point x="633" y="299"/>
      <point x="633" y="410" type="curve" smooth="yes"/>
      <point x="633" y="463"/>
      <point x="613" y="509"/>
      <point x="524" y="509" type="curve" smooth="yes"/>
      <point x="470" y="509"/>
      <point x="425" y="492"/>
      <point x="389" y="465" type="curve"/>
      <point x="355" y="493"/>
      <point x="309" y="505"/>
      <point x="259" y="505" type="curve" smooth="yes"/>
      <point x="203" y="505"/>
      <point x="151" y="503"/>
      <point x="77" y="427" type="curve"/>
      <point x="105" y="398" type="line"/>
      <point x="134" y="424"/>
      <point x="166" y="445"/>
      <point x="226" y="445" type="curve" smooth="yes"/>
      <point x="268" y="445"/>
      <point x="287" y="414"/>
      <point x="287" y="374" type="curve" smooth="yes"/>
      <point x="287" y="346"/>
      <point x="279" y="314"/>
      <point x="266" y="286" type="curve"/>
      <point x="254" y="288"/>
      <point x="238" y="290"/>
      <point x="214" y="290" type="curve" smooth="yes" name="hr02"/>
      <point x="88" y="290"/>
      <point x="-8" y="248"/>
      <point x="-8" y="124" type="curve" smooth="yes"/>
      <point x="-8" y="18"/>
      <point x="61" y="-6"/>
    </contour>
    <contour>
      <point x="556" y="412" type="curve" smooth="yes"/>
      <point x="556" y="333"/>
      <point x="488" y="255"/>
      <point x="410" y="250" type="curve" name="hr03"/>
      <point x="431" y="346"/>
      <point x="480" y="456"/>
      <point x="532" y="456" type="curve" smooth="yes"/>
      <point x="550" y="456"/>
      <point x="556" y="440"/>
    </contour>
    <contour>
      <point x="242" y="229" type="curve" smooth="yes" name="hr04"/>
      <point x="248" y="229"/>
      <point x="253" y="229"/>
      <point x="259" y="228" type="curve"/>
      <point x="239" y="119"/>
      <point x="212" y="91"/>
      <point x="179" y="91" type="curve" smooth="yes"/>
      <point x="167" y="91"/>
      <point x="133" y="95"/>
      <point x="133" y="141" type="curve" smooth="yes"/>
      <point x="133" y="194"/>
      <point x="177" y="229"/>
    </contour>
  </outline>
</glyph>
<glyph name="ccedilla" format="1">
  <advance width="384"/>
  <unicode hex="00E7"/>
  <outline>
    <contour>
      <point x="131" y="-119" type="line"/>
      <point x="142" y="-114"/>
      <point x="157" y="-107"/>
      <point x="183" y="-107" type="curve" smooth="yes"/>
      <point x="211" y="-107"/>
      <point x="222" y="-125"/>
      <point x="222" y="-143" type="curve" smooth="yes"/>
      <point x="222" y="-164"/>
      <point x="209" y="-185"/>
      <point x="192" y="-185" type="curve" smooth="yes"/>
      <point x="164" y="-185"/>
      <point x="159" y="-158"/>
      <point x="118" y="-158" type="curve" smooth="yes" name="hr01"/>
      <point x="99" y="-158"/>
      <point x="87" y="-174"/>
      <point x="78" y="-190" type="curve"/>
      <point x="107" y="-205"/>
      <point x="134" y="-218"/>
      <point x="185" y="-218" type="curve" smooth="yes"/>
      <point x="243" y="-218"/>
      <point x="305" y="-180"/>
      <point x="305" y="-108" type="curve" smooth="yes"/>
      <point x="305" y="-77"/>
      <point x="285" y="-58"/>
      <point x="243" y="-58" type="curve" smooth="yes"/>
      <point x="228" y="-58"/>
      <point x="210" y="-61"/>
      <point x="190" y="-66" type="curve"/>
      <point x="218" y="5" type="line"/>
      <point x="309" y="32"/>
      <point x="372" y="106"/>
      <point x="418" y="179" type="curve"/>
      <point x="384" y="179" type="line"/>
      <point x="334" y="122"/>
      <point x="286" y="78"/>
      <point x="207" y="78" type="curve" smooth="yes"/>
      <point x="159" y="78"/>
      <point x="135" y="94"/>
      <point x="135" y="162" type="curve" smooth="yes"/>
      <point x="135" y="273"/>
      <point x="200" y="456"/>
      <point x="263" y="456" type="curve" smooth="yes"/>
      <point x="282" y="456"/>
      <point x="291" y="440"/>
      <point x="291" y="415" type="curve" smooth="yes" name="hr02"/>
      <point x="291" y="398"/>
      <point x="287" y="378"/>
      <point x="279" y="356" type="curve"/>
      <point x="291" y="348"/>
      <point x="303" y="344"/>
      <point x="314" y="344" type="curve" smooth="yes"/>
      <point x="343" y="344"/>
      <point x="367" y="368"/>
      <point x="367" y="417" type="curve" smooth="yes"/>
      <point x="367" y="463"/>
      <point x="345" y="509"/>
      <point x="256" y="509" type="curve" smooth="yes"/>
      <point x="53" y="509"/>
      <point x="-13" y="269"/>
      <point x="-13" y="153" type="curve" smooth="yes"/>
      <point x="-13" y="40"/>
      <point x="49" y="-6"/>
      <point x="143" y="-6" type="curve" smooth="yes"/>
      <point x="153" y="-6"/>
      <point x="162" y="-6"/>
      <point x="172" y="-4" type="curve"/>
    </contour>
  </outline>
</glyph>
<glyph name="edieresis" format="1">
  <advance width="384"/>
  <unicode hex="00EB"/>
  <outline>
    <contour>
      <point x="135" y="162" type="curve" smooth="yes"/>
      <point x="135" y="174"/>
      <point x="136" y="188"/>
      <point x="137" y="202" type="curve"/>
      <point x="257" y="209"/>
      <point x="367" y="298"/>
      <point x="367" y="413" type="curve" smooth="yes"/>
      <point x="367" y="463"/>
      <point x="346" y="509"/>
      <point x="257" y="509" type="curve" smooth="yes"/>
      <point x="52" y="509"/>
      <point x="-13" y="268"/>
      <point x="-13" y="153" type="curve" smooth="yes"/>
      <point x="-13" y="40"/>
      <point x="49" y="-6"/>
      <point x="143" y="-6" type="curve" smooth="yes"/>
      <point x="276" y="-6"/>
      <point x="361" y="87"/>
      <point x="418" y="179" type="curve"/>
      <point x="384" y="179" type="line"/>
      <point x="334" y="122"/>
      <point x="286" y="78"/>
      <point x="207" y="78" type="curve" smooth="yes"/>
      <point x="159" y="78"/>
      <point x="135" y="94"/>
    </contour>
    <contour>
      <point x="290" y="415" type="curve" smooth="yes"/>
      <point x="290" y="332"/>
      <point x="222" y="255"/>
      <point x="145" y="250" type="curve"/>
      <point x="165" y="349"/>
      <point x="214" y="456"/>
      <point x="265" y="456" type="curve" smooth="yes"/>
      <point x="284" y="456"/>
      <point x="290" y="440"/>
    </contour>
    <contour>
      <point x="119" y="634" type="curve" smooth="yes" name="hr01"/>
      <point x="119" y="600"/>
      <point x="146" y="573"/>
      <point x="180" y="573" type="curve" smooth="yes"/>
      <point x="213" y="573"/>
      <point x="241" y="600"/>
      <point x="241" y="634" type="curve" smooth="yes"/>
      <point x="241" y="667"/>
      <point x="213" y="695"/>
      <point x="180" y="695" type="curve" smooth="yes"/>
      <point x="146" y="695"/>
      <point x="119" y="667"/>
    </contour>
    <contour>
      <point x="299" y="634" type="curve" smooth="yes"/>
      <point x="299" y="600"/>
      <point x="326" y="573"/>
      <point x="360" y="573" type="curve" smooth="yes"/>
      <point x="393" y="573"/>
      <point x="421" y="600"/>
      <point x="421" y="634" type="curve" smooth="yes"/>
      <point x="421" y="667"/>
      <point x="393" y="695"/>
      <point x="360" y="695" type="curve" smooth="yes"/>
      <point x="326" y="695"/>
      <point x="299" y="667"/>
    </contour>
  </outline>
</glyph>
<glyph name="Eogonek" format="1">
  <advance width="459"/>
  <unicode hex="0118"/>
  <outline>
    <contour>
      <point x="461" y="180" type="line"/>
      <point x="424" y="116"/>
      <point x="380" y="84"/>
      <point x="303" y="84" type="curve" smooth="yes"/>
      <point x="239" y="84"/>
      <point x="186" y="144"/>
      <point x="186" y="217" type="curve" smooth="yes"/>
      <point x="186" y="286"/>
      <point x="233" y="366"/>
      <point x="360" y="418" type="curve"/>
      <point x="266" y="460"/>
      <point x="228" y="525"/>
      <point x="228" y="583" type="curve" smooth="yes" name="hr01"/>
      <point x="228" y="650"/>
      <point x="277" y="706"/>
      <point x="350" y="706" type="curve" smooth="yes"/>
      <point x="414" y="706"/>
      <point x="416" y="648"/>
      <point x="416" y="632" type="curve" smooth="yes"/>
      <point x="416" y="607"/>
      <point x="397" y="557"/>
      <point x="372" y="550" type="curve"/>
      <point x="391" y="528"/>
      <point x="413" y="524"/>
      <point x="429" y="524" type="curve" smooth="yes" name="hr02"/>
      <point x="480" y="524"/>
      <point x="499" y="563"/>
      <point x="499" y="616" type="curve" smooth="yes"/>
      <point x="499" y="713"/>
      <point x="408" y="750"/>
      <point x="315" y="750" type="curve" smooth="yes"/>
      <point x="173" y="750"/>
      <point x="93" y="660"/>
      <point x="93" y="569" type="curve" smooth="yes"/>
      <point x="93" y="512"/>
      <point x="124" y="454"/>
      <point x="192" y="417" type="curve"/>
      <point x="71" y="392"/>
      <point x="11" y="292"/>
      <point x="11" y="196" type="curve" smooth="yes" name="hr03"/>
      <point x="11" y="93"/>
      <point x="80" y="-6"/>
      <point x="218" y="-6" type="curve" smooth="yes"/>
      <point x="242" y="-6"/>
      <point x="268" y="-4"/>
      <point x="293" y="1" type="curve"/>
      <point x="246" y="-36"/>
      <point x="221" y="-79"/>
      <point x="221" y="-115" type="curve" smooth="yes"/>
      <point x="221" y="-150"/>
      <point x="245" y="-193"/>
      <point x="300" y="-193" type="curve" smooth="yes"/>
      <point x="352" y="-193"/>
      <point x="384" y="-154"/>
      <point x="409" y="-131" type="curve"/>
      <point x="409" y="-119"/>
      <point x="410" y="-112"/>
      <point x="411" y="-100" type="curve"/>
      <point x="391" y="-113"/>
      <point x="367" y="-134"/>
      <point x="343" y="-134" type="curve" smooth="yes"/>
      <point x="315" y="-134"/>
      <point x="304" y="-106"/>
      <point x="304" y="-84" type="curve" smooth="yes"/>
      <point x="304" y="41"/>
      <point x="438" y="26"/>
      <point x="484" y="170" type="curve"/>
    </contour>
  </outline>
</glyph>
<glyph name="nacute" format="1">
  <advance width="505"/>
  <unicode hex="0144"/>
  <outline>
    <contour>
      <point x="288" y="362" type="curve" smooth="yes"/>
      <point x="288" y="298"/>
      <point x="243" y="175"/>
      <point x="243" y="107" type="curve" smooth="yes" name="hr01"/>
      <point x="243" y="50"/>
      <point x="274" y="-6"/>
      <point x="361" y="-6" type="curve" smooth="yes"/>
      <point x="414" y="-6"/>
      <point x="491" y="15"/>
      <point x="547" y="179" type="curve"/>
      <point x="505" y="179" type="line"/>
      <point x="483" y="127"/>
      <point x="465" y="91"/>
      <point x="421" y="91" type="curve" smooth="yes"/>
      <point x="391" y="91"/>
      <point x="381" y="108"/>
      <point x="381" y="133" type="curve" smooth="yes"/>
      <point x="381" y="189"/>
      <point x="429" y="310"/>
      <point x="429" y="391" type="curve" smooth="yes" name="hr02"/>
      <point x="429" y="471"/>
      <point x="382" y="504"/>
      <point x="318" y="504" type="curve" smooth="yes"/>
      <point x="287" y="504"/>
      <point x="243" y="496"/>
      <point x="201" y="448" type="curve"/>
      <point x="212" y="500" type="line"/>
      <point x="68" y="500" type="line"/>
      <point x="-38" y="0" type="line"/>
      <point x="106" y="0" type="line"/>
      <point x="174" y="321" type="line"/>
      <point x="189" y="371"/>
      <point x="216" y="413"/>
      <point x="252" y="413" type="curve" smooth="yes"/>
      <point x="276" y="413"/>
      <point x="288" y="395"/>
    </contour>
    <contour>
      <point x="264" y="561" type="line"/>
      <point x="339" y="561" type="line"/>
      <point x="460" y="750" type="line"/>
      <point x="355" y="750" type="line"/>
    </contour>
  </outline>
</glyph>
<glyph name="OE" format="1">
  <advance width="846"/>
  <unicode hex="0152"/>
  <outline>
    <contour>
      <point x="651" y="419" type="line"/>
      <point x="654" y="445"/>
      <point x="656" y="470"/>
      <point x="656" y="494" type="curve" smooth="yes"/>
      <point x="656" y="562"/>
      <point x="642" y="622"/>
      <point x="611" y="666" type="curve"/>
      <point x="678" y="659"/>
      <point x="741" y="630"/>
      <point x="819" y="630" type="curve"/>
      <point x="897" y="647"/>
      <point x="900" y="708"/>
      <point x="914" y="750" type="curve" name="hr01"/>
      <point x="886" y="741"/>
      <point x="855" y="738"/>
      <point x="824" y="738" type="curve" smooth="yes" name="hr02"/>
      <point x="761" y="738"/>
      <point x="698" y="750"/>
      <point x="658" y="750" type="curve" smooth="yes" name="hr03"/>
      <point x="600" y="750"/>
      <point x="563" y="743"/>
      <point x="529" y="731" type="curve"/>
      <point x="499" y="743"/>
      <point x="462" y="750"/>
      <point x="419" y="750" type="curve" smooth="yes"/>
      <point x="208" y="750"/>
      <point x="16" y="617"/>
      <point x="16" y="477" type="curve" smooth="yes"/>
      <point x="16" y="416"/>
      <point x="54" y="393"/>
      <point x="117" y="393" type="curve"/>
      <point x="117" y="401"/>
      <point x="107" y="408"/>
      <point x="107" y="447" type="curve" smooth="yes"/>
      <point x="107" y="606"/>
      <point x="242" y="704"/>
      <point x="395" y="704" type="curve" smooth="yes"/>
      <point x="500" y="704"/>
      <point x="523" y="645"/>
      <point x="523" y="529" type="curve" smooth="yes"/>
      <point x="523" y="327"/>
      <point x="415" y="75"/>
      <point x="314" y="75" type="curve" smooth="yes"/>
      <point x="273" y="75"/>
      <point x="256" y="123"/>
      <point x="256" y="191" type="curve" smooth="yes"/>
      <point x="256" y="345"/>
      <point x="340" y="601"/>
      <point x="431" y="656" type="curve"/>
      <point x="413" y="662"/>
      <point x="396" y="664"/>
      <point x="379" y="664" type="curve" smooth="yes"/>
      <point x="199" y="664"/>
      <point x="108" y="357"/>
      <point x="108" y="195" type="curve" smooth="yes"/>
      <point x="108" y="49"/>
      <point x="182" y="-6"/>
      <point x="287" y="-6" type="curve" smooth="yes" name="hr04"/>
      <point x="312" y="-6"/>
      <point x="337" y="-3"/>
      <point x="358" y="0" type="curve" name="hr05"/>
      <point x="745" y="0" type="line"/>
      <point x="766" y="106" type="line" name="hr06"/>
      <point x="523" y="106" type="line"/>
      <point x="580" y="172"/>
      <point x="617" y="259"/>
      <point x="637" y="345" type="curve"/>
      <point x="764" y="345" type="line"/>
      <point x="784" y="419" type="line"/>
    </contour>
  </outline>
</glyph>
<glyph name="oe" format="1">
  <advance width="663"/>
  <unicode hex="0153"/>
  <outline>
    <contour>
      <point x="256" y="510" type="curve" smooth="yes"/>
      <point x="118" y="510"/>
      <point x="-7" y="404"/>
      <point x="-7" y="158" type="curve" smooth="yes"/>
      <point x="-7" y="39"/>
      <point x="39" y="-6"/>
      <point x="146" y="-6" type="curve" smooth="yes"/>
      <point x="202" y="-6"/>
      <point x="261" y="25"/>
      <point x="305" y="87" type="curve"/>
      <point x="326" y="36"/>
      <point x="372" y="0"/>
      <point x="440" y="0" type="curve" smooth="yes" name="hr01"/>
      <point x="569" y="0"/>
      <point x="665" y="101"/>
      <point x="722" y="204" type="curve"/>
      <point x="677" y="204" type="line"/>
      <point x="642" y="130"/>
      <point x="558" y="72"/>
      <point x="509" y="72" type="curve" smooth="yes" name="hr02"/>
      <point x="470" y="72"/>
      <point x="427" y="92"/>
      <point x="427" y="158" type="curve" smooth="yes"/>
      <point x="427" y="170"/>
      <point x="428" y="185"/>
      <point x="430" y="201" type="curve"/>
      <point x="525" y="213"/>
      <point x="656" y="283"/>
      <point x="656" y="405" type="curve" smooth="yes"/>
      <point x="656" y="475"/>
      <point x="610" y="509"/>
      <point x="528" y="509" type="curve" smooth="yes"/>
      <point x="456" y="509"/>
      <point x="405" y="475"/>
      <point x="368" y="425" type="curve"/>
      <point x="355" y="473"/>
      <point x="323" y="510"/>
    </contour>
    <contour>
      <point x="193" y="91" type="curve" smooth="yes"/>
      <point x="154" y="91"/>
      <point x="126" y="107"/>
      <point x="126" y="167" type="curve" smooth="yes"/>
      <point x="126" y="247"/>
      <point x="166" y="451"/>
      <point x="260" y="451" type="curve" smooth="yes" name="hr04"/>
      <point x="288" y="451"/>
      <point x="299" y="432"/>
      <point x="302" y="399" type="curve"/>
      <point x="275" y="389"/>
      <point x="258" y="358"/>
      <point x="258" y="329" type="curve" smooth="yes"/>
      <point x="258" y="305"/>
      <point x="271" y="284"/>
      <point x="300" y="284" type="curve" name="hr05"/>
      <point x="288" y="187"/>
      <point x="254" y="91"/>
    </contour>
    <contour>
      <point x="596" y="400" type="curve" smooth="yes"/>
      <point x="595" y="329"/>
      <point x="530" y="250"/>
      <point x="438" y="249" type="curve"/>
      <point x="459" y="343"/>
      <point x="505" y="456"/>
      <point x="561" y="456" type="curve" smooth="yes"/>
      <point x="591" y="456"/>
      <point x="596" y="421"/>
    </contour>
  </outline>
</glyph>
<glyph name="Sacute" format="1">
  <advance width="570"/>
  <unicode hex="015A"/>
  <outline>
    <contour>
      <point x="544" y="630" type="curve" smooth="yes"/>
      <point x="544" y="740"/>
      <point x="430" y="750"/>
      <point x="383" y="750" type="curve" smooth="yes"/>
      <point x="254" y="750"/>
      <point x="152" y="675"/>
      <point x="152" y="571" type="curve" smooth="yes"/>
      <point x="152" y="424"/>
      <point x="357" y="363"/>
      <point x="357" y="192" type="curve" smooth="yes" name="hr01"/>
      <point x="357" y="108"/>
      <point x="308" y="59"/>
      <point x="241" y="59" type="curve" smooth="yes"/>
      <point x="177" y="59"/>
      <point x="145" y="105"/>
      <point x="145" y="155" type="curve" smooth="yes"/>
      <point x="145" y="224"/>
      <point x="208" y="249"/>
      <point x="262" y="249" type="curve"/>
      <point x="259" y="301"/>
      <point x="209" y="315"/>
      <point x="174" y="315" type="curve" smooth="yes"/>
      <point x="104" y="315"/>
      <point x="27" y="259"/>
      <point x="27" y="151" type="curve" smooth="yes"/>
      <point x="27" y="29"/>
      <point x="125" y="-21"/>
      <point x="239" y="-21" type="curve" smooth="yes"/>
      <point x="384" y="-21"/>
      <point x="520" y="61"/>
      <point x="520" y="229" type="curve" smooth="yes"/>
      <point x="520" y="445"/>
      <point x="295" y="465"/>
      <point x="295" y="612" type="curve" smooth="yes" name="hr02"/>
      <point x="295" y="672"/>
      <point x="332" y="703"/>
      <point x="387" y="703" type="curve" smooth="yes"/>
      <point x="442" y="703"/>
      <point x="461" y="671"/>
      <point x="461" y="636" type="curve" smooth="yes"/>
      <point x="461" y="603"/>
      <point x="443" y="566"/>
      <point x="416" y="550" type="curve"/>
      <point x="429" y="535"/>
      <point x="444" y="529"/>
      <point x="462" y="529" type="curve" smooth="yes" name="hr03"/>
      <point x="512" y="529"/>
      <point x="544" y="572"/>
    </contour>
    <contour>
      <point x="358" y="811" type="line"/>
      <point x="433" y="811" type="line"/>
      <point x="554" y="1000" type="line"/>
      <point x="449" y="1000" type="line"/>
    </contour>
  </outline>
</glyph>
<glyph name="Zacute" format="1">
  <advance width="542"/>
  <unicode hex="0179"/>
  <outline>
    <contour>
      <point x="407" y="85" type="curve"/>
      <point x="394" y="67"/>
      <point x="350" y="63"/>
      <point x="303" y="63" type="curve" smooth="yes"/>
      <point x="270" y="63"/>
      <point x="233" y="65"/>
      <point x="207" y="65" type="curve"/>
      <point x="552" y="750" type="line"/>
      <point x="209" y="750" type="line" smooth="yes"/>
      <point x="129" y="750"/>
      <point x="86" y="696"/>
      <point x="86" y="646" type="curve" smooth="yes"/>
      <point x="86" y="618"/>
      <point x="99" y="587"/>
      <point x="137" y="587" type="curve" smooth="yes"/>
      <point x="161" y="587"/>
      <point x="196" y="600"/>
      <point x="196" y="644" type="curve" smooth="yes"/>
      <point x="196" y="668"/>
      <point x="186" y="676"/>
      <point x="179" y="676" type="curve"/>
      <point x="179" y="694"/>
      <point x="224" y="698"/>
      <point x="271" y="698" type="curve" smooth="yes" name="hr01"/>
      <point x="305" y="698"/>
      <point x="340" y="696"/>
      <point x="361" y="696" type="curve"/>
      <point x="11" y="0" type="line"/>
      <point x="372" y="0" type="line" smooth="yes"/>
      <point x="452" y="0"/>
      <point x="500" y="65"/>
      <point x="500" y="116" type="curve" smooth="yes"/>
      <point x="500" y="144"/>
      <point x="486" y="174"/>
      <point x="449" y="174" type="curve" smooth="yes" name="hr02"/>
      <point x="422" y="174"/>
      <point x="389" y="158"/>
      <point x="389" y="116" type="curve" smooth="yes"/>
      <point x="389" y="92"/>
      <point x="400" y="85"/>
    </contour>
    <contour>
      <point x="363" y="811" type="line"/>
      <point x="438" y="811" type="line"/>
      <point x="559" y="1000" type="line"/>
      <point x="454" y="1000" type="line"/>
    </contour>
  </outline>
</glyph>
<glyph name="florin" format="1">
  <advance width="271"/>
  <unicode hex="0192"/>
  <outline>
    <contour>
      <point x="209" y="460" type="line" name="hr00"/>
      <point x="284" y="460" type="line"/>
      <point x="292" y="500" type="line"/>
      <point x="218" y="500" type="line"/>
      <point x="235" y="579" type="line" smooth="yes"/>
      <point x="249" y="646"/>
      <point x="283" y="661"/>
      <point x="305" y="661" type="curve" smooth="yes"/>
      <point x="325" y="661"/>
      <point x="343" y="650"/>
      <point x="343" y="627" type="curve" smooth="yes"/>
      <point x="343" y="618"/>
      <point x="342" y="610"/>
      <point x="341" y="600" type="curve"/>
      <point x="388" y="600" type="line"/>
      <point x="390" y="612"/>
      <point x="391" y="625"/>
      <point x="391" y="641" type="curve" smooth="yes"/>
      <point x="391" y="706"/>
      <point x="334" y="749"/>
      <point x="273" y="749" type="curve" smooth="yes"/>
      <point x="207" y="749"/>
      <point x="121" y="722"/>
      <point x="91" y="579" type="curve" smooth="yes"/>
      <point x="74" y="500" type="line"/>
      <point x="14" y="500" type="line"/>
      <point x="6" y="460" type="line"/>
      <point x="66" y="460" type="line"/>
      <point x="-30" y="8" type="line"/>
      <point x="-125" y="-21"/>
      <point x="-202" y="-50"/>
      <point x="-202" y="-142" type="curve" smooth="yes"/>
      <point x="-202" y="-207"/>
      <point x="-145" y="-250"/>
      <point x="-84" y="-250" type="curve" smooth="yes"/>
      <point x="-18" y="-250"/>
      <point x="65" y="-223"/>
      <point x="95" y="-80" type="curve" smooth="yes"/>
    </contour>
    <contour>
      <point x="-147" y="-128" type="curve" smooth="yes"/>
      <point x="-147" y="-74"/>
      <point x="-100" y="-46"/>
      <point x="-37" y="-25" type="curve"/>
      <point x="-50" y="-83" type="line" smooth="yes"/>
      <point x="-63" y="-142"/>
      <point x="-86" y="-161"/>
      <point x="-107" y="-161" type="curve" smooth="yes"/>
      <point x="-129" y="-161"/>
      <point x="-147" y="-142"/>
    </contour>
  </outline>
</glyph>
<glyph name="ogonek" format="1">
  <advance width="291"/>
  <unicode hex="02DB"/>
  <outline>
    <contour>
      <point x="122" y="5" type="line"/>
      <point x="72" y="-34"/>
      <point x="45" y="-78"/>
      <point x="45" y="-115" type="curve" smooth="yes"/>
      <point x="45" y="-150"/>
      <point x="69" y="-193"/>
      <point x="124" y="-193" type="curve" smooth="yes"/>
      <point x="176" y="-193"/>
      <point x="208" y="-154"/>
      <point x="233" y="-131" type="curve"/>
      <point x="233" y="-119"/>
      <point x="234" y="-112"/>
      <point x="235" y="-100" type="curve"/>
      <point x="215" y="-113"/>
      <point x="191" y="-134"/>
      <point x="167" y="-134" type="curve" smooth="yes"/>
      <point x="139" y="-134"/>
      <point x="128" y="-106"/>
      <point x="128" y="-84" type="curve" smooth="yes"/>
      <point x="128" y="-44"/>
      <point x="163" y="-6"/>
      <point x="192" y="5" type="curve" name="hr01"/>
    </contour>
  </outline>
</glyph>
<glyph name="tilde" format="1">
  <advance width="403"/>
  <unicode hex="02DC"/>
  <outline>
    <contour>
      <point x="433" y="670" type="line"/>
      <point x="419" y="655"/>
      <point x="395" y="647"/>
      <point x="370" y="647" type="curve" smooth="yes"/>
      <point x="312" y="647"/>
      <point x="278" y="680"/>
      <point x="205" y="680" type="curve" smooth="yes" name="hr01"/>
      <point x="129" y="680"/>
      <point x="70" y="646"/>
      <point x="38" y="582" type="curve"/>
      <point x="44" y="580" type="line"/>
      <point x="62" y="597"/>
      <point x="84" y="606"/>
      <point x="110" y="606" type="curve" smooth="yes"/>
      <point x="165" y="606"/>
      <point x="212" y="569"/>
      <point x="278" y="569" type="curve" smooth="yes" name="hr02"/>
      <point x="354" y="569"/>
      <point x="428" y="622"/>
      <point x="439" y="669" type="curve"/>
    </contour>
  </outline>
</glyph>
<glyph name="bn_u" format="1">
  <advance width="531"/>
  <unicode hex="0989"/>
  <outline>
    <contour>
      <point x="79" y="906" type="curve" smooth="yes"/>
      <point x="79" y="929"/>
      <point x="95" y="951"/>
      <point x="122" y="960" type="curve"/>
      <point x="112" y="982"/>
      <point x="103" y="993"/>
      <point x="81" y="995" type="curve" smooth="yes"/>
      <point x="45" y="993"/>
      <point x="19" y="948"/>
      <point x="19" y="905" type="curve" smooth="yes"/>
      <point x="19" y="788"/>
      <point x="89" y="726"/>
      <point x="379" y="726" type="curve" smooth="yes"/>
      <point x="420" y="726"/>
      <point x="435" y="718"/>
      <point x="435" y="705" type="curve" smooth="yes"/>
      <point x="435" y="691"/>
      <point x="421" y="677"/>
      <point x="383" y="666" type="curve"/>
      <point x="446" y="639" type="line"/>
      <point x="486" y="666"/>
      <point x="495" y="690"/>
      <point x="495" y="726" type="curve"/>
      <point x="495" y="800"/>
      <point x="414" y="863"/>
      <point x="143" y="863" type="curve" smooth="yes"/>
      <point x="96" y="863"/>
      <point x="79" y="880"/>
    </contour>
    <contour>
      <point x="-7" y="567" type="line"/>
      <point x="57" y="567" type="line" smooth="yes"/>
      <point x="132" y="567"/>
      <point x="146" y="545"/>
      <point x="170" y="506" type="curve"/>
      <point x="189" y="535" type="line"/>
      <point x="154" y="619"/>
      <point x="102" y="671"/>
      <point x="11" y="671" type="curve" smooth="yes"/>
      <point x="-23" y="671" type="line"/>
    </contour>
    <contour>
      <point x="275" y="479" type="curve" smooth="yes"/>
      <point x="295" y="539"/>
      <point x="328" y="567"/>
      <point x="419" y="567" type="curve" smooth="yes"/>
      <point x="533" y="567" type="line"/>
      <point x="517" y="671" type="line"/>
      <point x="391" y="671" type="line" smooth="yes"/>
      <point x="254" y="671"/>
      <point x="178" y="612"/>
      <point x="156" y="498" type="curve" smooth="yes"/>
      <point x="141" y="421" type="line" smooth="yes"/>
      <point x="118" y="302"/>
      <point x="196" y="220"/>
      <point x="292" y="219" type="curve"/>
      <point x="338" y="219"/>
      <point x="383" y="243"/>
      <point x="414" y="293" type="curve"/>
      <point x="420" y="197"/>
      <point x="343" y="116"/>
      <point x="238" y="116" type="curve" smooth="yes"/>
      <point x="104" y="116"/>
      <point x="43" y="204"/>
      <point x="43" y="364" type="curve"/>
      <point x="43" y="415"/>
      <point x="55" y="445"/>
      <point x="67" y="469" type="curve"/>
      <point x="56" y="482"/>
      <point x="40" y="490"/>
      <point x="22" y="490" type="curve" smooth="yes"/>
      <point x="-9" y="490"/>
      <point x="-22" y="454"/>
      <point x="-22" y="396" type="curve"/>
      <point x="-22" y="194"/>
      <point x="41" y="-10"/>
      <point x="248" y="-10" type="curve" smooth="yes"/>
      <point x="367" y="-10"/>
      <point x="470" y="69"/>
      <point x="471" y="257" type="curve"/>
      <point x="470" y="348"/>
      <point x="443" y="405"/>
      <point x="407" y="448" type="curve"/>
      <point x="315" y="329"/>
      <point x="287" y="300"/>
      <point x="261" y="300" type="curve" smooth="yes"/>
      <point x="244" y="300"/>
      <point x="238" y="316"/>
      <point x="238" y="331" type="curve"/>
      <point x="238" y="372"/>
      <point x="257" y="424"/>
    </contour>
    <contour>
      <point x="272" y="985" type="move" name="chandrabindu"/>
    </contour>
  </outline>
</glyph>
<glyph name="bn_au" format="1">
  <advance width="729"/>
  <unicode hex="0994"/>
  <outline>
    <contour>
      <point x="674" y="660" type="curve"/>
      <point x="672" y="785"/>
      <point x="613" y="885"/>
      <point x="379" y="885" type="curve" smooth="yes"/>
      <point x="316" y="885"/>
      <point x="295" y="902"/>
      <point x="295" y="928" type="curve" smooth="yes"/>
      <point x="295" y="951"/>
      <point x="311" y="973"/>
      <point x="338" y="980" type="curve"/>
      <point x="328" y="1004"/>
      <point x="319" y="1015"/>
      <point x="297" y="1015" type="curve" smooth="yes"/>
      <point x="261" y="1015"/>
      <point x="235" y="970"/>
      <point x="235" y="925" type="curve" smooth="yes"/>
      <point x="235" y="830"/>
      <point x="306" y="748"/>
      <point x="486" y="748" type="curve" smooth="yes"/>
      <point x="576" y="748"/>
      <point x="610" y="691"/>
      <point x="610" y="625" type="curve" smooth="yes"/>
      <point x="610" y="533"/>
      <point x="548" y="422"/>
      <point x="480" y="418" type="curve"/>
      <point x="500" y="298" type="line"/>
      <point x="555" y="339"/>
      <point x="674" y="436"/>
    </contour>
    <contour>
      <point x="1" y="428" type="curve" smooth="yes"/>
      <point x="1" y="189"/>
      <point x="151" y="-9"/>
      <point x="340" y="-9" type="curve" smooth="yes"/>
      <point x="454" y="-9"/>
      <point x="560" y="68"/>
      <point x="560" y="216" type="curve" smooth="yes"/>
      <point x="560" y="329"/>
      <point x="491" y="427"/>
      <point x="409" y="427" type="curve" smooth="yes"/>
      <point x="361" y="427"/>
      <point x="325" y="398"/>
      <point x="325" y="335" type="curve" smooth="yes"/>
      <point x="325" y="282"/>
      <point x="367" y="249"/>
      <point x="408" y="249" type="curve" smooth="yes"/>
      <point x="504" y="249"/>
      <point x="575" y="404"/>
      <point x="575" y="508" type="curve" smooth="yes"/>
      <point x="575" y="590"/>
      <point x="511" y="681"/>
      <point x="382" y="681" type="curve" smooth="yes"/>
      <point x="254" y="681"/>
      <point x="126" y="567"/>
      <point x="126" y="445" type="curve"/>
      <point x="126" y="383"/>
      <point x="161" y="338"/>
      <point x="214" y="338" type="curve" smooth="yes"/>
      <point x="266" y="338"/>
      <point x="305" y="375"/>
      <point x="305" y="422" type="curve" smooth="yes"/>
      <point x="305" y="467"/>
      <point x="268" y="497"/>
      <point x="236" y="504" type="curve"/>
      <point x="260" y="446" type="line"/>
      <point x="285" y="533"/>
      <point x="366" y="614"/>
      <point x="437" y="614" type="curve" smooth="yes"/>
      <point x="464" y="614"/>
      <point x="482" y="585"/>
      <point x="482" y="553" type="curve" smooth="yes"/>
      <point x="482" y="509"/>
      <point x="461" y="441"/>
      <point x="430" y="410" type="curve"/>
      <point x="452" y="341" type="line"/>
      <point x="535" y="204"/>
      <point x="435" y="108"/>
      <point x="336" y="109" type="curve"/>
      <point x="218" y="109"/>
      <point x="75" y="218"/>
      <point x="75" y="398" type="curve" smooth="yes"/>
      <point x="75" y="435"/>
      <point x="84" y="468"/>
      <point x="102" y="491" type="curve"/>
      <point x="93" y="502"/>
      <point x="77" y="512"/>
      <point x="59" y="512" type="curve" smooth="yes"/>
      <point x="25" y="512"/>
      <point x="1" y="488"/>
    </contour>
    <contour>
      <point x="422" y="985" type="move" name="chandrabindu"/>
    </contour>
  </outline>
</glyph>
<glyph name="bn_dda" format="1">
  <advance width="531"/>
  <unicode hex="09A1"/>
  <outline>
    <contour>
      <point x="-7" y="567" type="line"/>
      <point x="57" y="567" type="line" smooth="yes"/>
      <point x="132" y="567"/>
      <point x="146" y="545"/>
      <point x="170" y="506" type="curve"/>
      <point x="189" y="535" type="line"/>
      <point x="154" y="619"/>
      <point x="102" y="671"/>
      <point x="11" y="671" type="curve" smooth="yes"/>
      <point x="-23" y="671" type="line"/>
    </contour>
    <contour>
      <point x="275" y="479" type="curve" smooth="yes"/>
      <point x="295" y="539"/>
      <point x="328" y="567"/>
      <point x="419" y="567" type="curve" smooth="yes"/>
      <point x="533" y="567" type="line"/>
      <point x="517" y="671" type="line"/>
      <point x="391" y="671" type="line" smooth="yes"/>
      <point x="254" y="671"/>
      <point x="178" y="612"/>
      <point x="156" y="498" type="curve" smooth="yes"/>
      <point x="141" y="421" type="line" smooth="yes"/>
      <point x="118" y="302"/>
      <point x="196" y="220"/>
      <point x="292" y="219" type="curve"/>
      <point x="338" y="219"/>
      <point x="383" y="243"/>
      <point x="414" y="293" type="curve"/>
      <point x="420" y="197"/>
      <point x="343" y="116"/>
      <point x="238" y="116" type="curve"/>
      <point x="106" y="119"/>
      <point x="43" y="204"/>
      <point x="43" y="364" type="curve"/>
      <point x="43" y="415"/>
      <point x="55" y="445"/>
      <point x="67" y="469" type="curve"/>
      <point x="56" y="482"/>
      <point x="40" y="490"/>
      <point x="22" y="490" type="curve" smooth="yes"/>
      <point x="-9" y="490"/>
      <point x="-22" y="454"/>
      <point x="-22" y="396" type="curve"/>
      <point x="-22" y="194"/>
      <point x="41" y="-10"/>
      <point x="248" y="-10" type="curve"/>
      <point x="367" y="-10"/>
      <point x="470" y="69"/>
      <point x="471" y="257" type="curve"/>
      <point x="470" y="348"/>
      <point x="443" y="405"/>
      <point x="407" y="448" type="curve"/>
      <point x="315" y="329"/>
      <point x="287" y="300"/>
      <point x="261" y="300" type="curve" smooth="yes"/>
      <point x="244" y="300"/>
      <point x="238" y="316"/>
      <point x="238" y="331" type="curve"/>
      <point x="238" y="372"/>
      <point x="257" y="424"/>
    </contour>
    <contour>
      <point x="231.0" y="0.0" type="move" name="blwm"/>
    </contour>
    <contour>
      <point x="176.0" y="-120.0" type="move" name="nukt"/>
    </contour>
    <contour>
      <point x="299.0" y="750.0" type="move" name="reph"/>
    </contour>
    <contour>
      <point x="299.0" y="750.0" type="move" name="chandrabindu"/>
    </contour>
    <contour>
      <point x="231.0" y="0.0" type="move" name="haln"/>
    </contour>
  </outline>
</glyph>
<glyph name="bn_ikaar" format="1">
  <advance width="282"/>
  <unicode hex="09BF"/>
  <outline>
    <contour>
      <point x="179" y="418" type="line" smooth="yes"/>
      <point x="202" y="531"/>
      <point x="219" y="567"/>
      <point x="269" y="567" type="curve" smooth="yes"/>
      <point x="284" y="567" type="line"/>
      <point x="268" y="671" type="line"/>
      <point x="260" y="671" type="line" smooth="yes"/>
      <point x="148.0" y="671"/>
      <point x="106.87672329" y="608.137038025"/>
      <point x="74" y="453" type="curve" smooth="yes"/>
      <point x="-22" y="0" type="line" smooth="yes"/>
      <point x="93" y="0" type="line" smooth="yes"/>
    </contour>
    <contour>
      <point x="-7" y="567" type="line"/>
      <point x="1" y="567" type="line" smooth="yes"/>
      <point x="55" y="567"/>
      <point x="79.1325429311" y="551.770258919"/>
      <point x="94" y="526" type="curve"/>
      <point x="112" y="540" type="line"/>
      <point x="98.0431763596" y="621.880032024"/>
      <point x="61.0" y="671"/>
      <point x="-14" y="671" type="curve" smooth="yes"/>
      <point x="-23" y="671" type="line"/>
    </contour>
    <contour>
      <point x="223" y="646" type="line"/>
      <point x="185.662639734" y="690.59740254"/>
      <point x="164.0" y="711.333333333"/>
      <point x="164" y="751" type="curve" smooth="yes"/>
      <point x="164.0" y="801.678571429"/>
      <point x="211.0" y="837.0"/>
      <point x="318" y="837" type="curve" smooth="yes"/>
      <point x="426.975308642" y="837.0"/>
      <point x="591.004951277" y="804.336874426"/>
      <point x="682" y="720" type="curve"/>
      <point x="714" y="720"/>
      <point x="725" y="749"/>
      <point x="695" y="775" type="curve" smooth="yes"/>
      <point x="572.597440687" y="884.404057439"/>
      <point x="440" y="955"/>
      <point x="264" y="955" type="curve" smooth="yes"/>
      <point x="154" y="955"/>
      <point x="67.0" y="897.403361345"/>
      <point x="67" y="806" type="curve" smooth="yes"/>
      <point x="67.0" y="746.324324324"/>
      <point x="111.564723202" y="682.265226471"/>
      <point x="195" y="614" type="curve"/>
    </contour>
  </outline>
</glyph>
<glyph name="bn_rra" format="1">
  <advance width="531"/>
  <unicode hex="09DC"/>
  <outline>
    <contour>
      <point x="160" y="-208" type="curve" smooth="yes"/>
      <point x="198" y="-208"/>
      <point x="231" y="-177"/>
      <point x="231" y="-137" type="curve" smooth="yes"/>
      <point x="231" y="-99"/>
      <point x="198" y="-66"/>
      <point x="160" y="-66" type="curve" smooth="yes"/>
      <point x="122" y="-66"/>
      <point x="89" y="-99"/>
      <point x="89" y="-137" type="curve" smooth="yes"/>
      <point x="89" y="-177"/>
      <point x="122" y="-208"/>
    </contour>
    <contour>
      <point x="-7" y="567" type="line"/>
      <point x="57" y="567" type="line" smooth="yes"/>
      <point x="132" y="567"/>
      <point x="146" y="545"/>
      <point x="170" y="506" type="curve"/>
      <point x="189" y="535" type="line"/>
      <point x="154" y="619"/>
      <point x="102" y="671"/>
      <point x="11" y="671" type="curve" smooth="yes"/>
      <point x="-23" y="671" type="line"/>
    </contour>
    <contour>
      <point x="275" y="479" type="curve" smooth="yes"/>
      <point x="295" y="539"/>
      <point x="328" y="567"/>
      <point x="419" y="567" type="curve" smooth="yes"/>
      <point x="533" y="567" type="line"/>
      <point x="517" y="671" type="line"/>
      <point x="391" y="671" type="line" smooth="yes"/>
      <point x="254" y="671"/>
      <point x="178" y="612"/>
      <point x="156" y="498" type="curve" smooth="yes"/>
      <point x="141" y="421" type="line" smooth="yes"/>
      <point x="118" y="302"/>
      <point x="196" y="220"/>
      <point x="292" y="219" type="curve"/>
      <point x="338" y="219"/>
      <point x="383" y="243"/>
      <point x="414" y="293" type="curve"/>
      <point x="420" y="197"/>
      <point x="343" y="116"/>
      <point x="238" y="116" type="curve"/>
      <point x="106" y="119"/>
      <point x="43" y="204"/>
      <point x="43" y="364" type="curve"/>
      <point x="43" y="415"/>
      <point x="55" y="445"/>
      <point x="67" y="469" type="curve"/>
      <point x="56" y="482"/>
      <point x="40" y="490"/>
      <point x="22" y="490" type="curve" smooth="yes"/>
      <point x="-9" y="490"/>
      <point x="-22" y="454"/>
      <point x="-22" y="396" type="curve"/>
      <point x="-22" y="194"/>
      <point x="41" y="-10"/>
      <point x="248" y="-10" type="curve"/>
      <point x="367" y="-10"/>
      <point x="470" y="69"/>
      <point x="471" y="257" type="curve"/>
      <point x="470" y="348"/>
      <point x="443" y="405"/>
      <point x="407" y="448" type="curve"/>
      <point x="315" y="329"/>
      <point x="287" y="300"/>
      <point x="261" y="300" type="curve" smooth="yes"/>
      <point x="244" y="300"/>
      <point x="238" y="316"/>
      <point x="238" y="331" type="curve"/>
      <point x="238" y="372"/>
      <point x="257" y="424"/>
    </contour>
    <contour>
      <point x="338" y="750" type="move" name="reph"/>
    </contour>
    <contour>
      <point x="338.0" y="750.0" type="move" name="chandrabindu"/>
    </contour>
    <contour>
      <point x="160" y="-234" type="move" name="haln"/>
    </contour>
  </outline>
</glyph>
<glyph name="bn_currencyless" format="1">
  <advance width="558"/>
  <unicode hex="09F8"/>
  <outline>
    <contour>
      <point x="126" y="190" type="line"/>
      <point x="204" y="564" type="line"/>
      <point x="206" y="576"/>
      <point x="207" y="587"/>
      <point x="207" y="597" type="curve" smooth="yes"/>
      <point x="207" y="641"/>
      <point x="186" y="660"/>
      <point x="147" y="660" type="curve" smooth="yes"/>
      <point x="121" y="660"/>
      <point x="104" y="654"/>
      <point x="82" y="639" type="curve"/>
      <point x="92" y="615"/>
      <point x="97" y="589"/>
      <point x="87" y="546" type="curve" smooth="yes"/>
      <point x="24" y="262" type="line"/>
    </contour>
    <contour>
      <point x="354" y="-29" type="curve" smooth="yes"/>
      <point x="382" y="-29"/>
      <point x="406" y="-12"/>
      <point x="416" y="1" type="curve"/>
      <point x="409" y="9"/>
      <point x="402" y="25"/>
      <point x="402" y="74" type="curve" smooth="yes"/>
      <point x="402" y="214"/>
      <point x="492" y="378"/>
      <point x="514" y="397" type="curve"/>
      <point x="505" y="441"/>
      <point x="441" y="506"/>
      <point x="399" y="506" type="curve" smooth="yes"/>
      <point x="322" y="506"/>
      <point x="183" y="416"/>
      <point x="127" y="327" type="curve"/>
      <point x="126" y="190" type="line"/>
      <point x="178" y="280"/>
      <point x="357" y="413"/>
      <point x="404" y="401" type="curve"/>
      <point x="307" y="286"/>
      <point x="289" y="107"/>
      <point x="289" y="48" type="curve" smooth="yes"/>
      <point x="289" y="-2"/>
      <point x="307" y="-29"/>
    </contour>
  </outline>
</glyph>
<glyph name="quoteleft" format="1">
  <advance width="305"/>
  <unicode hex="2018"/>
  <outline>
    <contour>
      <point x="221" y="678" type="curve" smooth="yes" name="hr00"/>
      <point x="221" y="716"/>
      <point x="189" y="748"/>
      <point x="148" y="748" type="curve" smooth="yes"/>
      <point x="107" y="748"/>
      <point x="84" y="720"/>
      <point x="84" y="682" type="curve" smooth="yes"/>
      <point x="84" y="630"/>
      <point x="129" y="563"/>
      <point x="205" y="514" type="curve"/>
      <point x="212" y="518"/>
      <point x="214" y="523"/>
      <point x="214" y="528" type="curve"/>
      <point x="165" y="598" type="line"/>
      <point x="165" y="604"/>
      <point x="169" y="610"/>
      <point x="177" y="615" type="curve" smooth="yes"/>
      <point x="202" y="630"/>
      <point x="221" y="650"/>
    </contour>
  </outline>
</glyph>
<glyph name="quotesinglbase" format="1">
  <advance width="283"/>
  <unicode hex="201A"/>
  <outline>
    <contour>
      <point x="76" y="76" type="curve" smooth="yes" name="hr00"/>
      <point x="76" y="48"/>
      <point x="95" y="28"/>
      <point x="120" y="13" type="curve" smooth="yes"/>
      <point x="128" y="8"/>
      <point x="132" y="2"/>
      <point x="132" y="-4" type="curve"/>
      <point x="83" y="-74" type="line"/>
      <point x="83" y="-79"/>
      <point x="85" y="-84"/>
      <point x="92" y="-88" type="curve"/>
      <point x="168" y="-39"/>
      <point x="213" y="28"/>
      <point x="213" y="80" type="curve" smooth="yes"/>
      <point x="213" y="118"/>
      <point x="190" y="146"/>
      <point x="149" y="146" type="curve" smooth="yes"/>
      <point x="108" y="146"/>
      <point x="76" y="114"/>
    </contour>
  </outline>
</glyph>
<glyph name="quotedblleft" format="1">
  <advance width="509"/>
  <unicode hex="201C"/>
  <outline>
    <contour>
      <point x="433" y="678" type="curve" smooth="yes" name="hr00"/>
      <point x="433" y="716"/>
      <point x="401" y="748"/>
      <point x="360" y="748" type="curve" smooth="yes"/>
      <point x="319" y="748"/>
      <point x="296" y="720"/>
      <point x="296" y="682" type="curve" smooth="yes"/>
      <point x="296" y="630"/>
      <point x="341" y="563"/>
      <point x="417" y="514" type="curve"/>
      <point x="424" y="518"/>
      <point x="426" y="523"/>
      <point x="426" y="528" type="curve"/>
      <point x="377" y="598" type="line"/>
      <point x="377" y="604"/>
      <point x="381" y="610"/>
      <point x="389" y="615" type="curve" smooth="yes"/>
      <point x="414" y="630"/>
      <point x="433" y="650"/>
    </contour>
    <contour>
      <point x="213" y="678" type="curve" smooth="yes"/>
      <point x="213" y="716"/>
      <point x="181" y="748"/>
      <point x="140" y="748" type="curve" smooth="yes"/>
      <point x="99" y="748"/>
      <point x="76" y="720"/>
      <point x="76" y="682" type="curve" smooth="yes"/>
      <point x="76" y="630"/>
      <point x="121" y="563"/>
      <point x="197" y="514" type="curve"/>
      <point x="204" y="518"/>
      <point x="206" y="523"/>
      <point x="206" y="528" type="curve"/>
      <point x="157" y="598" type="line"/>
      <point x="157" y="604"/>
      <point x="161" y="610"/>
      <point x="169" y="615" type="curve" smooth="yes"/>
      <point x="194" y="630"/>
      <point x="213" y="650"/>
    </contour>
  </outline>
</glyph>
<glyph name="guilsinglleft" format="1">
  <advance width="359"/>
  <unicode hex="2039"/>
  <outline>
    <contour>
      <point x="336" y="449" type="line" name="hr00"/>
      <point x="29" y="279" type="line"/>
      <point x="20" y="238" type="line"/>
      <point x="267" y="81" type="line"/>
      <point x="279" y="138" type="line"/>
      <point x="85" y="254" type="line"/>
      <point x="326" y="394" type="line"/>
    </contour>
  </outline>
</glyph>
<glyph name="fl" format="1">
  <advance width="548"/>
  <unicode hex="FB02"/>
  <outline>
    <contour>
      <point x="-154" y="-128" type="curve" smooth="yes" name="hr00"/>
      <point x="-154" y="-74"/>
      <point x="-106" y="-46"/>
      <point x="-43" y="-25" type="curve"/>
      <point x="-55" y="-83" type="line" smooth="yes"/>
      <point x="-67" y="-142"/>
      <point x="-94" y="-161"/>
      <point x="-114" y="-161" type="curve" smooth="yes"/>
      <point x="-136" y="-161"/>
      <point x="-154" y="-142"/>
    </contour>
    <contour>
      <point x="531" y="680" type="line"/>
      <point x="441" y="716"/>
      <point x="356" y="749"/>
      <point x="266" y="749" type="curve" smooth="yes"/>
      <point x="201" y="749"/>
      <point x="114" y="722"/>
      <point x="84" y="579" type="curve" smooth="yes"/>
      <point x="-36" y="8" type="line"/>
      <point x="-131" y="-21"/>
      <point x="-209" y="-50"/>
      <point x="-209" y="-142" type="curve" smooth="yes"/>
      <point x="-209" y="-207"/>
      <point x="-152" y="-250"/>
      <point x="-91" y="-250" type="curve" smooth="yes"/>
      <point x="-25" y="-250"/>
      <point x="61" y="-223"/>
      <point x="91" y="-80" type="curve" smooth="yes"/>
      <point x="205" y="460" type="line"/>
      <point x="298" y="460" type="line"/>
      <point x="306" y="500" type="line"/>
      <point x="213" y="500" type="line"/>
      <point x="235" y="607" type="line" smooth="yes"/>
      <point x="249" y="674"/>
      <point x="281" y="686"/>
      <point x="303" y="686" type="curve" smooth="yes"/>
      <point x="316" y="686"/>
      <point x="359" y="681"/>
      <point x="385" y="670" type="curve"/>
      <point x="281" y="179" type="line" smooth="yes"/>
      <point x="276" y="155"/>
      <point x="273" y="133"/>
      <point x="273" y="114" type="curve" smooth="yes"/>
      <point x="273" y="30"/>
      <point x="320" y="-6"/>
      <point x="380" y="-6" type="curve" smooth="yes"/>
      <point x="434" y="-6"/>
      <point x="533" y="16"/>
      <point x="590" y="179" type="curve"/>
      <point x="548" y="179" type="line"/>
      <point x="533" y="129"/>
      <point x="497" y="91"/>
      <point x="458" y="91" type="curve" smooth="yes"/>
      <point x="430" y="91"/>
      <point x="417" y="100"/>
      <point x="417" y="128" type="curve" smooth="yes"/>
      <point x="417" y="137"/>
      <point x="418" y="147"/>
      <point x="421" y="160" type="curve" smooth="yes"/>
    </contour>
  </outline>
</glyph>
<glyph name="bn_aumark_reph" format="1">
  <advance width="282"/>
  <outline>
    <contour>
      <point x="-7" y="567" type="line"/>
      <point x="2" y="567" type="line" smooth="yes"/>
      <point x="58" y="567"/>
      <point x="83" y="552"/>
      <point x="98" y="526" type="curve"/>
      <point x="116" y="540" type="line"/>
      <point x="102" y="622"/>
      <point x="64" y="671"/>
      <point x="-13" y="671" type="curve" smooth="yes"/>
      <point x="-23" y="671" type="line"/>
    </contour>
    <contour>
      <point x="185" y="529" type="line"/>
      <point x="210" y="554"/>
      <point x="235" y="567"/>
      <point x="277" y="567" type="curve" smooth="yes"/>
      <point x="284" y="567" type="line"/>
      <point x="268" y="671" type="line"/>
      <point x="264" y="671" type="line" smooth="yes"/>
      <point x="222" y="671"/>
      <point x="188" y="644"/>
      <point x="179" y="588" type="curve"/>
    </contour>
    <contour>
      <point x="-31" y="928" type="curve" smooth="yes"/>
      <point x="-31" y="951"/>
      <point x="-15" y="973"/>
      <point x="12" y="980" type="curve"/>
      <point x="2" y="1004"/>
      <point x="-7" y="1015"/>
      <point x="-29" y="1015" type="curve" smooth="yes"/>
      <point x="-65" y="1015"/>
      <point x="-91" y="970"/>
      <point x="-91" y="925" type="curve" smooth="yes"/>
      <point x="-91" y="815"/>
      <point x="-25" y="746"/>
      <point x="161" y="746" type="curve" smooth="yes"/>
      <point x="192" y="746"/>
      <point x="207" y="735"/>
      <point x="207" y="715" type="curve" smooth="yes"/>
      <point x="207" y="671"/>
      <point x="118" y="658"/>
      <point x="99" y="570" type="curve" smooth="yes"/>
      <point x="-23" y="0" type="line" smooth="yes"/>
      <point x="92" y="0" type="line"/>
      <point x="204" y="532" type="line" smooth="yes"/>
      <point x="223" y="623"/>
      <point x="267" y="675"/>
      <point x="267" y="730" type="curve" smooth="yes"/>
      <point x="267" y="817"/>
      <point x="195" y="883"/>
      <point x="25" y="883" type="curve" smooth="yes"/>
      <point x="-14" y="883"/>
      <point x="-31" y="901"/>
    </contour>
    <contour>
      <point x="-150" y="750" type="line"/>
      <point x="-12" y="750" type="line"/>
      <point x="173" y="1015" type="line"/>
      <point x="128" y="1015" type="line"/>
    </contour>
  </outline>
</glyph>
<glyph name="bn_b_ba" format="1">
  <advance width="930"/>
  <outline>
    <contour>
      <point x="190" y="567" type="line" smooth="yes"/>
      <point x="284" y="567"/>
      <point x="307" y="545"/>
      <point x="332" y="504" type="curve"/>
      <point x="351" y="533" type="line"/>
      <point x="315" y="620"/>
      <point x="240" y="671"/>
      <point x="123" y="671" type="curve" smooth="yes"/>
      <point x="-23" y="671" type="line"/>
      <point x="-7" y="567" type="line"/>
    </contour>
    <contour>
      <point x="389" y="544" type="line"/>
      <point x="261" y="544"/>
      <point x="105" y="456"/>
      <point x="-7" y="352" type="curve"/>
      <point x="9" y="239" type="line"/>
      <point x="143" y="227"/>
      <point x="251" y="138"/>
      <point x="222" y="0" type="curve"/>
      <point x="248" y="26" type="line"/>
      <point x="279" y="173"/>
      <point x="221" y="269"/>
      <point x="127" y="308" type="curve"/>
      <point x="127" y="298" type="line"/>
      <point x="235" y="399"/>
      <point x="326" y="425"/>
      <point x="412" y="425" type="curve"/>
    </contour>
    <contour>
      <point x="843" y="494" type="line" smooth="yes"/>
      <point x="854" y="546"/>
      <point x="876" y="567"/>
      <point x="906" y="567" type="curve" smooth="yes"/>
      <point x="932" y="567" type="line"/>
      <point x="916" y="671" type="line"/>
      <point x="886" y="671" type="line" smooth="yes"/>
      <point x="803" y="671"/>
      <point x="757" y="617"/>
      <point x="740" y="538" type="curve" smooth="yes"/>
      <point x="626" y="0" type="line" smooth="yes"/>
      <point x="741" y="0" type="line" smooth="yes"/>
    </contour>
    <contour>
      <point x="793" y="544" type="line"/>
      <point x="665" y="544"/>
      <point x="509" y="456"/>
      <point x="397" y="352" type="curve"/>
      <point x="413" y="239" type="line"/>
      <point x="547" y="227"/>
      <point x="655" y="138"/>
      <point x="626" y="0" type="curve"/>
      <point x="652" y="26" type="line"/>
      <point x="683" y="173"/>
      <point x="625" y="269"/>
      <point x="531" y="308" type="curve"/>
      <point x="531" y="298" type="line"/>
      <point x="639" y="399"/>
      <point x="730" y="425"/>
      <point x="816" y="425" type="curve"/>
    </contour>
    <contour>
      <point x="337" y="0" type="line" smooth="yes"/>
      <point x="434" y="466" type="line" smooth="yes"/>
      <point x="444" y="516"/>
      <point x="464" y="567"/>
      <point x="564" y="567" type="curve" smooth="yes"/>
      <point x="638" y="567"/>
      <point x="704" y="541"/>
      <point x="736" y="504" type="curve"/>
      <point x="755" y="533" type="line"/>
      <point x="719" y="620"/>
      <point x="644" y="671"/>
      <point x="547" y="671" type="curve" smooth="yes"/>
      <point x="409" y="671"/>
      <point x="348" y="593"/>
      <point x="333" y="522" type="curve" smooth="yes"/>
      <point x="222" y="0" type="line" smooth="yes"/>
    </contour>
    <contour>
      <point x="690" y="0" type="move" name="blwm"/>
    </contour>
    <contour>
      <point x="651" y="0" type="move" name="haln"/>
    </contour>
    <contour>
      <point x="828" y="750" type="move" name="reph"/>
    </contour>
    <contour>
      <point x="828" y="750" type="move" name="chandrabindu"/>
    </contour>
  </outline>
</glyph>
<glyph name="bn_b_bha" format="1">
  <advance width="673"/>
  <outline>
    <contour>
      <point x="338" y="567" type="line" smooth="yes"/>
      <point x="433" y="567"/>
      <point x="453" y="545"/>
      <point x="478" y="504" type="curve"/>
      <point x="497" y="533" type="line"/>
      <point x="461" y="620"/>
      <point x="389" y="671"/>
      <point x="271" y="671" type="curve" smooth="yes"/>
      <point x="-23" y="671" type="line"/>
      <point x="-7" y="567" type="line"/>
    </contour>
    <contour>
      <point x="586" y="494" type="line" smooth="yes"/>
      <point x="597" y="546"/>
      <point x="619" y="567"/>
      <point x="649" y="567" type="curve" smooth="yes"/>
      <point x="675" y="567" type="line"/>
      <point x="659" y="671" type="line"/>
      <point x="629" y="671" type="line" smooth="yes"/>
      <point x="546" y="671"/>
      <point x="496" y="617"/>
      <point x="483" y="538" type="curve" smooth="yes"/>
      <point x="414" y="114" type="line"/>
      <point x="508" y="114" type="line"/>
    </contour>
    <contour>
      <point x="537" y="544" type="line"/>
      <point x="409" y="544"/>
      <point x="248" y="499"/>
      <point x="151" y="409" type="curve"/>
      <point x="167" y="296" type="line"/>
      <point x="326" y="282"/>
      <point x="433" y="213"/>
      <point x="413" y="118" type="curve"/>
      <point x="439" y="144" type="line"/>
      <point x="454" y="230"/>
      <point x="399" y="309"/>
      <point x="282" y="358" type="curve"/>
      <point x="282" y="348" type="line"/>
      <point x="343" y="411"/>
      <point x="465" y="435"/>
      <point x="560" y="425" type="curve"/>
    </contour>
    <contour>
      <point x="322.0" y="-109.0" type="curve" smooth="yes"/>
      <point x="204.0" y="-109.0"/>
      <point x="70.0" y="-9.0"/>
      <point x="70.0" y="270.0" type="curve" smooth="yes"/>
      <point x="70.0" y="338.0"/>
      <point x="81.0" y="404.0"/>
      <point x="102.0" y="454.0" type="curve"/>
      <point x="93.0" y="465.0"/>
      <point x="77.0" y="475.0"/>
      <point x="59.0" y="475.0" type="curve" smooth="yes"/>
      <point x="29.0" y="475.0"/>
      <point x="0.0" y="451.0"/>
      <point x="0.0" y="354.0" type="curve"/>
      <point x="0.0" y="14.0"/>
      <point x="98.0" y="-230.0"/>
      <point x="315.0" y="-230.0" type="curve" smooth="yes"/>
      <point x="454.0" y="-230.0"/>
      <point x="557" y="-114"/>
      <point x="557.0" y="19.0" type="curve" smooth="yes"/>
      <point x="557" y="83"/>
      <point x="532.0" y="151.0"/>
      <point x="474.0" y="212.0" type="curve"/>
      <point x="456.0" y="161.0"/>
      <point x="387.0" y="100.0"/>
      <point x="337.0" y="109.0" type="curve"/>
      <point x="344.0" y="145.0"/>
      <point x="315.0" y="204.0"/>
      <point x="263.0" y="204.0" type="curve" smooth="yes"/>
      <point x="211.0" y="204.0"/>
      <point x="182.0" y="171.0"/>
      <point x="182.0" y="110.0" type="curve" smooth="yes"/>
      <point x="182.0" y="48.0"/>
      <point x="246.0" y="-7.0"/>
      <point x="325.0" y="-7.0" type="curve" smooth="yes"/>
      <point x="376.0" y="-7.0"/>
      <point x="443.0" y="9.0"/>
      <point x="494.0" y="70.0" type="curve"/>
      <point x="495.0" y="59.0"/>
      <point x="496.0" y="49.0"/>
      <point x="496.0" y="40.0" type="curve" smooth="yes"/>
      <point x="496.0" y="-49.0"/>
      <point x="414.0" y="-109.0"/>
    </contour>
    <contour>
      <point x="333" y="-226" type="move" name="blwm"/>
    </contour>
    <contour>
      <point x="233" y="-226" type="move" name="haln"/>
    </contour>
    <contour>
      <point x="580" y="750" type="move" name="reph"/>
    </contour>
    <contour>
      <point x="580" y="750" type="move" name="chandrabindu"/>
    </contour>
  </outline>
</glyph>
<glyph name="bn_b_la" format="1">
  <advance width="584"/>
  <outline>
    <contour>
      <point x="249" y="567" type="line" smooth="yes"/>
      <point x="344" y="567"/>
      <point x="364" y="545"/>
      <point x="389" y="504" type="curve"/>
      <point x="408" y="533" type="line"/>
      <point x="372" y="620"/>
      <point x="300" y="671"/>
      <point x="182" y="671" type="curve" smooth="yes"/>
      <point x="-23" y="671" type="line"/>
      <point x="-7" y="567" type="line"/>
    </contour>
    <contour>
      <point x="448" y="544" type="line"/>
      <point x="320" y="544"/>
      <point x="164" y="456"/>
      <point x="52" y="352" type="curve"/>
      <point x="68" y="239" type="line"/>
      <point x="202" y="227"/>
      <point x="310" y="138"/>
      <point x="281" y="0" type="curve"/>
      <point x="307" y="26" type="line"/>
      <point x="338" y="173"/>
      <point x="280" y="269"/>
      <point x="186" y="308" type="curve"/>
      <point x="186" y="298" type="line"/>
      <point x="294" y="399"/>
      <point x="385" y="425"/>
      <point x="471" y="425" type="curve"/>
    </contour>
    <contour>
      <point x="497" y="494" type="line" smooth="yes"/>
      <point x="508" y="546"/>
      <point x="530" y="567"/>
      <point x="560" y="567" type="curve" smooth="yes"/>
      <point x="586" y="567" type="line"/>
      <point x="570" y="671" type="line"/>
      <point x="540" y="671" type="line" smooth="yes"/>
      <point x="457" y="671"/>
      <point x="411" y="617"/>
      <point x="394" y="538" type="curve" smooth="yes"/>
      <point x="244" y="-162" type="line" smooth="yes"/>
      <point x="359" y="-162" type="line" smooth="yes"/>
    </contour>
    <contour>
      <point x="135" y="-61" type="curve"/>
      <point x="162" y="-25" type="line"/>
      <point x="183" y="65"/>
      <point x="121" y="141"/>
      <point x="46" y="140" type="curve" smooth="yes"/>
      <point x="-34" y="139"/>
      <point x="-91" y="68"/>
      <point x="-91" y="-7" type="curve" smooth="yes"/>
      <point x="-91" y="-104"/>
      <point x="-18" y="-153"/>
      <point x="27" y="-153" type="curve"/>
      <point x="66" y="-153"/>
      <point x="91" y="-124"/>
      <point x="91" y="-88" type="curve"/>
      <point x="91" y="-56"/>
      <point x="71" y="-29"/>
      <point x="35" y="-28" type="curve"/>
      <point x="0" y="-29"/>
      <point x="-25" y="-52"/>
      <point x="-25" y="-97" type="curve"/>
      <point x="-5" y="-99" type="line"/>
      <point x="-21" y="-89"/>
      <point x="-26" y="-65"/>
      <point x="-26" y="-46" type="curve"/>
      <point x="-27" y="2"/>
      <point x="4" y="35"/>
      <point x="45" y="35" type="curve" smooth="yes"/>
      <point x="92" y="35"/>
      <point x="135" y="3"/>
      <point x="135" y="-61" type="curve"/>
      <point x="135" y="-61"/>
      <point x="175" y="-74"/>
      <point x="175" y="-74" type="curve"/>
      <point x="179" y="-44"/>
      <point x="195" y="-11"/>
      <point x="224" y="-11" type="curve"/>
      <point x="253" y="-11"/>
      <point x="280" y="-39"/>
      <point x="264" y="-128" type="curve"/>
      <point x="271" y="-126" type="line"/>
      <point x="303" y="-40"/>
      <point x="289" y="91"/>
      <point x="220" y="91" type="curve"/>
      <point x="176" y="91"/>
      <point x="141" y="25"/>
    </contour>
    <contour>
      <point x="496" y="750" type="move" name="reph"/>
    </contour>
    <contour>
      <point x="496" y="750" type="move" name="chandrabindu"/>
    </contour>
    <contour>
      <point x="308" y="-162" type="move" name="blwm"/>
    </contour>
    <contour>
      <point x="270" y="-162" type="move" name="haln"/>
    </contour>
  </outline>
</glyph>
<glyph name="bn_b_ra" format="1">
  <advance width="617"/>
  <outline>
    <contour>
      <point x="282" y="567" type="line" smooth="yes"/>
      <point x="377" y="567"/>
      <point x="397" y="545"/>
      <point x="422" y="504" type="curve"/>
      <point x="441" y="533" type="line"/>
      <point x="405" y="620"/>
      <point x="333" y="671"/>
      <point x="215" y="671" type="curve" smooth="yes"/>
      <point x="-23" y="671" type="line"/>
      <point x="-7" y="567" type="line"/>
    </contour>
    <contour>
      <point x="481" y="544" type="line"/>
      <point x="353" y="544"/>
      <point x="197" y="456"/>
      <point x="85" y="352" type="curve"/>
      <point x="101" y="239" type="line"/>
      <point x="235" y="227"/>
      <point x="343" y="138"/>
      <point x="314" y="0" type="curve"/>
      <point x="340" y="26" type="line"/>
      <point x="371" y="173"/>
      <point x="313" y="269"/>
      <point x="219" y="308" type="curve"/>
      <point x="219" y="298" type="line"/>
      <point x="327" y="399"/>
      <point x="418" y="425"/>
      <point x="504" y="425" type="curve"/>
    </contour>
    <contour>
      <point x="530" y="494" type="line" smooth="yes"/>
      <point x="541" y="546"/>
      <point x="563" y="567"/>
      <point x="593" y="567" type="curve" smooth="yes"/>
      <point x="619" y="567" type="line"/>
      <point x="603" y="671" type="line"/>
      <point x="573" y="671" type="line" smooth="yes"/>
      <point x="490" y="671"/>
      <point x="444" y="617"/>
      <point x="427" y="538" type="curve" smooth="yes"/>
      <point x="286" y="-118" type="line" smooth="yes"/>
      <point x="401" y="-118" type="line" smooth="yes"/>
    </contour>
    <contour>
      <point x="38.0" y="163.0" type="curve" smooth="yes"/>
      <point x="38.0" y="190.0"/>
      <point x="53.0" y="207.0"/>
      <point x="73.0" y="214.0" type="curve"/>
      <point x="66.0" y="237.0"/>
      <point x="58.0" y="250.0"/>
      <point x="34.0" y="250.0" type="curve"/>
      <point x="2.0" y="250.0"/>
      <point x="-23.0" y="206.0"/>
      <point x="-23.0" y="145.0" type="curve"/>
      <point x="-23.0" y="48.0"/>
      <point x="59" y="-2"/>
      <point x="145.0" y="-2.0" type="curve" smooth="yes"/>
      <point x="161" y="-2"/>
      <point x="178" y="-2"/>
      <point x="196.0" y="-2.0" type="curve" smooth="yes"/>
      <point x="270" y="-2"/>
      <point x="301.0" y="-43.0"/>
      <point x="300.0" y="-82.0" type="curve"/>
      <point x="320.0" y="-71.0" type="line"/>
      <point x="333.0" y="45.0"/>
      <point x="257" y="114"/>
      <point x="174.0" y="114.0" type="curve" smooth="yes"/>
      <point x="156" y="114"/>
      <point x="140" y="113"/>
      <point x="124.0" y="113.0" type="curve" smooth="yes"/>
      <point x="67" y="113"/>
      <point x="38.0" y="132.0"/>
    </contour>
    <contour>
      <point x="350" y="-118" type="move" name="blwm"/>
    </contour>
    <contour>
      <point x="316" y="-118" type="move" name="haln"/>
    </contour>
    <contour>
      <point x="518" y="750" type="move" name="reph"/>
    </contour>
    <contour>
      <point x="518" y="750" type="move" name="chandrabindu"/>
    </contour>
  </outline>
</glyph>
<glyph name="bn_d_ra_ukaar" format="1">
  <advance width="746"/>
  <outline>
    <contour>
      <point x="47" y="170" type="curve" smooth="yes"/>
      <point x="47" y="193"/>
      <point x="56" y="216"/>
      <point x="81" y="229" type="curve"/>
      <point x="74" y="252"/>
      <point x="65" y="265"/>
      <point x="40" y="265" type="curve" smooth="yes"/>
      <point x="2" y="265"/>
      <point x="-17" y="223"/>
      <point x="-17" y="158" type="curve"/>
      <point x="-17" y="53"/>
      <point x="51" y="4"/>
      <point x="165" y="4" type="curve" smooth="yes"/>
      <point x="303" y="4"/>
      <point x="337" y="6"/>
      <point x="353" y="-16" type="curve"/>
      <point x="361" y="5" type="line"/>
      <point x="342" y="81"/>
      <point x="278" y="118"/>
      <point x="171" y="118" type="curve" smooth="yes"/>
      <point x="56" y="118"/>
      <point x="47" y="137"/>
    </contour>
    <contour>
      <point x="390" y="-75" type="curve" smooth="yes"/>
      <point x="408" y="-75"/>
      <point x="427" y="-65"/>
      <point x="432" y="-39" type="curve"/>
      <point x="405" y="-23"/>
      <point x="395" y="34"/>
      <point x="395" y="75" type="curve" smooth="yes"/>
      <point x="395" y="244"/>
      <point x="493" y="372"/>
      <point x="523" y="391" type="curve"/>
      <point x="461" y="504" type="line"/>
      <point x="385" y="465"/>
      <point x="329" y="422"/>
      <point x="250" y="355" type="curve"/>
      <point x="275" y="452" type="line" smooth="yes"/>
      <point x="299" y="545"/>
      <point x="335" y="567"/>
      <point x="418" y="567" type="curve" smooth="yes"/>
      <point x="748" y="567" type="line"/>
      <point x="732" y="671" type="line"/>
      <point x="431" y="671" type="line" smooth="yes"/>
      <point x="259" y="671"/>
      <point x="199" y="613"/>
      <point x="163" y="453" type="curve" smooth="yes"/>
      <point x="118" y="251" type="line"/>
      <point x="214" y="174" type="line"/>
      <point x="248" y="212"/>
      <point x="311" y="276"/>
      <point x="377" y="322" type="curve"/>
      <point x="354" y="257"/>
      <point x="330" y="170"/>
      <point x="330" y="113" type="curve" smooth="yes"/>
      <point x="330" y="8"/>
      <point x="359" y="-75"/>
    </contour>
    <contour>
      <point x="427" y="308" type="line"/>
      <point x="420" y="218"/>
      <point x="474" y="124"/>
      <point x="574" y="123" type="curve"/>
      <point x="644" y="123"/>
      <point x="695" y="169"/>
      <point x="695" y="275" type="curve" smooth="yes"/>
      <point x="695" y="341"/>
      <point x="663" y="410"/>
      <point x="595" y="410" type="curve" smooth="yes"/>
      <point x="548" y="410"/>
      <point x="522" y="379"/>
      <point x="522" y="339" type="curve" smooth="yes"/>
      <point x="522" y="297"/>
      <point x="551" y="271"/>
      <point x="588" y="271" type="curve" smooth="yes"/>
      <point x="622" y="271"/>
      <point x="642" y="294"/>
      <point x="642" y="326" type="curve"/>
      <point x="626" y="314" type="line"/>
      <point x="636" y="301"/>
      <point x="642" y="288"/>
      <point x="642" y="275" type="curve" smooth="yes"/>
      <point x="642" y="236"/>
      <point x="609" y="217"/>
      <point x="569" y="217" type="curve" smooth="yes"/>
      <point x="526" y="217"/>
      <point x="475" y="247"/>
      <point x="457" y="331" type="curve"/>
    </contour>
    <contour>
      <point x="-7" y="567" type="line"/>
      <point x="86" y="567" type="line" smooth="yes"/>
      <point x="136" y="567"/>
      <point x="177" y="551"/>
      <point x="192" y="526" type="curve"/>
      <point x="210" y="540" type="line"/>
      <point x="196" y="622"/>
      <point x="142" y="671"/>
      <point x="71" y="671" type="curve" smooth="yes"/>
      <point x="-23" y="671" type="line"/>
    </contour>
    <contour>
      <point x="319" y="750" type="move" name="reph"/>
    </contour>
    <contour>
      <point x="319" y="750" type="move" name="chandrabindu"/>
    </contour>
    <contour>
      <point x="388" y="-62" type="move" name="blwm"/>
    </contour>
    <contour>
      <point x="349" y="-62" type="move" name="haln"/>
    </contour>
  </outline>
</glyph>
<glyph name="bn_d_ra_uukaar" format="1">
  <advance width="689"/>
  <outline>
    <contour>
      <point x="515" y="567" type="line"/>
      <point x="691" y="567" type="line"/>
      <point x="675" y="671" type="line"/>
      <point x="515" y="671" type="line"/>
    </contour>
    <contour>
      <point x="557" y="199" type="curve"/>
      <point x="562" y="233" type="line"/>
      <point x="503" y="158"/>
      <point x="498" y="42"/>
      <point x="498" y="-28" type="curve" smooth="yes"/>
      <point x="498" y="-43"/>
      <point x="569" y="-79"/>
      <point x="578" y="-70" type="curve"/>
      <point x="576" y="-9"/>
      <point x="576" y="137"/>
      <point x="626" y="193" type="curve"/>
      <point x="561" y="287" type="line"/>
      <point x="501" y="281"/>
      <point x="415" y="212"/>
      <point x="397" y="189" type="curve"/>
      <point x="390" y="101" type="line"/>
      <point x="433" y="148"/>
      <point x="510" y="193"/>
    </contour>
    <contour>
      <point x="-7" y="567" type="line"/>
      <point x="86" y="567" type="line" smooth="yes"/>
      <point x="136" y="567"/>
      <point x="177" y="551"/>
      <point x="192" y="526" type="curve"/>
      <point x="210" y="540" type="line"/>
      <point x="196" y="622"/>
      <point x="142" y="671"/>
      <point x="71" y="671" type="curve" smooth="yes"/>
      <point x="-23" y="671" type="line"/>
    </contour>
    <contour>
      <point x="47" y="170" type="curve" smooth="yes"/>
      <point x="47" y="193"/>
      <point x="56" y="216"/>
      <point x="81" y="229" type="curve"/>
      <point x="74" y="252"/>
      <point x="65" y="265"/>
      <point x="40" y="265" type="curve" smooth="yes"/>
      <point x="2" y="265"/>
      <point x="-17" y="223"/>
      <point x="-17" y="158" type="curve"/>
      <point x="-17" y="53"/>
      <point x="53" y="4"/>
      <point x="197" y="4" type="curve" smooth="yes"/>
      <point x="313" y="4"/>
      <point x="342" y="0"/>
      <point x="363" y="-16" type="curve"/>
      <point x="371" y="5" type="line"/>
      <point x="352" y="81"/>
      <point x="288" y="118"/>
      <point x="174" y="118" type="curve" smooth="yes"/>
      <point x="60" y="118"/>
      <point x="47" y="137"/>
    </contour>
    <contour>
      <point x="400" y="-75" type="curve" smooth="yes"/>
      <point x="418" y="-75"/>
      <point x="437" y="-65"/>
      <point x="442" y="-39" type="curve"/>
      <point x="415" y="-23"/>
      <point x="405" y="34"/>
      <point x="405" y="75" type="curve" smooth="yes"/>
      <point x="405" y="244"/>
      <point x="520" y="372"/>
      <point x="550" y="391" type="curve"/>
      <point x="480" y="504" type="line"/>
      <point x="397" y="461"/>
      <point x="318" y="414"/>
      <point x="227" y="335" type="curve"/>
      <point x="243" y="326" type="line"/>
      <point x="275" y="452" type="line" smooth="yes"/>
      <point x="299" y="545"/>
      <point x="335" y="567"/>
      <point x="418" y="567" type="curve" smooth="yes"/>
      <point x="601" y="567" type="line"/>
      <point x="585" y="671" type="line"/>
      <point x="431" y="671" type="line" smooth="yes"/>
      <point x="259" y="671"/>
      <point x="199" y="613"/>
      <point x="163" y="453" type="curve" smooth="yes"/>
      <point x="118" y="251" type="line"/>
      <point x="214" y="174" type="line"/>
      <point x="255" y="221"/>
      <point x="359" y="322"/>
      <point x="439" y="366" type="curve"/>
      <point x="437" y="396" type="line"/>
      <point x="390" y="353"/>
      <point x="340" y="198"/>
      <point x="340" y="113" type="curve" smooth="yes"/>
      <point x="340" y="8"/>
      <point x="369" y="-75"/>
    </contour>
    <contour>
      <point x="317" y="750" type="move" name="reph"/>
    </contour>
    <contour>
      <point x="317.0" y="750.0" type="move" name="chandrabindu"/>
    </contour>
    <contour>
      <point x="356" y="-62" type="move" name="haln"/>
    </contour>
    <contour>
      <point x="395" y="-62" type="move" name="blwm"/>
    </contour>
  </outline>
</glyph>
<glyph name="bn_dha.half" format="1">
  <advance width="535"/>
  <outline>
    <contour>
      <point x="360" y="531"/>
      <point x="142" y="528"/>
      <point x="7" y="404" type="curve"/>
      <point x="36" y="310" type="line"/>
      <point x="145" y="312"/>
      <point x="242" y="282"/>
      <point x="279" y="239" type="curve"/>
      <point x="306" y="271" type="line"/>
      <point x="276" y="322"/>
      <point x="225" y="360"/>
      <point x="148" y="377" type="curve"/>
      <point x="234" y="432"/>
      <point x="352" y="434"/>
      <point x="398" y="415" type="curve"/>
      <point x="398" y="531" type="line"/>
    </contour>
    <contour>
      <point x="448" y="494" type="line" smooth="yes"/>
      <point x="459" y="546"/>
      <point x="481" y="567"/>
      <point x="511" y="567" type="curve" smooth="yes"/>
      <point x="537" y="567" type="line"/>
      <point x="521" y="671" type="line"/>
      <point x="491" y="671" type="line" smooth="yes"/>
      <point x="408" y="671"/>
      <point x="362" y="617"/>
      <point x="345" y="538" type="curve" smooth="yes"/>
      <point x="279" y="239" type="line" smooth="yes"/>
      <point x="394" y="239" type="line" smooth="yes"/>
    </contour>
    <contour>
      <point x="218" y="495" type="line"/>
      <point x="162" y="498"/>
      <point x="136" y="528"/>
      <point x="136" y="558" type="curve" smooth="yes"/>
      <point x="136" y="585"/>
      <point x="154" y="610"/>
      <point x="182" y="610" type="curve" smooth="yes"/>
      <point x="187" y="610"/>
      <point x="191" y="609"/>
      <point x="196" y="608" type="curve"/>
      <point x="231" y="654" type="line"/>
      <point x="213" y="655"/>
      <point x="178" y="644"/>
      <point x="177" y="610" type="curve" smooth="yes"/>
      <point x="176" y="565"/>
      <point x="209" y="544"/>
      <point x="245" y="544" type="curve" smooth="yes"/>
      <point x="280" y="544"/>
      <point x="305" y="572"/>
      <point x="305" y="612" type="curve" smooth="yes"/>
      <point x="305" y="665"/>
      <point x="254" y="696"/>
      <point x="186" y="696" type="curve" smooth="yes"/>
      <point x="104" y="696"/>
      <point x="55" y="641"/>
      <point x="55" y="581" type="curve"/>
      <point x="55" y="520"/>
      <point x="125" y="472"/>
      <point x="167" y="470" type="curve"/>
    </contour>
  </outline>
</glyph>
<glyph name="bn_g_da" format="1">
  <advance width="861"/>
  <outline>
    <contour>
      <point x="501" y="249" type="line"/>
      <point x="582" y="621" type="line"/>
      <point x="593" y="589"/>
      <point x="612" y="567"/>
      <point x="636" y="567" type="curve" smooth="yes"/>
      <point x="863" y="567" type="line"/>
      <point x="847" y="671" type="line"/>
      <point x="617" y="671" type="line" smooth="yes"/>
      <point x="560" y="671"/>
      <point x="542" y="704"/>
      <point x="542" y="798" type="curve"/>
      <point x="508" y="798" type="line"/>
      <point x="382" y="223" type="line"/>
      <point x="478" y="146" type="line"/>
      <point x="532" y="221"/>
      <point x="634" y="313"/>
      <point x="714" y="356" type="curve"/>
      <point x="693" y="385" type="line"/>
      <point x="641" y="310"/>
      <point x="594" y="220"/>
      <point x="594" y="127" type="curve" smooth="yes"/>
      <point x="594" y="30"/>
      <point x="644" y="-55"/>
      <point x="707" y="-55" type="curve" smooth="yes"/>
      <point x="727" y="-55"/>
      <point x="742" y="-42"/>
      <point x="749" y="-20" type="curve"/>
      <point x="690" y="-7"/>
      <point x="662" y="43"/>
      <point x="662" y="100" type="curve" smooth="yes"/>
      <point x="662" y="215"/>
      <point x="743" y="314"/>
      <point x="812" y="391" type="curve"/>
      <point x="741" y="504" type="line"/>
      <point x="641" y="452"/>
      <point x="547" y="383"/>
      <point x="472" y="289" type="curve"/>
    </contour>
    <contour>
      <point x="219" y="691" type="curve"/>
      <point x="88" y="691"/>
      <point x="12" y="575"/>
      <point x="12" y="469" type="curve" smooth="yes"/>
      <point x="12" y="416"/>
      <point x="40" y="385"/>
      <point x="82" y="385" type="curve" smooth="yes"/>
      <point x="128" y="385"/>
      <point x="173" y="425"/>
      <point x="235" y="425" type="curve" smooth="yes"/>
      <point x="261" y="425"/>
      <point x="273" y="415"/>
      <point x="273" y="397" type="curve" smooth="yes"/>
      <point x="273" y="357"/>
      <point x="202" y="306"/>
      <point x="112" y="298" type="curve"/>
      <point x="112" y="243"/>
      <point x="152" y="211"/>
      <point x="199" y="211" type="curve" smooth="yes"/>
      <point x="266" y="211"/>
      <point x="339" y="278"/>
      <point x="339" y="382" type="curve" smooth="yes"/>
      <point x="339" y="465"/>
      <point x="289" y="527"/>
      <point x="200" y="527" type="curve" smooth="yes"/>
      <point x="184" y="527"/>
      <point x="162" y="522"/>
      <point x="123" y="502" type="curve"/>
      <point x="150" y="487" type="line"/>
      <point x="156" y="538"/>
      <point x="197" y="590"/>
      <point x="254" y="590" type="curve"/>
      <point x="357" y="590"/>
      <point x="451" y="465"/>
      <point x="398" y="275" type="curve"/>
      <point x="438" y="351" type="line"/>
      <point x="481" y="539"/>
      <point x="358" y="691"/>
    </contour>
    <contour>
      <point x="516" y="750" type="move" name="reph"/>
    </contour>
    <contour>
      <point x="516" y="750" type="move" name="chandrabindu"/>
    </contour>
    <contour>
      <point x="674" y="0" type="move" name="blwm"/>
    </contour>
    <contour>
      <point x="605" y="0" type="move" name="haln"/>
    </contour>
  </outline>
</glyph>
<glyph name="bn_g_na" format="1">
  <advance width="622"/>
  <outline>
    <contour>
      <point x="608" y="671" type="line"/>
      <point x="598" y="671" type="line" smooth="yes"/>
      <point x="541" y="671"/>
      <point x="523" y="704"/>
      <point x="523" y="798" type="curve"/>
      <point x="489" y="798" type="line"/>
      <point x="282" y="-162" type="line" smooth="yes"/>
      <point x="397" y="-162" type="line"/>
      <point x="563" y="621" type="line"/>
      <point x="574" y="589"/>
      <point x="593" y="567"/>
      <point x="617" y="567" type="curve" smooth="yes"/>
      <point x="624" y="567" type="line"/>
    </contour>
    <contour>
      <point x="122" y="59" type="line"/>
      <point x="245" y="47"/>
      <point x="298" y="-90"/>
      <point x="282" y="-162" type="curve"/>
      <point x="317" y="-136" type="line"/>
      <point x="342" y="-19"/>
      <point x="242" y="129"/>
      <point x="122" y="129" type="curve" smooth="yes"/>
      <point x="55" y="129"/>
      <point x="11" y="83"/>
      <point x="11" y="23" type="curve" smooth="yes"/>
      <point x="11" y="-35"/>
      <point x="50" y="-80"/>
      <point x="114" y="-80" type="curve" smooth="yes"/>
      <point x="155" y="-80"/>
      <point x="206" y="-54"/>
      <point x="206" y="8" type="curve" smooth="yes"/>
      <point x="206" y="36"/>
      <point x="193" y="84"/>
      <point x="119" y="84" type="curve"/>
    </contour>
    <contour>
      <point x="230" y="691" type="curve" smooth="yes"/>
      <point x="113" y="691"/>
      <point x="12" y="580"/>
      <point x="12" y="444" type="curve" smooth="yes"/>
      <point x="12" y="391"/>
      <point x="40" y="360"/>
      <point x="82" y="360" type="curve" smooth="yes"/>
      <point x="128" y="360"/>
      <point x="173" y="400"/>
      <point x="235" y="400" type="curve" smooth="yes"/>
      <point x="261" y="400"/>
      <point x="273" y="390"/>
      <point x="273" y="372" type="curve" smooth="yes"/>
      <point x="273" y="332"/>
      <point x="201" y="275"/>
      <point x="111" y="267" type="curve"/>
      <point x="111" y="212"/>
      <point x="144" y="176"/>
      <point x="191" y="176" type="curve" smooth="yes"/>
      <point x="258" y="176"/>
      <point x="338" y="241"/>
      <point x="338" y="345" type="curve" smooth="yes"/>
      <point x="338" y="428"/>
      <point x="289" y="508"/>
      <point x="200" y="508" type="curve" smooth="yes"/>
      <point x="184" y="508"/>
      <point x="162" y="503"/>
      <point x="123" y="483" type="curve"/>
      <point x="150" y="462" type="line"/>
      <point x="163" y="540"/>
      <point x="201" y="590"/>
      <point x="273" y="590" type="curve" smooth="yes"/>
      <point x="353" y="590"/>
      <point x="429" y="523"/>
      <point x="395" y="362" type="curve"/>
      <point x="434" y="389" type="line"/>
      <point x="477" y="577"/>
      <point x="361" y="691"/>
    </contour>
    <contour>
      <point x="346" y="-162" type="move" name="blwm"/>
    </contour>
    <contour>
      <point x="302" y="-162" type="move" name="haln"/>
    </contour>
    <contour>
      <point x="498" y="750" type="move" name="reph"/>
    </contour>
    <contour>
      <point x="498" y="750" type="move" name="chandrabindu"/>
    </contour>
  </outline>
</glyph>
<glyph name="bn_h_ba" format="1">
  <advance width="451"/>
  <outline>
    <contour>
      <point x="453" y="567" type="line"/>
      <point x="437" y="671" type="line"/>
      <point x="-23" y="671" type="line"/>
      <point x="-7" y="567" type="line"/>
    </contour>
    <contour>
      <point x="148" y="404" type="line"/>
      <point x="167" y="433"/>
      <point x="206" y="451"/>
      <point x="237" y="451" type="curve" smooth="yes"/>
      <point x="283" y="451"/>
      <point x="301" y="424"/>
      <point x="301" y="382" type="curve" smooth="yes"/>
      <point x="301" y="297"/>
      <point x="221" y="191"/>
      <point x="-7" y="218" type="curve"/>
      <point x="13" y="98" type="line"/>
      <point x="181" y="82"/>
      <point x="288" y="7"/>
      <point x="329" y="-93" type="curve"/>
      <point x="354" y="-93"/>
      <point x="379" y="-82"/>
      <point x="379" y="-53" type="curve" smooth="yes"/>
      <point x="379" y="-6"/>
      <point x="292" y="78"/>
      <point x="183" y="137" type="curve"/>
      <point x="156" y="116" type="line"/>
      <point x="290" y="146"/>
      <point x="381" y="224"/>
      <point x="381" y="346" type="curve" smooth="yes"/>
      <point x="381" y="451"/>
      <point x="309" y="520"/>
      <point x="220" y="520" type="curve" smooth="yes"/>
      <point x="97" y="520"/>
      <point x="39" y="440"/>
      <point x="39" y="373" type="curve" smooth="yes"/>
      <point x="39" y="317"/>
      <point x="74" y="284"/>
      <point x="117" y="284" type="curve" smooth="yes"/>
      <point x="178" y="284"/>
      <point x="225" y="329"/>
      <point x="225" y="384" type="curve" smooth="yes"/>
      <point x="225" y="416"/>
      <point x="207" y="437"/>
      <point x="177" y="453" type="curve"/>
    </contour>
    <contour>
      <point x="213" y="74" type="line"/>
      <point x="145" y="-248" type="line" smooth="yes"/>
      <point x="238" y="-248" type="line" smooth="yes"/>
      <point x="296" y="32" type="line"/>
    </contour>
    <contour>
      <point x="145" y="-248" type="curve"/>
      <point x="165" y="-227" type="line"/>
      <point x="181" y="-142"/>
      <point x="129" y="-79"/>
      <point x="60" y="-48" type="curve"/>
      <point x="62" y="-68" type="line"/>
      <point x="134" y="-17"/>
      <point x="200" y="11"/>
      <point x="263" y="19" type="curve"/>
      <point x="224" y="97" type="line"/>
      <point x="124" y="85"/>
      <point x="31" y="45"/>
      <point x="-45" y="-25" type="curve"/>
      <point x="-25" y="-117" type="line"/>
      <point x="68" y="-117"/>
      <point x="159" y="-158"/>
    </contour>
    <contour>
      <point x="187" y="-248" type="move" name="blwm"/>
    </contour>
    <contour>
      <point x="157" y="-248" type="move" name="haln"/>
    </contour>
    <contour>
      <point x="263" y="750" type="move" name="reph"/>
    </contour>
    <contour>
      <point x="263" y="750" type="move" name="chandrabindu"/>
    </contour>
  </outline>
</glyph>
<glyph name="bn_jh_ra" format="1">
  <advance width="775"/>
  <outline>
    <contour>
      <point x="230" y="567" type="line" smooth="yes"/>
      <point x="325" y="567"/>
      <point x="345" y="545"/>
      <point x="370" y="504" type="curve"/>
      <point x="389" y="533" type="line"/>
      <point x="353" y="620"/>
      <point x="281" y="671"/>
      <point x="163" y="671" type="curve" smooth="yes"/>
      <point x="-23" y="671" type="line"/>
      <point x="-7" y="567" type="line"/>
    </contour>
    <contour>
      <point x="386" y="303" type="curve"/>
      <point x="305" y="192" type="line"/>
      <point x="397" y="192"/>
      <point x="476" y="142"/>
      <point x="476" y="50" type="curve" smooth="yes"/>
      <point x="476" y="37"/>
      <point x="474" y="24"/>
      <point x="469" y="1" type="curve"/>
      <point x="495" y="27" type="line"/>
      <point x="502" y="59"/>
      <point x="505" y="76"/>
      <point x="505" y="92" type="curve" smooth="yes"/>
      <point x="505" y="176"/>
      <point x="478" y="283"/>
    </contour>
    <contour>
      <point x="761" y="671" type="line"/>
      <point x="751" y="671" type="line" smooth="yes"/>
      <point x="694" y="671"/>
      <point x="676" y="704"/>
      <point x="676" y="798" type="curve"/>
      <point x="642" y="798" type="line"/>
      <point x="469" y="1" type="line" smooth="yes"/>
      <point x="584" y="1" type="line"/>
      <point x="716" y="621" type="line"/>
      <point x="727" y="589"/>
      <point x="746" y="567"/>
      <point x="770" y="567" type="curve" smooth="yes"/>
      <point x="777" y="567" type="line"/>
    </contour>
    <contour>
      <point x="429" y="544" type="line"/>
      <point x="301" y="544"/>
      <point x="145" y="456"/>
      <point x="33" y="352" type="curve"/>
      <point x="49" y="239" type="line"/>
      <point x="183" y="227"/>
      <point x="291" y="138"/>
      <point x="262" y="0" type="curve"/>
      <point x="288" y="26" type="line"/>
      <point x="319" y="173"/>
      <point x="261" y="269"/>
      <point x="167" y="308" type="curve"/>
      <point x="167" y="298" type="line"/>
      <point x="275" y="399"/>
      <point x="366" y="425"/>
      <point x="452" y="425" type="curve"/>
    </contour>
    <contour>
      <point x="260" y="0" type="line"/>
      <point x="233" y="-117" type="line" smooth="yes"/>
      <point x="348" y="-117" type="line"/>
      <point x="518" y="671" type="line"/>
      <point x="404" y="671" type="line"/>
    </contour>
    <contour>
      <point x="10" y="120" type="curve" smooth="yes"/>
      <point x="10" y="143"/>
      <point x="24" y="158"/>
      <point x="46" y="165" type="curve"/>
      <point x="39" y="188"/>
      <point x="30" y="201"/>
      <point x="2" y="201" type="curve"/>
      <point x="-30" y="201"/>
      <point x="-53" y="161"/>
      <point x="-53" y="102" type="curve" smooth="yes"/>
      <point x="-53" y="-6"/>
      <point x="40" y="-51"/>
      <point x="128" y="-51" type="curve" smooth="yes"/>
      <point x="233" y="-51"/>
      <point x="239" y="-73"/>
      <point x="240" y="-104" type="curve"/>
      <point x="254" y="-99" type="line"/>
      <point x="270" y="5"/>
      <point x="215" y="77"/>
      <point x="110" y="77" type="curve" smooth="yes"/>
      <point x="41" y="77"/>
      <point x="10" y="89"/>
    </contour>
    <contour>
      <point x="650" y="750" type="move" name="reph"/>
    </contour>
    <contour>
      <point x="650" y="750" type="move" name="chandrabindu"/>
    </contour>
    <contour>
      <point x="297" y="-117" type="move" name="blwm"/>
    </contour>
    <contour>
      <point x="262" y="-117" type="move" name="haln"/>
    </contour>
  </outline>
</glyph>
<glyph name="bn_kh_ba" format="1">
  <advance width="612"/>
  <outline>
    <contour>
      <point x="598" y="671" type="line"/>
      <point x="588" y="671" type="line" smooth="yes"/>
      <point x="529" y="671"/>
      <point x="511" y="704"/>
      <point x="511" y="798" type="curve"/>
      <point x="477" y="798" type="line"/>
      <point x="280" y="-120" type="line" smooth="yes"/>
      <point x="395" y="-120" type="line"/>
      <point x="551" y="621" type="line"/>
      <point x="562" y="589"/>
      <point x="581" y="567"/>
      <point x="605" y="567" type="curve" smooth="yes"/>
      <point x="614" y="567" type="line"/>
    </contour>
    <contour>
      <point x="297" y="554" type="curve"/>
      <point x="300" y="551"/>
      <point x="302" y="545"/>
      <point x="303" y="530" type="curve"/>
      <point x="302" y="479"/>
      <point x="223" y="412"/>
      <point x="61" y="387" type="curve"/>
      <point x="77" y="281" type="line"/>
      <point x="210" y="283"/>
      <point x="366" y="203"/>
      <point x="341" y="70" type="curve"/>
      <point x="366" y="93" type="line"/>
      <point x="389" y="247"/>
      <point x="274" y="334"/>
      <point x="160" y="371" type="curve"/>
      <point x="155" y="307" type="line"/>
      <point x="320" y="354"/>
      <point x="373" y="434"/>
      <point x="373" y="509" type="curve" smooth="yes"/>
      <point x="373" y="601"/>
      <point x="319" y="669"/>
      <point x="262" y="694" type="curve"/>
      <point x="227" y="630"/>
      <point x="203" y="606"/>
      <point x="162" y="558" type="curve"/>
      <point x="192" y="585" type="line"/>
      <point x="192" y="648"/>
      <point x="146" y="673"/>
      <point x="103" y="673" type="curve" smooth="yes"/>
      <point x="48" y="673"/>
      <point x="15" y="627"/>
      <point x="15" y="582" type="curve" smooth="yes"/>
      <point x="15" y="519"/>
      <point x="61" y="481"/>
      <point x="128" y="481" type="curve" smooth="yes"/>
      <point x="189" y="481"/>
      <point x="243" y="502"/>
    </contour>
    <contour>
      <point x="280" y="-120" type="curve"/>
      <point x="302" y="-94" type="line"/>
      <point x="314" y="-6"/>
      <point x="257" y="51"/>
      <point x="198" y="67" type="curve"/>
      <point x="240" y="97"/>
      <point x="288" y="121"/>
      <point x="343" y="134" type="curve"/>
      <point x="308" y="231" type="line"/>
      <point x="216" y="202"/>
      <point x="142" y="168"/>
      <point x="79" y="110" type="curve"/>
      <point x="108" y="11" type="line"/>
      <point x="195" y="11"/>
      <point x="291" y="-47"/>
    </contour>
    <contour>
      <point x="344" y="-120" type="move" name="blwm"/>
    </contour>
    <contour>
      <point x="311" y="-120" type="move" name="haln"/>
    </contour>
    <contour>
      <point x="486" y="750" type="move" name="reph"/>
    </contour>
    <contour>
      <point x="486" y="750" type="move" name="chandrabindu"/>
    </contour>
  </outline>
</glyph>
<glyph name="bn_l_ra" format="1">
  <advance width="766.0"/>
  <outline>
    <contour>
      <point x="429" y="567" type="line" smooth="yes"/>
      <point x="523" y="567"/>
      <point x="546" y="545"/>
      <point x="571" y="504" type="curve"/>
      <point x="590" y="533" type="line"/>
      <point x="554" y="620"/>
      <point x="479" y="671"/>
      <point x="362" y="671" type="curve" smooth="yes"/>
      <point x="-23" y="671" type="line"/>
      <point x="-7" y="567" type="line"/>
    </contour>
    <contour>
      <point x="559" y="-73" type="line" smooth="yes"/>
      <point x="678" y="494" type="line" smooth="yes"/>
      <point x="689" y="546"/>
      <point x="711" y="567"/>
      <point x="741" y="567" type="curve" smooth="yes"/>
      <point x="768" y="567" type="line"/>
      <point x="752" y="671" type="line"/>
      <point x="721" y="671" type="line" smooth="yes"/>
      <point x="638" y="671"/>
      <point x="592" y="616"/>
      <point x="575" y="538" type="curve" smooth="yes"/>
      <point x="444" y="-73" type="line" smooth="yes"/>
    </contour>
    <contour>
      <point x="373" y="311" type="curve"/>
      <point x="373" y="311"/>
      <point x="422" y="298"/>
      <point x="422" y="297" type="curve"/>
      <point x="426" y="328"/>
      <point x="442" y="388"/>
      <point x="481" y="388" type="curve"/>
      <point x="522" y="389"/>
      <point x="534" y="341"/>
      <point x="517" y="260" type="curve"/>
      <point x="530" y="247" type="line"/>
      <point x="573" y="356"/>
      <point x="552" y="501"/>
      <point x="472" y="503" type="curve"/>
      <point x="409" y="503"/>
      <point x="377" y="417"/>
    </contour>
    <contour>
      <point x="373" y="311" type="curve"/>
      <point x="394" y="351" type="line"/>
      <point x="411" y="441"/>
      <point x="364" y="525"/>
      <point x="279" y="524" type="curve"/>
      <point x="206" y="524"/>
      <point x="151" y="461"/>
      <point x="151" y="370" type="curve"/>
      <point x="152" y="266"/>
      <point x="229" y="219"/>
      <point x="279" y="219" type="curve"/>
      <point x="318" y="219"/>
      <point x="344" y="242"/>
      <point x="344" y="278" type="curve"/>
      <point x="344" y="310"/>
      <point x="325" y="339"/>
      <point x="286" y="340" type="curve"/>
      <point x="254" y="339"/>
      <point x="223" y="318"/>
      <point x="223" y="277" type="curve"/>
      <point x="250" y="270" type="line"/>
      <point x="231" y="282"/>
      <point x="228" y="305"/>
      <point x="228" y="330" type="curve" smooth="yes"/>
      <point x="228" y="370"/>
      <point x="252" y="401"/>
      <point x="294" y="401" type="curve"/>
      <point x="333" y="401"/>
      <point x="371" y="374"/>
    </contour>
    <contour>
      <point x="72" y="266" type="curve"/>
      <point x="72" y="299"/>
      <point x="86" y="327"/>
      <point x="128" y="350" type="curve"/>
      <point x="121" y="373"/>
      <point x="109" y="386"/>
      <point x="84" y="386" type="curve" smooth="yes"/>
      <point x="40" y="386"/>
      <point x="15" y="343"/>
      <point x="14" y="259" type="curve"/>
      <point x="13" y="110"/>
      <point x="108" y="35"/>
      <point x="283" y="35" type="curve" smooth="yes"/>
      <point x="411" y="35"/>
      <point x="430" y="-5"/>
      <point x="443" y="-73" type="curve"/>
      <point x="462" y="-63" type="line"/>
      <point x="466" y="-45"/>
      <point x="475" y="-17"/>
      <point x="470" y="0" type="curve" smooth="yes"/>
      <point x="429" y="149"/>
      <point x="342" y="174"/>
      <point x="251" y="174" type="curve" smooth="yes"/>
      <point x="150" y="174"/>
      <point x="72" y="193"/>
    </contour>
    <contour>
      <point x="508" y="-73" type="move" name="blwm"/>
    </contour>
    <contour>
      <point x="472" y="-73" type="move" name="haln"/>
    </contour>
    <contour>
      <point x="660" y="750" type="move" name="reph"/>
    </contour>
    <contour>
      <point x="660" y="750" type="move" name="chandrabindu"/>
    </contour>
  </outline>
</glyph>
<glyph name="bn_m_p_ra" format="1">
  <advance width="1034"/>
  <outline>
    <contour>
      <point x="1020" y="671" type="line"/>
      <point x="1010" y="671" type="line" smooth="yes"/>
      <point x="953" y="671"/>
      <point x="935" y="704"/>
      <point x="935" y="798" type="curve"/>
      <point x="901" y="798" type="line"/>
      <point x="729" y="0" type="line" smooth="yes"/>
      <point x="844" y="0" type="line"/>
      <point x="975" y="621" type="line"/>
      <point x="986" y="589"/>
      <point x="1005" y="567"/>
      <point x="1029" y="567" type="curve" smooth="yes"/>
      <point x="1036" y="567" type="line"/>
    </contour>
    <contour>
      <point x="473" y="193"/>
      <point x="409" y="161"/>
      <point x="333" y="161" type="curve" smooth="yes"/>
      <point x="287" y="161"/>
      <point x="264" y="176"/>
      <point x="264" y="207" type="curve"/>
      <point x="264" y="230"/>
      <point x="277" y="243"/>
      <point x="298" y="250" type="curve"/>
      <point x="294" y="271"/>
      <point x="283" y="286"/>
      <point x="259" y="286" type="curve"/>
      <point x="227" y="286"/>
      <point x="201" y="252"/>
      <point x="201" y="191" type="curve"/>
      <point x="201" y="104"/>
      <point x="275" y="45"/>
      <point x="387" y="45" type="curve" smooth="yes"/>
      <point x="467" y="45"/>
      <point x="539" y="79"/>
      <point x="626" y="79" type="curve" smooth="yes"/>
      <point x="681" y="79"/>
      <point x="726" y="67"/>
      <point x="737" y="9" type="curve"/>
      <point x="759" y="15" type="line"/>
      <point x="757" y="130"/>
      <point x="677" y="193"/>
      <point x="572" y="193" type="curve" smooth="yes"/>
    </contour>
    <contour>
      <point x="329" y="567"/>
      <point x="362" y="528"/>
      <point x="362" y="487" type="curve" smooth="yes"/>
      <point x="362" y="440"/>
      <point x="337" y="409"/>
      <point x="290" y="409" type="curve"/>
      <point x="190" y="409"/>
      <point x="177" y="494"/>
      <point x="87" y="494" type="curve" smooth="yes"/>
      <point x="43" y="494"/>
      <point x="2" y="468"/>
      <point x="2" y="417" type="curve"/>
      <point x="2" y="366"/>
      <point x="43" y="340"/>
      <point x="87" y="340" type="curve" smooth="yes"/>
      <point x="143" y="340"/>
      <point x="176" y="383"/>
      <point x="176" y="430" type="curve" smooth="yes"/>
      <point x="176" y="502"/>
      <point x="159" y="536"/>
      <point x="143" y="567" type="curve"/>
      <point x="-6" y="567" type="line"/>
      <point x="54" y="567"/>
      <point x="106" y="529"/>
      <point x="106" y="466" type="curve"/>
      <point x="113" y="412" type="line"/>
      <point x="215" y="371"/>
      <point x="240" y="296"/>
      <point x="328" y="296" type="curve"/>
      <point x="446" y="296"/>
      <point x="436" y="443"/>
      <point x="511" y="443" type="curve" smooth="yes"/>
      <point x="569" y="443"/>
      <point x="578" y="375"/>
      <point x="506" y="316" type="curve"/>
      <point x="588" y="235" type="line"/>
      <point x="665" y="311"/>
      <point x="758" y="389"/>
      <point x="815" y="423" type="curve"/>
      <point x="765" y="531" type="line"/>
      <point x="713" y="493"/>
      <point x="662" y="446"/>
      <point x="609" y="400" type="curve"/>
      <point x="622" y="463"/>
      <point x="574" y="516"/>
      <point x="517" y="522" type="curve"/>
      <point x="536" y="561"/>
      <point x="570" y="579"/>
      <point x="617" y="579" type="curve" smooth="yes"/>
      <point x="756" y="579"/>
      <point x="817" y="413"/>
      <point x="784" y="255" type="curve"/>
      <point x="825" y="333" type="line"/>
      <point x="864" y="489"/>
      <point x="747" y="681"/>
      <point x="591" y="681" type="curve"/>
      <point x="487" y="681"/>
      <point x="429" y="608"/>
      <point x="409" y="552" type="curve"/>
      <point x="402" y="589"/>
      <point x="352" y="662"/>
      <point x="303" y="671" type="curve"/>
      <point x="-23" y="671" type="line"/>
      <point x="-7" y="567" type="line"/>
      <point x="265" y="567" type="line"/>
    </contour>
    <contour>
      <point x="793" y="0" type="move" name="blwm"/>
    </contour>
    <contour>
      <point x="758" y="0" type="move" name="haln"/>
    </contour>
    <contour>
      <point x="910" y="750" type="move" name="reph"/>
    </contour>
    <contour>
      <point x="910" y="750" type="move" name="chandrabindu"/>
    </contour>
  </outline>
</glyph>
<glyph name="bn_n_d_ra" format="1">
  <advance width="697"/>
  <outline>
    <contour>
      <point x="102" y="175" type="curve" smooth="yes"/>
      <point x="102" y="199"/>
      <point x="111.0" y="216.0"/>
      <point x="136.0" y="229.0" type="curve"/>
      <point x="129.0" y="248.0"/>
      <point x="120.0" y="265.0"/>
      <point x="95.0" y="265.0" type="curve" smooth="yes"/>
      <point x="57.0" y="265.0"/>
      <point x="38" y="223"/>
      <point x="38" y="172" type="curve" smooth="yes"/>
      <point x="38" y="64"/>
      <point x="147" y="1"/>
      <point x="268.0" y="1.0" type="curve" smooth="yes"/>
      <point x="311" y="1"/>
      <point x="359.890436384" y="10.0"/>
      <point x="390.0" y="10.0" type="curve" smooth="yes"/>
      <point x="437.0" y="10.0"/>
      <point x="458.0" y="-0.0"/>
      <point x="469.0" y="-16.0" type="curve"/>
      <point x="477.0" y="5.0" type="line"/>
      <point x="460.0" y="73.0"/>
      <point x="407" y="117"/>
      <point x="322" y="119" type="curve" smooth="yes"/>
      <point x="291.098199936" y="119.0"/>
      <point x="254.090126182" y="115.0"/>
      <point x="226.0" y="115.0" type="curve" smooth="yes"/>
      <point x="148.0" y="116.0"/>
      <point x="102" y="134"/>
    </contour>
    <contour>
      <point x="506" y="-75" type="curve" smooth="yes"/>
      <point x="524" y="-75"/>
      <point x="543" y="-65"/>
      <point x="548" y="-39" type="curve"/>
      <point x="521" y="-23"/>
      <point x="511" y="34"/>
      <point x="511" y="75" type="curve" smooth="yes"/>
      <point x="511" y="244"/>
      <point x="626" y="372"/>
      <point x="656" y="391" type="curve"/>
      <point x="578" y="514" type="line"/>
      <point x="495" y="471"/>
      <point x="424" y="420"/>
      <point x="333" y="341" type="curve"/>
      <point x="349" y="326" type="line"/>
      <point x="381" y="452" type="line" smooth="yes"/>
      <point x="405" y="545"/>
      <point x="441" y="567"/>
      <point x="524" y="567" type="curve" smooth="yes"/>
      <point x="699" y="567" type="line"/>
      <point x="683" y="671" type="line"/>
      <point x="537" y="671" type="line" smooth="yes"/>
      <point x="365" y="671"/>
      <point x="305" y="613"/>
      <point x="269" y="453" type="curve" smooth="yes"/>
      <point x="224" y="251" type="line"/>
      <point x="320" y="174" type="line"/>
      <point x="361" y="221"/>
      <point x="465" y="322"/>
      <point x="545" y="366" type="curve"/>
      <point x="543" y="396" type="line"/>
      <point x="496" y="353"/>
      <point x="446" y="198"/>
      <point x="446" y="113" type="curve" smooth="yes"/>
      <point x="446" y="8"/>
      <point x="475" y="-75"/>
    </contour>
    <contour>
      <point x="97" y="452" type="line"/>
      <point x="199" y="442"/>
      <point x="243" y="332"/>
      <point x="226" y="253" type="curve"/>
      <point x="258" y="268" type="line"/>
      <point x="285" y="394"/>
      <point x="200" y="522"/>
      <point x="97" y="522" type="curve" smooth="yes"/>
      <point x="30" y="522"/>
      <point x="-14" y="476"/>
      <point x="-14" y="416" type="curve" smooth="yes"/>
      <point x="-14" y="358"/>
      <point x="25" y="313"/>
      <point x="89" y="313" type="curve" smooth="yes"/>
      <point x="130" y="313"/>
      <point x="181" y="339"/>
      <point x="181" y="401" type="curve" smooth="yes"/>
      <point x="181" y="429"/>
      <point x="168" y="477"/>
      <point x="94" y="477" type="curve"/>
    </contour>
    <contour>
      <point x="-7" y="567" type="line"/>
      <point x="192" y="567" type="line" smooth="yes"/>
      <point x="242" y="567"/>
      <point x="283" y="551"/>
      <point x="298" y="526" type="curve"/>
      <point x="316" y="540" type="line"/>
      <point x="302" y="622"/>
      <point x="248" y="671"/>
      <point x="177" y="671" type="curve" smooth="yes"/>
      <point x="-23" y="671" type="line"/>
    </contour>
    <contour>
      <point x="502" y="-52" type="move" name="blwm"/>
    </contour>
    <contour>
      <point x="389" y="-49" type="move" name="haln"/>
    </contour>
    <contour>
      <point x="416" y="750" type="move" name="reph"/>
    </contour>
    <contour>
      <point x="416" y="750" type="move" name="chandrabindu"/>
    </contour>
  </outline>
</glyph>
<glyph name="bn_n_k_ta" format="1">
  <advance width="850"/>
  <outline>
    <contour>
      <point x="268" y="452" type="line"/>
      <point x="370" y="442"/>
      <point x="421" y="331"/>
      <point x="404" y="252" type="curve"/>
      <point x="427" y="277" type="line"/>
      <point x="454" y="403"/>
      <point x="368" y="519"/>
      <point x="265" y="519" type="curve" smooth="yes"/>
      <point x="198" y="519"/>
      <point x="159" y="476"/>
      <point x="159" y="420" type="curve"/>
      <point x="159" y="365"/>
      <point x="194" y="326"/>
      <point x="251" y="326" type="curve"/>
      <point x="299" y="326"/>
      <point x="336" y="362"/>
      <point x="334" y="416" type="curve" smooth="yes"/>
      <point x="333" y="444"/>
      <point x="309" y="477"/>
      <point x="265" y="477" type="curve"/>
    </contour>
    <contour>
      <point x="-7" y="567" type="line"/>
      <point x="373" y="567" type="line" smooth="yes"/>
      <point x="423" y="567"/>
      <point x="444" y="551"/>
      <point x="459" y="526" type="curve"/>
      <point x="477" y="540" type="line"/>
      <point x="463" y="622"/>
      <point x="429" y="671"/>
      <point x="358" y="671" type="curve" smooth="yes"/>
      <point x="-23" y="671" type="line"/>
    </contour>
    <contour>
      <point x="507" y="246" type="line"/>
      <point x="546" y="443" type="line" smooth="yes"/>
      <point x="565" y="536"/>
      <point x="596" y="567"/>
      <point x="687" y="567" type="curve" smooth="yes"/>
      <point x="852" y="567" type="line"/>
      <point x="836" y="671" type="line"/>
      <point x="714" y="671" type="line" smooth="yes"/>
      <point x="541" y="671"/>
      <point x="460" y="608"/>
      <point x="434" y="443" type="curve" smooth="yes"/>
      <point x="402" y="241" type="line"/>
    </contour>
    <contour>
      <point x="811" y="103" type="curve"/>
      <point x="811" y="174"/>
      <point x="773" y="243"/>
      <point x="704" y="243" type="curve"/>
      <point x="622" y="243"/>
      <point x="581" y="143"/>
      <point x="552" y="43" type="curve"/>
      <point x="563" y="-2" type="line"/>
      <point x="576" y="75"/>
      <point x="633" y="151"/>
      <point x="687" y="151" type="curve"/>
      <point x="722" y="151"/>
      <point x="755" y="128"/>
      <point x="755" y="79" type="curve" smooth="yes"/>
      <point x="755" y="72"/>
      <point x="754" y="66"/>
      <point x="753" y="59" type="curve"/>
      <point x="740" y="73"/>
      <point x="723" y="85"/>
      <point x="697" y="85" type="curve" smooth="yes"/>
      <point x="648" y="85"/>
      <point x="626" y="50"/>
      <point x="626" y="15" type="curve" smooth="yes"/>
      <point x="626" y="-33"/>
      <point x="664" y="-55"/>
      <point x="705" y="-55" type="curve" smooth="yes"/>
      <point x="775" y="-55"/>
      <point x="811" y="36"/>
    </contour>
    <contour>
      <point x="70" y="282" type="curve"/>
      <point x="70" y="365"/>
      <point x="102" y="424"/>
      <point x="140" y="453" type="curve"/>
      <point x="131" y="463"/>
      <point x="112" y="471"/>
      <point x="95" y="471" type="curve" smooth="yes"/>
      <point x="27" y="471"/>
      <point x="-2" y="407"/>
      <point x="-2" y="296" type="curve" smooth="yes"/>
      <point x="-2" y="-37"/>
      <point x="194" y="-268"/>
      <point x="391" y="-268" type="curve"/>
      <point x="507" y="-268"/>
      <point x="588" y="-206"/>
      <point x="588" y="-76" type="curve" smooth="yes"/>
      <point x="588" y="-50"/>
      <point x="581" y="-20"/>
      <point x="557" y="34" type="curve"/>
      <point x="551" y="-17" type="line"/>
      <point x="566" y="31"/>
      <point x="610" y="114"/>
      <point x="610" y="140" type="curve" smooth="yes"/>
      <point x="610" y="217"/>
      <point x="563" y="305"/>
      <point x="437" y="305" type="curve" smooth="yes"/>
      <point x="316" y="305"/>
      <point x="179" y="228"/>
      <point x="179" y="120" type="curve"/>
      <point x="179" y="71"/>
      <point x="214" y="30"/>
      <point x="269" y="30" type="curve" smooth="yes"/>
      <point x="315" y="30"/>
      <point x="345" y="63"/>
      <point x="345" y="109" type="curve" smooth="yes"/>
      <point x="345" y="129"/>
      <point x="336" y="146"/>
      <point x="301" y="178" type="curve"/>
      <point x="316" y="131" type="line"/>
      <point x="354" y="211"/>
      <point x="403" y="233"/>
      <point x="451" y="233" type="curve" smooth="yes"/>
      <point x="501" y="233"/>
      <point x="524" y="206"/>
      <point x="524" y="170" type="curve" smooth="yes"/>
      <point x="524" y="146"/>
      <point x="511" y="98"/>
      <point x="477" y="71" type="curve"/>
      <point x="522" y="82" type="line"/>
      <point x="502" y="99"/>
      <point x="480" y="106"/>
      <point x="459" y="106" type="curve" smooth="yes"/>
      <point x="410" y="106"/>
      <point x="379" y="76"/>
      <point x="379" y="24" type="curve" smooth="yes"/>
      <point x="379" y="-29"/>
      <point x="421" y="-50"/>
      <point x="463" y="-50" type="curve" smooth="yes"/>
      <point x="483" y="-50"/>
      <point x="504" y="-44"/>
      <point x="524" y="-33" type="curve"/>
      <point x="525" y="-39"/>
      <point x="525" y="-44"/>
      <point x="525" y="-50" type="curve" smooth="yes"/>
      <point x="525" y="-112"/>
      <point x="470" y="-145"/>
      <point x="401" y="-145" type="curve" smooth="yes"/>
      <point x="205" y="-145"/>
      <point x="70" y="48"/>
    </contour>
    <contour>
      <point x="400" y="-264" type="move" name="blwm"/>
    </contour>
    <contour>
      <point x="312" y="-261" type="move" name="haln"/>
    </contour>
    <contour>
      <point x="563" y="750" type="move" name="reph"/>
    </contour>
    <contour>
      <point x="563" y="750" type="move" name="chandrabindu"/>
    </contour>
  </outline>
</glyph>
<glyph name="bn_n_tt_ra" format="1">
  <advance width="702"/>
  <outline>
    <contour>
      <point x="94" y="452" type="line"/>
      <point x="196" y="442"/>
      <point x="247" y="362"/>
      <point x="230" y="283" type="curve"/>
      <point x="252" y="295" type="line"/>
      <point x="279" y="421"/>
      <point x="204" y="523"/>
      <point x="101" y="523" type="curve" smooth="yes"/>
      <point x="34" y="523"/>
      <point x="-11" y="478"/>
      <point x="-11" y="418" type="curve" smooth="yes"/>
      <point x="-11" y="360"/>
      <point x="25" y="320"/>
      <point x="84" y="320" type="curve" smooth="yes"/>
      <point x="125" y="320"/>
      <point x="168" y="351"/>
      <point x="168" y="408" type="curve" smooth="yes"/>
      <point x="168" y="436"/>
      <point x="148" y="477"/>
      <point x="91" y="477" type="curve"/>
    </contour>
    <contour>
      <point x="576" y="640" type="line"/>
      <point x="596" y="657"/>
      <point x="608" y="677"/>
      <point x="608" y="704" type="curve" smooth="yes"/>
      <point x="608" y="787"/>
      <point x="486" y="853"/>
      <point x="195" y="853" type="curve" smooth="yes"/>
      <point x="156" y="853"/>
      <point x="139" y="871"/>
      <point x="139" y="898" type="curve" smooth="yes"/>
      <point x="139" y="921"/>
      <point x="155" y="943"/>
      <point x="182" y="950" type="curve"/>
      <point x="172" y="974"/>
      <point x="163" y="985"/>
      <point x="141" y="985" type="curve" smooth="yes"/>
      <point x="105" y="985"/>
      <point x="79" y="940"/>
      <point x="79" y="895" type="curve" smooth="yes"/>
      <point x="79" y="785"/>
      <point x="192" y="716"/>
      <point x="512" y="716" type="curve" smooth="yes"/>
      <point x="536" y="716"/>
      <point x="548" y="709"/>
      <point x="548" y="692" type="curve" smooth="yes"/>
      <point x="548" y="681"/>
      <point x="543" y="675"/>
      <point x="526" y="666" type="curve"/>
    </contour>
    <contour>
      <point x="345" y="160" type="curve" smooth="yes"/>
      <point x="325" y="160"/>
      <point x="319" y="185"/>
      <point x="328" y="230" type="curve" smooth="yes"/>
      <point x="372" y="443" type="line" smooth="yes"/>
      <point x="391" y="536"/>
      <point x="422" y="567"/>
      <point x="513" y="567" type="curve" smooth="yes"/>
      <point x="704" y="567" type="line"/>
      <point x="688" y="671" type="line"/>
      <point x="540" y="671" type="line" smooth="yes"/>
      <point x="367" y="671"/>
      <point x="300" y="622"/>
      <point x="261" y="453" type="curve" smooth="yes"/>
      <point x="238" y="352" type="line" smooth="yes"/>
      <point x="197" y="170"/>
      <point x="280" y="90"/>
      <point x="384" y="90" type="curve" smooth="yes"/>
      <point x="500" y="90"/>
      <point x="631" y="249"/>
      <point x="631" y="368" type="curve" smooth="yes"/>
      <point x="631" y="437"/>
      <point x="586" y="479"/>
      <point x="526" y="479" type="curve" smooth="yes"/>
      <point x="466" y="479"/>
      <point x="424" y="441"/>
      <point x="424" y="382" type="curve" smooth="yes"/>
      <point x="424" y="337"/>
      <point x="460" y="290"/>
      <point x="522" y="290" type="curve"/>
      <point x="500" y="328" type="line"/>
      <point x="474" y="226"/>
      <point x="383" y="160"/>
    </contour>
    <contour>
      <point x="432" y="140" type="line"/>
      <point x="367" y="-155" type="line" smooth="yes"/>
      <point x="465" y="-155" type="line"/>
      <point x="553" y="258" type="line"/>
    </contour>
    <contour>
      <point x="96" y="107" type="curve" smooth="yes"/>
      <point x="96" y="134"/>
      <point x="111" y="151"/>
      <point x="131" y="158" type="curve"/>
      <point x="124" y="181"/>
      <point x="116" y="194"/>
      <point x="92" y="194" type="curve"/>
      <point x="60" y="194"/>
      <point x="35" y="150"/>
      <point x="35" y="89" type="curve" smooth="yes"/>
      <point x="35" y="-16"/>
      <point x="124" y="-53"/>
      <point x="252" y="-53" type="curve" smooth="yes"/>
      <point x="366" y="-53"/>
      <point x="386" y="-95"/>
      <point x="372" y="-151" type="curve"/>
      <point x="390" y="-148" type="line"/>
      <point x="424" y="3"/>
      <point x="350" y="63"/>
      <point x="226" y="63" type="curve" smooth="yes"/>
      <point x="133" y="63"/>
      <point x="96" y="71"/>
    </contour>
    <contour>
      <point x="-7" y="567" type="line"/>
      <point x="199" y="567" type="line" smooth="yes"/>
      <point x="249" y="567"/>
      <point x="270" y="551"/>
      <point x="285" y="526" type="curve"/>
      <point x="303" y="540" type="line"/>
      <point x="289" y="622"/>
      <point x="255" y="671"/>
      <point x="184" y="671" type="curve" smooth="yes"/>
      <point x="-23" y="671" type="line"/>
    </contour>
    <contour>
      <point x="309" y="750" type="move" name="reph"/>
    </contour>
    <contour>
      <point x="426" y="830" type="move" name="chandrabindu"/>
    </contour>
    <contour>
      <point x="414" y="-155" type="move" name="blwm"/>
    </contour>
    <contour>
      <point x="382" y="-155" type="move" name="haln"/>
    </contour>
  </outline>
</glyph>
<glyph name="bn_ny_ra" format="1">
  <advance width="883"/>
  <outline>
    <contour>
      <point x="585" y="165" type="line"/>
      <point x="512" y="-170" type="line" smooth="yes"/>
      <point x="627" y="-170" type="line"/>
      <point x="694" y="142" type="line"/>
    </contour>
    <contour>
      <point x="844" y="465" type="curve" smooth="yes"/>
      <point x="844" y="545"/>
      <point x="779" y="624"/>
      <point x="712" y="624" type="curve" smooth="yes"/>
      <point x="596" y="624"/>
      <point x="475" y="453"/>
      <point x="472" y="334" type="curve"/>
      <point x="472" y="250"/>
      <point x="536" y="99"/>
      <point x="658" y="99" type="curve" smooth="yes"/>
      <point x="742" y="99"/>
      <point x="779" y="171"/>
      <point x="777" y="251" type="curve"/>
      <point x="777" y="351"/>
      <point x="708" y="429"/>
      <point x="650" y="429" type="curve" smooth="yes"/>
      <point x="607" y="429"/>
      <point x="578" y="395"/>
      <point x="578" y="355" type="curve" smooth="yes"/>
      <point x="578" y="315"/>
      <point x="612" y="283"/>
      <point x="652" y="283" type="curve" smooth="yes"/>
      <point x="710" y="283"/>
      <point x="844" y="365"/>
    </contour>
    <contour>
      <point x="694" y="339" type="line"/>
      <point x="723" y="296"/>
      <point x="703" y="201"/>
      <point x="635" y="201" type="curve"/>
      <point x="574" y="201"/>
      <point x="515" y="257"/>
      <point x="515" y="331" type="curve" smooth="yes"/>
      <point x="515" y="455"/>
      <point x="648" y="534"/>
      <point x="723" y="534" type="curve" smooth="yes"/>
      <point x="752" y="534"/>
      <point x="772" y="522"/>
      <point x="772" y="496" type="curve" smooth="yes"/>
      <point x="772" y="456"/>
      <point x="723" y="426"/>
      <point x="670" y="407" type="curve"/>
    </contour>
    <contour>
      <point x="442" y="536" type="curve" smooth="yes"/>
      <point x="338" y="69" type="line"/>
      <point x="453" y="69" type="line"/>
      <point x="531" y="428" type="line" smooth="yes"/>
      <point x="564" y="581"/>
      <point x="487" y="681"/>
      <point x="384" y="681" type="curve" smooth="yes"/>
      <point x="262" y="681"/>
      <point x="159" y="513"/>
      <point x="159" y="431" type="curve" smooth="yes"/>
      <point x="159" y="358"/>
      <point x="207" y="312"/>
      <point x="263" y="312" type="curve" smooth="yes"/>
      <point x="319" y="312"/>
      <point x="359" y="349"/>
      <point x="359" y="408" type="curve" smooth="yes"/>
      <point x="359" y="450"/>
      <point x="331" y="497"/>
      <point x="258" y="497" type="curve"/>
      <point x="284" y="452" type="line"/>
      <point x="317" y="542"/>
      <point x="383" y="613"/>
      <point x="420" y="613" type="curve" smooth="yes"/>
      <point x="443" y="613"/>
      <point x="455" y="593"/>
    </contour>
    <contour>
      <point x="132" y="300" type="curve" smooth="yes"/>
      <point x="81" y="300"/>
      <point x="55" y="322"/>
      <point x="55" y="364" type="curve" smooth="yes"/>
      <point x="55" y="419"/>
      <point x="81" y="484"/>
      <point x="132" y="513" type="curve"/>
      <point x="125" y="536"/>
      <point x="113" y="549"/>
      <point x="88" y="549" type="curve" smooth="yes"/>
      <point x="43" y="549"/>
      <point x="1" y="470"/>
      <point x="1" y="383" type="curve" smooth="yes"/>
      <point x="1" y="250"/>
      <point x="91" y="153"/>
      <point x="254" y="153" type="curve" smooth="yes"/>
      <point x="314" y="153"/>
      <point x="343" y="157"/>
      <point x="343" y="114" type="curve" smooth="yes"/>
      <point x="343" y="99"/>
      <point x="342" y="85"/>
      <point x="338" y="69" type="curve"/>
      <point x="364" y="95" type="line"/>
      <point x="368" y="113"/>
      <point x="370" y="130"/>
      <point x="370" y="146" type="curve" smooth="yes"/>
      <point x="370" y="254"/>
      <point x="276" y="300"/>
    </contour>
    <contour>
      <point x="194" y="12" type="curve" smooth="yes"/>
      <point x="148" y="12"/>
      <point x="125" y="27"/>
      <point x="125" y="58" type="curve"/>
      <point x="125" y="81"/>
      <point x="138" y="94"/>
      <point x="159" y="101" type="curve"/>
      <point x="155" y="122"/>
      <point x="144" y="137"/>
      <point x="120" y="137" type="curve"/>
      <point x="88" y="137"/>
      <point x="62" y="106"/>
      <point x="62" y="45" type="curve"/>
      <point x="62" y="-42"/>
      <point x="136" y="-109"/>
      <point x="248" y="-109" type="curve" smooth="yes"/>
      <point x="379" y="-109"/>
      <point x="507" y="-56"/>
      <point x="512" y="-170" type="curve"/>
      <point x="540" y="-164" type="line"/>
      <point x="543" y="-12"/>
      <point x="451" y="27"/>
      <point x="367" y="27" type="curve" smooth="yes"/>
      <point x="309" y="27"/>
      <point x="247" y="12"/>
    </contour>
    <contour>
      <point x="576" y="-170" type="move" name="blwm"/>
    </contour>
    <contour>
      <point x="547" y="-170" type="move" name="haln"/>
    </contour>
    <contour>
      <point x="549" y="750" type="move" name="reph"/>
    </contour>
    <contour>
      <point x="550" y="750" type="move" name="chandrabindu"/>
    </contour>
  </outline>
</glyph>
<glyph name="bn_pa.half" format="1">
  <advance width="672"/>
  <outline>
    <contour>
      <point x="658" y="671" type="line"/>
      <point x="648" y="671" type="line" smooth="yes"/>
      <point x="591" y="671"/>
      <point x="573" y="704"/>
      <point x="573" y="798" type="curve"/>
      <point x="539" y="798" type="line"/>
      <point x="417" y="237" type="line" smooth="yes"/>
      <point x="532" y="237" type="line"/>
      <point x="613" y="621" type="line"/>
      <point x="624" y="589"/>
      <point x="643" y="567"/>
      <point x="667" y="567" type="curve" smooth="yes"/>
      <point x="674" y="567" type="line"/>
    </contour>
    <contour>
      <point x="390" y="542" type="line"/>
      <point x="339" y="505"/>
      <point x="281" y="450"/>
      <point x="228" y="404" type="curve"/>
      <point x="241" y="467"/>
      <point x="204" y="516"/>
      <point x="155" y="520" type="curve"/>
      <point x="165" y="565"/>
      <point x="205" y="592"/>
      <point x="252" y="592" type="curve" smooth="yes"/>
      <point x="391" y="592"/>
      <point x="455" y="413"/>
      <point x="422" y="255" type="curve"/>
      <point x="463" y="333" type="line"/>
      <point x="502" y="489"/>
      <point x="388" y="684"/>
      <point x="198" y="681" type="curve" smooth="yes"/>
      <point x="71" y="679"/>
      <point x="7" y="605"/>
      <point x="7" y="516" type="curve" smooth="yes"/>
      <point x="7" y="462"/>
      <point x="38" y="431"/>
      <point x="72" y="431" type="curve" smooth="yes"/>
      <point x="97" y="431"/>
      <point x="109" y="443"/>
      <point x="136" y="443" type="curve" smooth="yes"/>
      <point x="155" y="443"/>
      <point x="176" y="427"/>
      <point x="176" y="394" type="curve" smooth="yes"/>
      <point x="176" y="363"/>
      <point x="175" y="366"/>
      <point x="121" y="317" type="curve"/>
      <point x="199" y="228" type="line"/>
      <point x="279" y="298"/>
      <point x="362" y="378"/>
      <point x="434" y="443" type="curve"/>
    </contour>
  </outline>
</glyph>
<glyph name="bn_ra_uukaar" format="1">
  <advance width="658"/>
  <outline>
    <contour>
      <point x="660" y="567" type="line"/>
      <point x="644" y="671" type="line"/>
      <point x="478" y="671" type="line"/>
      <point x="494" y="567" type="line"/>
    </contour>
    <contour>
      <point x="524" y="386" type="curve"/>
      <point x="524" y="432" type="line"/>
      <point x="446" y="302"/>
      <point x="419" y="157"/>
      <point x="410" y="78" type="curve"/>
      <point x="409" y="63"/>
      <point x="487" y="22"/>
      <point x="496" y="31" type="curve"/>
      <point x="500" y="149"/>
      <point x="539" y="289"/>
      <point x="599" y="387" type="curve"/>
      <point x="537" y="491" type="line"/>
      <point x="477" y="485"/>
      <point x="386" y="430"/>
      <point x="368" y="407" type="curve"/>
      <point x="361" y="298" type="line"/>
      <point x="404" y="345"/>
      <point x="456" y="376"/>
    </contour>
    <contour>
      <point x="55" y="-8" type="curve" smooth="yes"/>
      <point x="93" y="-8"/>
      <point x="126" y="23"/>
      <point x="126" y="63" type="curve" smooth="yes"/>
      <point x="126" y="101"/>
      <point x="93" y="134"/>
      <point x="55" y="134" type="curve" smooth="yes"/>
      <point x="17" y="134"/>
      <point x="-16" y="101"/>
      <point x="-16" y="63" type="curve" smooth="yes"/>
      <point x="-16" y="23"/>
      <point x="17" y="-8"/>
    </contour>
    <contour>
      <point x="184" y="567" type="line" smooth="yes"/>
      <point x="279" y="567"/>
      <point x="299" y="545"/>
      <point x="324" y="504" type="curve"/>
      <point x="343" y="533" type="line"/>
      <point x="307" y="620"/>
      <point x="235" y="671"/>
      <point x="117" y="671" type="curve" smooth="yes"/>
      <point x="-33" y="671" type="line"/>
      <point x="-17" y="567" type="line"/>
    </contour>
    <contour>
      <point x="431" y="494" type="line" smooth="yes"/>
      <point x="442" y="546"/>
      <point x="464" y="567"/>
      <point x="494" y="567" type="curve" smooth="yes"/>
      <point x="520" y="567" type="line"/>
      <point x="504" y="671" type="line"/>
      <point x="474" y="671" type="line" smooth="yes"/>
      <point x="391" y="671"/>
      <point x="345" y="617"/>
      <point x="328" y="538" type="curve" smooth="yes"/>
      <point x="214" y="0" type="line" smooth="yes"/>
      <point x="329" y="0" type="line" smooth="yes"/>
    </contour>
    <contour>
      <point x="381" y="544" type="line"/>
      <point x="253" y="544"/>
      <point x="97" y="456"/>
      <point x="-15" y="352" type="curve"/>
      <point x="1" y="239" type="line"/>
      <point x="135" y="227"/>
      <point x="243" y="138"/>
      <point x="214" y="0" type="curve"/>
      <point x="240" y="26" type="line"/>
      <point x="271" y="173"/>
      <point x="213" y="269"/>
      <point x="119" y="308" type="curve"/>
      <point x="119" y="298" type="line"/>
      <point x="227" y="399"/>
      <point x="318" y="425"/>
      <point x="404" y="425" type="curve"/>
    </contour>
    <contour>
      <point x="453" y="750" type="move" name="reph"/>
    </contour>
    <contour>
      <point x="453" y="750" type="move" name="chandrabindu"/>
    </contour>
    <contour>
      <point x="278" y="0" type="move" name="blwm"/>
    </contour>
    <contour>
      <point x="248" y="0" type="move" name="haln"/>
    </contour>
  </outline>
</glyph>
<glyph name="bn_s_tha" format="1">
  <advance width="624"/>
  <outline>
    <contour>
      <point x="245" y="232" type="line"/>
      <point x="264" y="261"/>
      <point x="303" y="279"/>
      <point x="334" y="279" type="curve" smooth="yes"/>
      <point x="380" y="279"/>
      <point x="398" y="252"/>
      <point x="398" y="210" type="curve" smooth="yes"/>
      <point x="398" y="125"/>
      <point x="320" y="21"/>
      <point x="89" y="41" type="curve"/>
      <point x="107" y="-81" type="line"/>
      <point x="275" y="-97"/>
      <point x="385" y="-165"/>
      <point x="426" y="-265" type="curve"/>
      <point x="451" y="-265"/>
      <point x="476" y="-254"/>
      <point x="476" y="-225" type="curve" smooth="yes"/>
      <point x="476" y="-178"/>
      <point x="389" y="-94"/>
      <point x="280" y="-35" type="curve"/>
      <point x="254" y="-61" type="line"/>
      <point x="388" y="-31"/>
      <point x="478" y="52"/>
      <point x="478" y="174" type="curve" smooth="yes"/>
      <point x="478" y="279"/>
      <point x="406" y="348"/>
      <point x="317" y="348" type="curve" smooth="yes"/>
      <point x="194" y="348"/>
      <point x="136" y="268"/>
      <point x="136" y="201" type="curve" smooth="yes"/>
      <point x="136" y="145"/>
      <point x="171" y="112"/>
      <point x="214" y="112" type="curve" smooth="yes"/>
      <point x="275" y="112"/>
      <point x="322" y="157"/>
      <point x="322" y="212" type="curve" smooth="yes"/>
      <point x="322" y="244"/>
      <point x="304" y="265"/>
      <point x="274" y="281" type="curve"/>
    </contour>
    <contour>
      <point x="88" y="446" type="curve"/>
      <point x="71" y="446"/>
      <point x="49" y="462"/>
      <point x="49" y="488" type="curve" smooth="yes"/>
      <point x="49" y="494"/>
      <point x="50" y="501"/>
      <point x="51" y="504" type="curve"/>
      <point x="44" y="512"/>
      <point x="35" y="515"/>
      <point x="27" y="515" type="curve" smooth="yes"/>
      <point x="7" y="515"/>
      <point x="-5" y="502"/>
      <point x="-5" y="482" type="curve" smooth="yes"/>
      <point x="-5" y="428"/>
      <point x="58" y="333"/>
      <point x="123" y="333" type="curve"/>
      <point x="183" y="333"/>
      <point x="274" y="460"/>
      <point x="274" y="572" type="curve"/>
      <point x="184" y="572" type="line"/>
      <point x="177" y="523"/>
      <point x="121" y="446"/>
    </contour>
    <contour>
      <point x="-7" y="567" type="line"/>
      <point x="626" y="567" type="line"/>
      <point x="610" y="671" type="line"/>
      <point x="-23" y="671" type="line"/>
    </contour>
    <contour>
      <point x="393" y="432" type="curve"/>
      <point x="364" y="432"/>
      <point x="286" y="462"/>
      <point x="277" y="567" type="curve"/>
      <point x="232" y="567" type="line"/>
      <point x="238" y="368"/>
      <point x="350" y="324"/>
      <point x="396" y="324" type="curve"/>
      <point x="488" y="324"/>
      <point x="558" y="374"/>
      <point x="558" y="452" type="curve" smooth="yes"/>
      <point x="558" y="488"/>
      <point x="543" y="528"/>
      <point x="508" y="567" type="curve"/>
      <point x="417" y="567" type="line"/>
      <point x="496" y="538"/>
      <point x="490" y="432"/>
    </contour>
    <contour>
      <point x="316" y="-150" type="move" name="blwm"/>
    </contour>
    <contour>
      <point x="216" y="-150" type="move" name="haln"/>
    </contour>
    <contour>
      <point x="337" y="750" type="move" name="reph"/>
    </contour>
    <contour>
      <point x="337" y="750" type="move" name="chandrabindu"/>
    </contour>
  </outline>
</glyph>
<glyph name="bn_sh_la" format="1">
  <advance width="643"/>
  <outline>
    <contour>
      <point x="225" y="78" type="curve"/>
      <point x="225" y="78"/>
      <point x="265" y="65"/>
      <point x="265" y="65" type="curve"/>
      <point x="269" y="95"/>
      <point x="281" y="123"/>
      <point x="310" y="123" type="curve"/>
      <point x="339" y="123"/>
      <point x="357" y="95"/>
      <point x="341" y="6" type="curve"/>
      <point x="348" y="8" type="line"/>
      <point x="380" y="94"/>
      <point x="370" y="224"/>
      <point x="301" y="224" type="curve"/>
      <point x="257" y="224"/>
      <point x="231" y="164"/>
    </contour>
    <contour>
      <point x="225" y="78" type="curve"/>
      <point x="241" y="105" type="line"/>
      <point x="262" y="195"/>
      <point x="206" y="283"/>
      <point x="131" y="281" type="curve"/>
      <point x="51" y="281"/>
      <point x="7" y="211"/>
      <point x="7" y="136" type="curve" smooth="yes"/>
      <point x="7" y="39"/>
      <point x="73" y="-18"/>
      <point x="123" y="-18" type="curve"/>
      <point x="162" y="-18"/>
      <point x="191" y="5"/>
      <point x="191" y="51" type="curve"/>
      <point x="191" y="83"/>
      <point x="174" y="108"/>
      <point x="138" y="109" type="curve"/>
      <point x="109" y="109"/>
      <point x="75" y="83"/>
      <point x="78" y="41" type="curve"/>
      <point x="99" y="30" type="line"/>
      <point x="83" y="40"/>
      <point x="78" y="64"/>
      <point x="78" y="83" type="curve"/>
      <point x="77" y="131"/>
      <point x="109" y="169"/>
      <point x="150" y="169" type="curve" smooth="yes"/>
      <point x="189" y="169"/>
      <point x="225" y="142"/>
    </contour>
    <contour>
      <point x="629" y="671" type="line"/>
      <point x="619" y="671" type="line" smooth="yes"/>
      <point x="562" y="671"/>
      <point x="544" y="704"/>
      <point x="544" y="798" type="curve"/>
      <point x="510" y="798" type="line"/>
      <point x="338" y="0" type="line" smooth="yes"/>
      <point x="453" y="0" type="line"/>
      <point x="584" y="621" type="line"/>
      <point x="595" y="589"/>
      <point x="614" y="567"/>
      <point x="638" y="567" type="curve" smooth="yes"/>
      <point x="645" y="567" type="line"/>
    </contour>
    <contour>
      <point x="339" y="681" type="curve" smooth="yes"/>
      <point x="270" y="681"/>
      <point x="204" y="615"/>
      <point x="180" y="533" type="curve"/>
      <point x="83" y="510"/>
      <point x="27" y="455"/>
      <point x="27" y="401" type="curve" smooth="yes"/>
      <point x="27" y="365"/>
      <point x="53" y="337"/>
      <point x="88" y="337" type="curve" smooth="yes"/>
      <point x="131" y="337"/>
      <point x="170" y="357"/>
      <point x="191" y="407" type="curve"/>
      <point x="206" y="355"/>
      <point x="240" y="327"/>
      <point x="287" y="327" type="curve" smooth="yes"/>
      <point x="327" y="327"/>
      <point x="364" y="363"/>
      <point x="364" y="407" type="curve" smooth="yes"/>
      <point x="364" y="451"/>
      <point x="346" y="478"/>
      <point x="315" y="508" type="curve"/>
      <point x="332" y="548"/>
      <point x="353" y="577"/>
      <point x="390" y="577" type="curve" smooth="yes"/>
      <point x="419" y="577"/>
      <point x="441" y="557"/>
      <point x="459" y="526" type="curve"/>
      <point x="477" y="540" type="line"/>
      <point x="462" y="628"/>
      <point x="410" y="681"/>
    </contour>
    <contour>
      <point x="-7" y="567" type="line"/>
      <point x="67" y="567" type="line" smooth="yes"/>
      <point x="135" y="567"/>
      <point x="163" y="544"/>
      <point x="184" y="507" type="curve"/>
      <point x="202" y="521" type="line"/>
      <point x="186" y="615"/>
      <point x="142" y="671"/>
      <point x="52" y="671" type="curve" smooth="yes"/>
      <point x="-23" y="671" type="line"/>
    </contour>
    <contour>
      <point x="402" y="0" type="move" name="blwm"/>
    </contour>
    <contour>
      <point x="364" y="0" type="move" name="haln"/>
    </contour>
    <contour>
      <point x="519" y="750" type="move" name="reph"/>
    </contour>
    <contour>
      <point x="519" y="750" type="move" name="chandrabindu"/>
    </contour>
  </outline>
</glyph>
<glyph name="bn_t_ba" format="1">
  <advance width="581"/>
  <outline>
    <contour>
      <point x="236" y="-201" type="curve"/>
      <point x="258" y="-182" type="line"/>
      <point x="279" y="-100"/>
      <point x="213" y="-43"/>
      <point x="156" y="-20" type="curve"/>
      <point x="201" y="11"/>
      <point x="270" y="39"/>
      <point x="320" y="46" type="curve"/>
      <point x="280" y="109" type="line"/>
      <point x="191" y="97"/>
      <point x="105" y="56"/>
      <point x="38" y="7" type="curve"/>
      <point x="53" y="-89" type="line"/>
      <point x="60" y="-89" type="line" smooth="yes"/>
      <point x="169" y="-89"/>
      <point x="250" y="-120"/>
    </contour>
    <contour>
      <point x="583" y="567" type="line"/>
      <point x="567" y="671" type="line"/>
      <point x="-23" y="671" type="line"/>
      <point x="-7" y="567" type="line"/>
    </contour>
    <contour>
      <point x="291" y="73" type="line"/>
      <point x="233" y="-203" type="line" smooth="yes"/>
      <point x="338" y="-203" type="line" smooth="yes"/>
      <point x="395" y="73" type="line"/>
    </contour>
    <contour>
      <point x="310" y="45" type="curve" smooth="yes"/>
      <point x="427" y="45"/>
      <point x="524" y="151"/>
      <point x="524" y="287" type="curve" smooth="yes"/>
      <point x="524" y="436"/>
      <point x="419" y="513"/>
      <point x="309" y="512" type="curve" smooth="yes"/>
      <point x="219" y="511"/>
      <point x="181" y="449"/>
      <point x="181" y="384" type="curve" smooth="yes"/>
      <point x="181" y="319"/>
      <point x="229" y="266"/>
      <point x="306" y="266" type="curve" smooth="yes"/>
      <point x="369" y="266"/>
      <point x="412" y="314"/>
      <point x="412" y="373" type="curve" smooth="yes"/>
      <point x="412" y="398"/>
      <point x="404" y="424"/>
      <point x="383" y="452" type="curve"/>
      <point x="349" y="398" type="line"/>
      <point x="413" y="394"/>
      <point x="454" y="366"/>
      <point x="454" y="302" type="curve" smooth="yes"/>
      <point x="454" y="225"/>
      <point x="387" y="164"/>
      <point x="286" y="164" type="curve" smooth="yes"/>
      <point x="172" y="164"/>
      <point x="60" y="247"/>
      <point x="60" y="396" type="curve" smooth="yes"/>
      <point x="60" y="433"/>
      <point x="69" y="466"/>
      <point x="87" y="489" type="curve"/>
      <point x="78" y="500"/>
      <point x="62" y="510"/>
      <point x="44" y="510" type="curve" smooth="yes"/>
      <point x="10" y="510"/>
      <point x="-14" y="486"/>
      <point x="-14" y="426" type="curve" smooth="yes"/>
      <point x="-14" y="252"/>
      <point x="133" y="45"/>
    </contour>
    <contour>
      <point x="291.0" y="750.0" type="move" name="reph"/>
    </contour>
    <contour>
      <point x="291.0" y="750.0" type="move" name="chandrabindu"/>
    </contour>
    <contour>
      <point x="287.0" y="-203.0" type="move" name="blwm"/>
    </contour>
    <contour>
      <point x="251.0" y="-203.0" type="move" name="haln"/>
    </contour>
  </outline>
</glyph>
<glyph name="bn_ta.half" format="1">
  <advance width="549"/>
  <outline>
    <contour>
      <point x="551" y="567" type="line"/>
      <point x="535" y="671" type="line"/>
      <point x="-23" y="671" type="line"/>
      <point x="-7" y="567" type="line"/>
    </contour>
    <contour>
      <point x="271" y="158" type="curve"/>
      <point x="400" y="158"/>
      <point x="471" y="241"/>
      <point x="471" y="360" type="curve"/>
      <point x="471" y="464"/>
      <point x="384" y="533"/>
      <point x="258" y="533" type="curve" smooth="yes"/>
      <point x="181" y="533"/>
      <point x="140" y="482"/>
      <point x="140" y="432" type="curve"/>
      <point x="140" y="369"/>
      <point x="191" y="333"/>
      <point x="247" y="333" type="curve" smooth="yes"/>
      <point x="336" y="333"/>
      <point x="361" y="459"/>
      <point x="289" y="491" type="curve"/>
      <point x="286" y="451" type="line"/>
      <point x="351" y="451"/>
      <point x="404" y="425"/>
      <point x="404" y="380" type="curve" smooth="yes"/>
      <point x="404" y="338"/>
      <point x="365" y="273"/>
      <point x="262" y="273" type="curve" smooth="yes"/>
      <point x="125" y="273"/>
      <point x="49" y="343"/>
      <point x="49" y="428" type="curve" smooth="yes"/>
      <point x="49" y="458"/>
      <point x="53" y="482"/>
      <point x="74" y="502" type="curve"/>
      <point x="67" y="510"/>
      <point x="44" y="522"/>
      <point x="23" y="522" type="curve" smooth="yes"/>
      <point x="-3" y="522"/>
      <point x="-19" y="488"/>
      <point x="-19" y="440" type="curve" smooth="yes"/>
      <point x="-19" y="334"/>
      <point x="62" y="158"/>
    </contour>
  </outline>
</glyph>
